<?xml version="1.0" encoding="UTF-8" standalone="no"?>
<svg
   width="800"
   height="577.77777"
   viewBox="0 0 36 26"
   aria-hidden="true"
   role="img"
   version="1.1"
   id="svg3"
   sodipodi:docname="Bosanski.svg"
   inkscape:version="1.3 (0e150ed6c4, 2023-07-21)"
   xmlns:inkscape="http://www.inkscape.org/namespaces/inkscape"
   xmlns:sodipodi="http://sodipodi.sourceforge.net/DTD/sodipodi-0.dtd"
   xmlns="http://www.w3.org/2000/svg"
   xmlns:svg="http://www.w3.org/2000/svg"
   xmlns:rdf="http://www.w3.org/1999/02/22-rdf-syntax-ns#"
   xmlns:cc="http://creativecommons.org/ns#"
   xmlns:dc="http://purl.org/dc/elements/1.1/">
  <title
     id="title1">Flag of Bosnia and Herzegovina</title>
  <defs
     id="defs3" />
  <sodipodi:namedview
     id="namedview3"
     pagecolor="#EEEFFF"
     bordercolor="#000000"
     borderopacity="0.25"
     inkscape:showpageshadow="2"
     inkscape:pageopacity="0.0"
     inkscape:pagecheckerboard="0"
     inkscape:deskcolor="#d1d1d1"
     showgrid="false"
     inkscape:zoom="0.98643574"
     inkscape:cx="729.90056"
     inkscape:cy="278.78146"
     inkscape:window-width="2160"
     inkscape:window-height="1330"
     inkscape:window-x="-12"
     inkscape:window-y="-12"
     inkscape:window-maximized="1"
     inkscape:current-layer="svg3"
     inkscape:clip-to-page="true" />
  <path
     fill="#2d3189"
     d="M 32,0 H 9.177 L 8.512,0.484 8.877,1.607 7.921,0.912 6.965,1.607 7.33,0.484 6.665,0 H 4 A 4,4 0 0 0 0,4 v 18 a 4,4 0 0 0 4,4 h 19.725 l 0.105,-0.324 -0.955,-0.695 h 1.181 l 0.365,-1.123 0.365,1.123 h 1.181 L 25.012,25.676 25.117,26 H 32 a 4,4 0 0 0 4,-4 V 4 A 4,4 0 0 0 32,0 Z"
     id="path1" />
  <path
     fill="#EEEFFF"
     d="M 6.965,1.607 7.921,0.912 8.876,1.607 8.512,0.484 9.177,0 H 6.665 L 7.33,0.484 Z m 19.002,23.374 h -1.181 l -0.365,-1.122 -0.365,1.122 H 22.875 L 23.83,25.676 23.725,26 h 1.392 L 25.011,25.676 Z M 9.999,1.815 10.363,2.938 h 1.182 L 10.589,3.633 10.954,4.756 9.999,4.061 9.043,4.756 9.408,3.633 8.453,2.938 h 1.18 z m 2.069,3.15 0.365,1.122 h 1.182 L 12.659,6.782 13.024,7.905 12.068,7.211 11.113,7.905 11.478,6.782 10.522,6.087 h 1.181 z m 2.054,3.148 0.365,1.123 h 1.181 l -0.956,0.695 0.365,1.123 -0.955,-0.695 -0.956,0.695 0.365,-1.123 -0.955,-0.695 h 1.181 z m 2.061,3.15 0.365,1.123 h 1.181 l -0.955,0.694 0.365,1.123 -0.956,-0.694 -0.955,0.694 0.365,-1.123 -0.956,-0.694 h 1.181 z m 2.061,3.149 0.365,1.123 h 1.182 l -0.956,0.694 0.365,1.124 -0.956,-0.695 -0.955,0.695 0.365,-1.124 -0.955,-0.694 h 1.181 z m 2.062,3.149 0.365,1.123 h 1.181 l -0.955,0.694 0.364,1.123 -0.955,-0.694 -0.955,0.694 0.364,-1.123 -0.955,-0.694 h 1.181 z m 2.053,3.148 0.365,1.124 h 1.182 l -0.956,0.694 0.365,1.123 -0.956,-0.694 -0.955,0.694 0.365,-1.123 -0.956,-0.694 h 1.181 z"
     id="path2" />
  <path
     fill="#FFCD00"
     d="M 28,26 V 0 H 11 Z"
     id="path3" />
  <metadata
     id="metadata1">
    <rdf:RDF>
      <cc:Work
         rdf:about="">
        <cc:license
           rdf:resource="http://creativecommons.org/licenses/by-nc/4.0/" />
        <dc:title>Flag of Bosnia and Herzegovina</dc:title>
        <dc:date>04.09.2024</dc:date>
        <dc:contributor>
          <cc:Agent>
            <dc:title>Henshingly</dc:title>
          </cc:Agent>
        </dc:contributor>
      </cc:Work>
      <cc:License
         rdf:about="http://creativecommons.org/licenses/by-nc/4.0/">
        <cc:permits
           rdf:resource="http://creativecommons.org/ns#Reproduction" />
        <cc:permits
           rdf:resource="http://creativecommons.org/ns#Distribution" />
        <cc:requires
           rdf:resource="http://creativecommons.org/ns#Notice" />
        <cc:requires
           rdf:resource="http://creativecommons.org/ns#Attribution" />
        <cc:prohibits
           rdf:resource="http://creativecommons.org/ns#CommercialUse" />
        <cc:permits
           rdf:resource="http://creativecommons.org/ns#DerivativeWorks" />
      </cc:License>
    </rdf:RDF>
  </metadata>
</svg>
