<?xml version="1.0" encoding="UTF-8" standalone="no"?>
<svg
   width="22.153847"
   height="16"
   viewBox="0 0 0.9969231 0.72000001"
   aria-hidden="true"
   role="img"
   version="1.1"
   id="svg3"
   sodipodi:docname="Bosanski.selected.svg"
   inkscape:version="1.4.2 (ebf0e94, 2025-05-08)"
   xmlns:inkscape="http://www.inkscape.org/namespaces/inkscape"
   xmlns:sodipodi="http://sodipodi.sourceforge.net/DTD/sodipodi-0.dtd"
   xmlns="http://www.w3.org/2000/svg"
   xmlns:svg="http://www.w3.org/2000/svg"
   xmlns:rdf="http://www.w3.org/1999/02/22-rdf-syntax-ns#"
   xmlns:cc="http://creativecommons.org/ns#"
   xmlns:dc="http://purl.org/dc/elements/1.1/">
  <title
     id="title1">Flag of Bosnia and Herzegovina</title>
  <defs
     id="defs3" />
  <sodipodi:namedview
     id="namedview3"
     pagecolor="#EEEFFF"
     bordercolor="#000000"
     borderopacity="0.25"
     inkscape:showpageshadow="2"
     inkscape:pageopacity="0.0"
     inkscape:pagecheckerboard="0"
     inkscape:deskcolor="#d1d1d1"
     showgrid="false"
     inkscape:zoom="0.62047228"
     inkscape:cx="395.66635"
     inkscape:cy="389.21964"
     inkscape:window-width="3840"
     inkscape:window-height="2054"
     inkscape:window-x="-11"
     inkscape:window-y="-11"
     inkscape:window-maximized="1"
     inkscape:current-layer="svg3" />
  <path
     fill="#001489"
     d="M 0.88615385,0 H 0.25413231 L 0.23571692,0.01340308 0.24582462,0.04450154 0.21935077,0.02525538 0.19287692,0.04450154 0.20298462,0.01340308 0.18456923,0 h -0.0738 A 0.11076923,0.11076923 0 0 0 0,0.11076923 V 0.60923077 A 0.11076923,0.11076923 0 0 0 0.11076923,0.72 H 0.657 L 0.659908,0.711028 0.6334618,0.6917818 H 0.6661664 L 0.6762741,0.6606833 0.6863818,0.6917818 H 0.7190864 L 0.69264,0.7110277 0.6955477,0.72 H 0.88615385 A 0.11076923,0.11076923 0 0 0 0.99692308,0.60923077 V 0.11076923 A 0.11076923,0.11076923 0 0 0 0.88615385,0 Z"
     id="path1"
     style="opacity:0.4;stroke-width:0.0276923" />
  <path
     fill="#eeefff"
     d="M 0.19287692,0.04450154 0.21935077,0.02525538 0.24579692,0.04450154 0.23571692,0.01340308 0.25413231,0 h -0.0695631 l 0.0184154,0.01340308 z m 0.52620924,0.64728 h -0.0327046 l -0.0101077,-0.0310708 -0.0101077,0.0310708 H 0.63346154 L 0.6599077,0.7110277 0.657,0.72 H 0.6955477 L 0.6926127,0.711028 Z m -0.44219077,-0.64152 0.01008,0.03109846 h 0.0327323 l -0.0264738,0.01924615 0.0101077,0.0310985 -0.0264462,-0.0192462 -0.0264739,0.0192462 0.0101077,-0.0310985 L 0.23408308,0.08136 H 0.26676 Z m 0.0572954,0.08723077 0.0101077,0.0310708 h 0.0327323 l -0.0264738,0.0192461 0.0101077,0.0310985 -0.0264738,-0.0192185 -0.0264462,0.0192185 0.0101077,-0.0310985 -0.0264739,-0.0192461 h 0.0327046 z m 0.05688,0.0871754 0.0101077,0.0310985 h 0.0327046 l -0.0264738,0.0192461 0.0101077,0.0310985 -0.0264462,-0.0192461 -0.0264738,0.0192461 0.0101077,-0.0310985 -0.0264462,-0.0192461 h 0.0327046 z m 0.0570738,0.0872308 0.0101077,0.0310985 h 0.0327046 l -0.0264462,0.0192185 0.0101077,0.0310985 -0.0264738,-0.0192185 -0.0264462,0.0192185 0.0101077,-0.0310985 -0.0264739,-0.0192185 h 0.0327046 z m 0.0570738,0.0872031 0.0101077,0.0310985 h 0.0327323 l -0.0264738,0.0192185 0.0101077,0.0311262 -0.0264738,-0.0192462 -0.0264462,0.0192462 L 0.48888,0.44941846 0.46243385,0.4302 h 0.0327046 z m 0.0571015,0.0872031 0.0101077,0.0310985 h 0.0327046 l -0.026446,0.0192183 0.01008,0.0310985 L 0.56232,0.54850154 0.53587385,0.56772 0.54595385,0.5366215 0.51950775,0.517403 h 0.0327046 z M 0.61917231,0.57348 0.62928,0.60460616 H 0.6620123 L 0.6355385,0.62382466 0.6456462,0.65492316 0.6191723,0.63570466 0.5927262,0.65492316 0.6028339,0.62382466 0.57636,0.60460616 h 0.0327046 z"
     id="path2"
     style="opacity:0.4;stroke-width:0.0276923" />
  <path
     fill="#ffcd00"
     d="M 0.77538462,0.72 V 0 H 0.30461539 Z"
     id="path3"
     style="opacity:0.4;stroke-width:0.0276923" />
  <metadata
     id="metadata1">
    <rdf:RDF>
      <cc:Work
         rdf:about="">
        <dc:title>Flag of Bosnia and Herzegovina</dc:title>
        <dc:date>04.09.2024</dc:date>
        <dc:contributor>
          <cc:Agent>
            <dc:title>Henshingly</dc:title>
          </cc:Agent>
        </dc:contributor>
      </cc:Work>
    </rdf:RDF>
  </metadata>
</svg>
