<?xml version="1.0" encoding="UTF-8" standalone="no"?>
<svg
   width="800"
   height="577.77905"
   viewBox="0 0 36 26.000057"
   aria-hidden="true"
   role="img"
   version="1.1"
   id="svg3"
   sodipodi:docname="Cestina.selected.svg"
   inkscape:version="1.3 (0e150ed6c4, 2023-07-21)"
   xmlns:inkscape="http://www.inkscape.org/namespaces/inkscape"
   xmlns:sodipodi="http://sodipodi.sourceforge.net/DTD/sodipodi-0.dtd"
   xmlns="http://www.w3.org/2000/svg"
   xmlns:svg="http://www.w3.org/2000/svg"
   xmlns:rdf="http://www.w3.org/1999/02/22-rdf-syntax-ns#"
   xmlns:cc="http://creativecommons.org/ns#"
   xmlns:dc="http://purl.org/dc/elements/1.1/">
  <title
     id="title1">Flag of the Czech Republic</title>
  <defs
     id="defs3" />
  <sodipodi:namedview
     id="namedview3"
     pagecolor="#EEEFFF"
     bordercolor="#000000"
     borderopacity="0.25"
     inkscape:showpageshadow="2"
     inkscape:pageopacity="0.0"
     inkscape:pagecheckerboard="0"
     inkscape:deskcolor="#d1d1d1"
     showgrid="false"
     inkscape:zoom="1.31"
     inkscape:cx="400.38168"
     inkscape:cy="288.54962"
     inkscape:window-width="2160"
     inkscape:window-height="1330"
     inkscape:window-x="-12"
     inkscape:window-y="-12"
     inkscape:window-maximized="1"
     inkscape:current-layer="svg3" />
  <path
     fill="#D7141A"
     d="m 1.3830001,24.973 a 3.795,3.795 0 0 0 2.617,1.027 H 32 c 2.209,0 4,-1.791 4,-4.5 V 13 H 17.5 Z"
     id="path1"
     style="opacity:0.4" />
  <path
     fill="#EEEFFF"
     d="M 32,1.4030161e-7 H 4.0000001 A 3.98,3.98 0 0 0 1.3540001,1.0060001 L 17.5,13 H 36 V 4.0000001 A 4,4 0 0 0 32,1.4030161e-7 Z"
     id="path2"
     style="opacity:0.4" />
  <path
     fill="#11457E"
     d="M 1.3830001,24.973 17.5,13 1.3540001,1.0060001 A 3.985,3.985 0 0 0 1.2482048e-7,4.0000001 V 21.5 c 0,1.48 0.53699999517952,2.683 1.38299997517952,3.473 z"
     id="path3"
     style="opacity:0.4" />
  <metadata
     id="metadata1">
    <rdf:RDF>
      <cc:Work
         rdf:about="">
        <dc:title>Flag of the Czech Republic</dc:title>
        <dc:date>04.09.2024</dc:date>
        <dc:contributor>
          <cc:Agent>
            <dc:title>Henshingly</dc:title>
          </cc:Agent>
        </dc:contributor>
      </cc:Work>
    </rdf:RDF>
  </metadata>
</svg>
