<?xml version="1.0" encoding="UTF-8" standalone="no"?>
<svg
   viewBox="0 0 62 70"
   width="62"
   height="70"
   version="1.1"
   id="svg6"
   sodipodi:docname="delete.svg"
   inkscape:export-filename="delete.svg"
   inkscape:export-xdpi="17.828571"
   inkscape:export-ydpi="17.828571"
   inkscape:version="1.3 (0e150ed6c4, 2023-07-21)"
   xmlns:inkscape="http://www.inkscape.org/namespaces/inkscape"
   xmlns:sodipodi="http://sodipodi.sourceforge.net/DTD/sodipodi-0.dtd"
   xmlns="http://www.w3.org/2000/svg"
   xmlns:svg="http://www.w3.org/2000/svg"
   xmlns:rdf="http://www.w3.org/1999/02/22-rdf-syntax-ns#"
   xmlns:cc="http://creativecommons.org/ns#"
   xmlns:dc="http://purl.org/dc/elements/1.1/">
  <title
     id="title11">Trash</title>
  <defs
     id="defs6" />
  <sodipodi:namedview
     id="namedview6"
     pagecolor="#ffffff"
     bordercolor="#000000"
     borderopacity="0.25"
     inkscape:showpageshadow="2"
     inkscape:pageopacity="0.0"
     inkscape:pagecheckerboard="0"
     inkscape:deskcolor="#d1d1d1"
     inkscape:zoom="8.97"
     inkscape:cx="19.119287"
     inkscape:cy="22.630992"
     inkscape:window-width="2160"
     inkscape:window-height="1316"
     inkscape:window-x="-12"
     inkscape:window-y="-12"
     inkscape:window-maximized="1"
     inkscape:current-layer="svg6" />
  <path
     fill="#f37e98"
     d="M 6,17 9.645,64.383 C 9.845,66.988 12.017,69 14.63,69 h 32.74 c 2.613,0 4.785,-2.012 4.985,-4.617 L 56,17"
     id="path1"
     style="fill:#fffcfc;fill-opacity:1" />
  <path
     fill="#f15b6c"
     d="m 46,25 v 35 c 0,1.65 -1.35,3 -3,3 -1.65,0 -3,-1.35 -3,-3 V 25 c 0,-1.65 1.35,-3 3,-3 1.65,0 3,1.35 3,3 z m -12,0 v 35 c 0,1.65 -1.35,3 -3,3 -1.65,0 -3,-1.35 -3,-3 V 25 c 0,-1.65 1.35,-3 3,-3 1.65,0 3,1.35 3,3 z m -12,0 v 35 c 0,1.65 -1.35,3 -3,3 -1.65,0 -3,-1.35 -3,-3 V 25 c 0,-1.65 1.35,-3 3,-3 1.65,0 3,1.35 3,3 z M 58,11 H 54 L 52.165,7.942 C 51.442,6.737 50.14,6 48.735,6 H 13.265 C 11.86,6 10.558,6.737 9.835,7.942 L 8,11 H 4 c -1.657,0 -3,1.343 -3,3 0,1.657 1.343,3 3,3 h 54 c 1.657,0 3,-1.343 3,-3 0,-1.657 -1.343,-3 -3,-3 z"
     id="path2" />
  <path
     fill="#1f212b"
     d="M 47.37,70 H 14.63 C 11.514,70 8.886,67.566 8.648,64.46 L 5.003,17.077 6.997,16.923 10.642,64.307 C 10.801,66.378 12.553,68 14.63,68 h 32.74 c 2.077,0 3.829,-1.622 3.988,-3.692 l 3.645,-47.385 1.994,0.154 -3.645,47.384 C 53.113,67.566 50.485,70 47.37,70 Z M 37,7 C 36.448,7 36,6.553 36,6 V 3 C 36,2.448 35.551,2 35,2 H 27 C 26.449,2 26,2.448 26,3 V 6 C 26,6.553 25.552,7 25,7 24.448,7 24,6.553 24,6 V 3 c 0,-1.654 1.346,-3 3,-3 h 8 c 1.654,0 3,1.346 3,3 v 3 c 0,0.553 -0.448,1 -1,1 z"
     id="path3" />
  <path
     fill="#1f212b"
     d="M 58,18 H 4 C 1.794,18 0,16.206 0,14 0,11.794 1.794,10 4,10 H 7.434 L 8.977,7.428 C 9.875,5.931 11.518,5 13.265,5 h 35.471 c 1.747,0 3.389,0.931 4.287,2.428 L 54.566,10 H 58 c 2.206,0 4,1.794 4,4 0,2.206 -1.794,4 -4,4 z M 4,12 c -1.103,0 -2,0.897 -2,2 0,1.103 0.897,2 2,2 h 54 c 1.103,0 2,-0.897 2,-2 0,-1.103 -0.897,-2 -2,-2 h -4 c -0.351,0 -0.677,-0.185 -0.857,-0.485 L 51.308,8.457 C 50.769,7.559 49.783,7 48.735,7 H 13.265 C 12.217,7 11.232,7.559 10.693,8.457 L 8.858,11.515 C 8.677,11.815 8.351,12 8,12 Z"
     id="path4" />
  <path
     fill="#1f212b"
     d="M 42.5,12 H 6.5 C 6.224,12 6,11.776 6,11.5 6,11.224 6.224,11 6.5,11 h 36 c 0.276,0 0.5,0.224 0.5,0.5 0,0.276 -0.224,0.5 -0.5,0.5 z m 12,0 h -5 C 49.224,12 49,11.776 49,11.5 49,11.224 49.224,11 49.5,11 h 5 c 0.276,0 0.5,0.224 0.5,0.5 0,0.276 -0.224,0.5 -0.5,0.5 z m -7,0 h -2 C 45.224,12 45,11.776 45,11.5 45,11.224 45.224,11 45.5,11 h 2 c 0.276,0 0.5,0.224 0.5,0.5 0,0.276 -0.224,0.5 -0.5,0.5 z M 31,63 c -1.654,0 -3,-1.346 -3,-3 V 25 c 0,-1.654 1.346,-3 3,-3 1.654,0 3,1.346 3,3 V 50.5 C 34,50.776 33.776,51 33.5,51 33.224,51 33,50.776 33,50.5 V 25 c 0,-1.103 -0.897,-2 -2,-2 -1.103,0 -2,0.897 -2,2 v 35 c 0,1.103 0.897,2 2,2 1.103,0 2,-0.897 2,-2 v -3.5 c 0,-0.276 0.224,-0.5 0.5,-0.5 0.276,0 0.5,0.224 0.5,0.5 V 60 c 0,1.654 -1.346,3 -3,3 z m 12,0 c -1.654,0 -3,-1.346 -3,-3 V 34.5 c 0,-0.276 0.224,-0.5 0.5,-0.5 0.276,0 0.5,0.224 0.5,0.5 V 60 c 0,1.103 0.897,2 2,2 1.103,0 2,-0.897 2,-2 V 25 c 0,-1.103 -0.897,-2 -2,-2 -1.103,0 -2,0.897 -2,2 v 1.5 C 41,26.776 40.776,27 40.5,27 40.224,27 40,26.776 40,26.5 V 25 c 0,-1.654 1.346,-3 3,-3 1.654,0 3,1.346 3,3 v 35 c 0,1.654 -1.346,3 -3,3 z"
     id="path5" />
  <path
     fill="#1f212b"
     d="M 40.5,32 C 40.224,32 40,31.776 40,31.5 v -2 c 0,-0.276 0.224,-0.5 0.5,-0.5 0.276,0 0.5,0.224 0.5,0.5 v 2 C 41,31.776 40.776,32 40.5,32 Z M 19,63 c -1.654,0 -3,-1.346 -3,-3 V 25 c 0,-1.654 1.346,-3 3,-3 1.654,0 3,1.346 3,3 v 35 c 0,1.654 -1.346,3 -3,3 z m 0,-40 c -1.103,0 -2,0.897 -2,2 v 35 c 0,1.103 0.897,2 2,2 1.103,0 2,-0.897 2,-2 V 25 c 0,-1.103 -0.897,-2 -2,-2 z"
     id="path6" />
  <path
     style="fill:#fffcfc;fill-opacity:1;stroke:#050005;stroke-width:0.111483;stroke-opacity:0"
     d="M 3.2329989,15.766712 C 2.1757106,15.216827 1.7791523,14.147043 2.2735329,13.17839 2.5342837,12.667494 2.7875341,12.432881 3.3171104,12.21161 3.6811235,12.059515 5.9310623,12.040134 23.223288,12.040134 h 19.495778 l 0.208676,-0.230584 c 0.190708,-0.210731 0.194229,-0.256324 0.04088,-0.529543 L 42.800824,10.981048 26.053661,10.925307 9.306497,10.869565 10.096919,9.5656494 C 10.531651,8.8484958 11.104329,8.0617203 11.369538,7.8172596 12.292011,6.966953 10.89645,7.0234114 30.992196,7.0234114 c 19.682868,0 18.581307,-0.037065 19.511514,0.6565153 0.294167,0.2193366 0.725801,0.7994413 1.308414,1.7584765 l 0.869429,1.4311618 -1.703095,0.05574 c -0.936702,0.03066 -1.765805,0.09633 -1.842449,0.145932 -0.177463,0.114856 -0.181098,0.659592 -0.0056,0.835116 0.09957,0.09957 1.289808,0.134405 4.654403,0.136227 4.156586,0.0023 4.556534,0.01902 4.966556,0.208259 0.765843,0.35346 1.170568,0.958896 1.170568,1.751079 0,0.757067 -0.551369,1.553251 -1.261438,1.821534 -0.21865,0.08261 -8.620978,0.118367 -27.703456,0.117888 C 6.3585957,15.940725 3.533365,15.92293 3.2329989,15.766712 Z M 47.922838,11.80437 c 0.181308,-0.258854 0.133291,-0.524639 -0.133637,-0.73971 -0.213988,-0.172416 -2.27723,-0.191492 -2.590287,-0.02395 -0.244394,0.130796 -0.293838,0.653662 -0.08186,0.865643 0.08819,0.08819 0.560963,0.133779 1.387213,0.133779 1.149734,0 1.267095,-0.01951 1.418568,-0.235764 z"
     id="path7" />
  <path
     style="fill:#fffcfc;fill-opacity:1;stroke:#050005;stroke-width:0.111483;stroke-opacity:0"
     d="m 26.031215,3.896359 c 0,-1.1768932 0.156849,-1.5829816 0.682145,-1.7661007 0.233591,-0.08143 1.699633,-0.1235693 4.299053,-0.1235693 4.308617,0 4.610789,0.038477 4.829991,0.6150201 0.06092,0.1602461 0.110773,0.7395957 0.110773,1.2874436 v 0.996087 h -4.960981 -4.960981 z"
     id="path8" />
  <path
     style="fill:#666666;fill-opacity:1;stroke:#050005;stroke-width:0.111483;stroke-opacity:0"
     d="m 18.41195,61.821778 c -0.495573,-0.176696 -0.907862,-0.531703 -1.170591,-1.007954 -0.169124,-0.306571 -0.187031,-1.802634 -0.214835,-17.948718 -0.0204,-11.844735 0.0075,-17.791943 0.0852,-18.156704 0.147128,-0.690779 0.462961,-1.132385 1.009165,-1.411037 0.906364,-0.462392 2.036995,-0.136052 2.527179,0.729433 l 0.251274,0.443659 0.0018,17.98017 c 0.0015,14.936665 -0.02391,18.041773 -0.150231,18.344112 -0.193876,0.46401 -0.741366,0.92567 -1.272802,1.073264 -0.513468,0.142605 -0.53979,0.141464 -1.066193,-0.04622 z"
     id="path9" />
  <path
     style="fill:#666666;fill-opacity:1;stroke:#050005;stroke-width:0.111483;stroke-opacity:0"
     d="m 30.434783,61.853187 c -0.566226,-0.209175 -0.918404,-0.51846 -1.161001,-1.019597 l -0.232533,-0.480351 0.0024,-17.829908 c 0.0023,-17.096286 0.01092,-17.848257 0.208259,-18.275839 0.585659,-1.268953 2.058743,-1.57374 3.063892,-0.633934 0.660549,0.617608 0.627296,-0.127506 0.627296,14.056057 0,12.01185 0.01461,13.053708 0.185472,13.224569 0.125092,0.125091 0.288414,0.164885 0.501673,0.122233 l 0.316199,-0.06324 v 2.542008 2.542007 l -0.352613,-0.05175 c -0.59907,-0.08792 -0.650418,0.09832 -0.65318,2.369202 -0.0021,1.736339 -0.03157,2.077407 -0.214213,2.47968 -0.372405,0.820248 -1.487434,1.315979 -2.291699,1.018866 z"
     id="path10" />
  <path
     style="fill:#666666;fill-opacity:1;stroke:#050005;stroke-width:0.111483;stroke-opacity:0"
     d="m 42.380735,61.825416 c -0.520857,-0.190132 -0.894596,-0.526775 -1.125847,-1.014102 -0.153944,-0.324412 -0.173506,-1.835017 -0.173506,-13.398828 0,-10.703211 -0.02665,-13.069635 -0.149059,-13.237043 -0.107751,-0.147359 -0.246778,-0.18951 -0.501672,-0.152099 l -0.352613,0.05175 v -1.076211 -1.076211 l 0.352613,0.05175 c 0.544154,0.07986 0.650731,-0.163169 0.650731,-1.483903 0,-1.320734 -0.106577,-1.563768 -0.650731,-1.483903 l -0.352613,0.05175 V 28.016472 26.97457 l 0.269046,0.06753 c 0.18844,0.0473 0.33874,-0.0022 0.501672,-0.165101 0.203584,-0.203584 0.232626,-0.366433 0.232626,-1.304403 0,-1.29067 0.221268,-1.797196 0.979077,-2.241302 0.912636,-0.53484 2.149816,-0.172492 2.6721,0.78261 0.182987,0.334629 0.196774,1.449025 0.224195,18.121134 0.01977,12.020536 -0.0082,17.903584 -0.08654,18.194485 -0.296679,1.101782 -1.479026,1.764748 -2.489475,1.395896 z"
     id="path11" />
  <metadata
     id="metadata11">
    <rdf:RDF>
      <cc:Work
         rdf:about="">
        <dc:title>Trash</dc:title>
      </cc:Work>
    </rdf:RDF>
  </metadata>
</svg>
