<?xml version="1.0" encoding="UTF-8" standalone="no"?>
<svg
   height="16"
   width="24.420927"
   version="1.1"
   id="Layer_1"
   viewBox="0 0 15.629393 10.24"
   xml:space="preserve"
   sodipodi:docname="English.selected.svg"
   inkscape:version="1.4.2 (ebf0e94, 2025-05-08)"
   xmlns:inkscape="http://www.inkscape.org/namespaces/inkscape"
   xmlns:sodipodi="http://sodipodi.sourceforge.net/DTD/sodipodi-0.dtd"
   xmlns="http://www.w3.org/2000/svg"
   xmlns:svg="http://www.w3.org/2000/svg"
   xmlns:rdf="http://www.w3.org/1999/02/22-rdf-syntax-ns#"
   xmlns:cc="http://creativecommons.org/ns#"
   xmlns:dc="http://purl.org/dc/elements/1.1/"><title
   id="title1">Flag of United Kingdom</title><defs
   id="defs6" /><sodipodi:namedview
   id="namedview6"
   pagecolor="#EEEFFF"
   bordercolor="#000000"
   borderopacity="0.25"
   inkscape:showpageshadow="2"
   inkscape:pageopacity="0.0"
   inkscape:pagecheckerboard="0"
   inkscape:deskcolor="#d1d1d1"
   inkscape:zoom="1.0431268"
   inkscape:cx="483.64207"
   inkscape:cy="304.37335"
   inkscape:window-width="3840"
   inkscape:window-height="2054"
   inkscape:window-x="-11"
   inkscape:window-y="-11"
   inkscape:window-maximized="1"
   inkscape:current-layer="Layer_1"
   showgrid="false" />
<path
   style="opacity:0.4;fill:#012169;stroke-width:0.0305262"
   d="M 14.458868,3.0526159e-5 H 1.1705256 C 0.52404257,3.0526159e-5 0,0.5240731 0,1.1705561 V 9.0694744 C 0,9.7159269 0.52404257,10.24 1.1705256,10.24 H 14.458868 c 0.646452,0 1.170525,-0.5240426 1.170525,-1.1705256 V 1.1705561 c 0,-0.646483 -0.524042,-1.170525573841 -1.170525,-1.170525573841 z"
   id="path1" />
<path
   style="opacity:0.4;fill:#eeefff;stroke-width:0.0305262"
   d="M 15.613184,0.97705077 C 15.520934,0.42272625 15.039384,0 14.458868,0 h -0.30456 L 9.1620603,3.2707863 V 3.0526159e-5 H 6.4673331 V 3.2708169 L 1.475085,3.0526159e-5 H 1.1705256 c -0.580516,0 -1.06206616,0.422695723841 -1.15431621,0.977050763841 L 4.2830948,3.7726669 H 0 V 6.4673941 H 4.2830948 L 0.01620939,9.2629187 C 0.10845944,9.8172432 0.5900096,10.239969 1.1705256,10.239969 H 1.475085 L 6.4673331,6.9691831 V 10.239969 H 9.1620603 V 6.9691831 l 4.9922477,3.2707859 h 0.30456 c 0.580516,0 1.062066,-0.4226952 1.154316,-0.9770503 L 11.346299,6.4673331 h 4.283094 V 3.7726059 h -4.283094 z"
   id="path2" />
<g
   id="g6"
   transform="matrix(0.03052616,0,0,0.03052616,0,-2.6946967)"
   style="opacity:0.4">
	<polygon
   style="fill:#c8102e"
   points="282.483,423.724 282.483,282.483 512,282.483 512,229.517 282.483,229.517 282.483,88.276 229.517,88.276 229.517,229.517 0,229.517 0,282.483 229.517,282.483 229.517,423.724 "
   id="polygon2" />
	<path
   style="fill:#c8102e"
   d="M 24.793,421.252 211.376,300.138 H 178.948 L 9.224,410.31 c 4.153,4.847 9.49,8.645 15.569,10.942 z"
   id="path3" />
	<path
   style="fill:#c8102e"
   d="M 346.388,300.138 H 313.96 l 180.716,117.305 c 5.057,-3.321 9.277,-7.807 12.287,-13.075 z"
   id="path4" />
	<path
   style="fill:#c8102e"
   d="m 4.049,109.475 157.73,102.387 h 32.428 L 15.475,95.842 c -4.799,3.572 -8.726,8.242 -11.426,13.633 z"
   id="path5" />
	<path
   style="fill:#c8102e"
   d="M 332.566,211.862 502.601,101.487 c -4.199,-4.831 -9.578,-8.607 -15.699,-10.86 L 300.138,211.862 Z"
   id="path6" />
</g>
<metadata
   id="metadata1"><rdf:RDF><cc:Work
       rdf:about=""><dc:title>Flag of United Kingdom</dc:title><dc:date>04.09.2024</dc:date><dc:contributor><cc:Agent><dc:title>Henshingly</dc:title></cc:Agent></dc:contributor></cc:Work></rdf:RDF></metadata></svg>
