<?xml version="1.0" encoding="UTF-8" standalone="no"?>
<svg
   height="524.14062"
   width="800"
   version="1.1"
   id="Layer_1"
   viewBox="0 0 512 335.45"
   xml:space="preserve"
   sodipodi:docname="English.svg"
   inkscape:version="1.3 (0e150ed6c4, 2023-07-21)"
   xmlns:inkscape="http://www.inkscape.org/namespaces/inkscape"
   xmlns:sodipodi="http://sodipodi.sourceforge.net/DTD/sodipodi-0.dtd"
   xmlns="http://www.w3.org/2000/svg"
   xmlns:svg="http://www.w3.org/2000/svg"
   xmlns:rdf="http://www.w3.org/1999/02/22-rdf-syntax-ns#"
   xmlns:cc="http://creativecommons.org/ns#"
   xmlns:dc="http://purl.org/dc/elements/1.1/"><title
   id="title1">Flag of United Kingdom</title><defs
   id="defs6" /><sodipodi:namedview
   id="namedview6"
   pagecolor="#EEEFFF"
   bordercolor="#000000"
   borderopacity="0.25"
   inkscape:showpageshadow="2"
   inkscape:pageopacity="0.0"
   inkscape:pagecheckerboard="0"
   inkscape:deskcolor="#d1d1d1"
   inkscape:zoom="1.3157956"
   inkscape:cx="400.89812"
   inkscape:cy="262.19877"
   inkscape:window-width="2160"
   inkscape:window-height="1330"
   inkscape:window-x="-12"
   inkscape:window-y="-12"
   inkscape:window-maximized="1"
   inkscape:current-layer="Layer_1"
   showgrid="false" />&#10;<path
   style="fill:#012169"
   d="M 473.655,10e-4 H 38.345 C 17.167,10e-4 0,17.168 0,38.346 v 258.759 c 0,21.177 17.167,38.345 38.345,38.345 h 435.31 C 494.832,335.45 512,318.283 512,297.105 V 38.346 C 512,17.168 494.833,10e-4 473.655,10e-4 Z"
   id="path1" />&#10;<path
   style="fill:#EEEFFF"
   d="M 511.469,32.007 C 508.447,13.848 492.672,0 473.655,0 h -9.977 L 300.138,107.147 V 10e-4 H 211.862 V 107.148 L 48.322,10e-4 H 38.345 C 19.328,10e-4 3.553,13.848 0.531,32.008 l 139.778,91.58 H 0 v 88.276 H 140.309 L 0.531,303.442 c 3.022,18.159 18.797,32.007 37.814,32.007 h 9.977 l 163.54,-107.147 v 107.147 h 88.276 V 228.302 l 163.54,107.147 h 9.977 c 19.017,0 34.792,-13.847 37.814,-32.007 L 371.691,211.862 H 512 V 123.586 H 371.691 Z"
   id="path2" />&#10;<g
   id="g6"
   transform="translate(0,-88.275)">&#10;	<polygon
   style="fill:#C8102E"
   points="229.517,229.517 0,229.517 0,282.483 229.517,282.483 229.517,423.724 282.483,423.724 282.483,282.483 512,282.483 512,229.517 282.483,229.517 282.483,88.276 229.517,88.276 "
   id="polygon2" />&#10;	<path
   style="fill:#C8102E"
   d="M 24.793,421.252 211.376,300.138 H 178.948 L 9.224,410.31 c 4.153,4.847 9.49,8.645 15.569,10.942 z"
   id="path3" />&#10;	<path
   style="fill:#C8102E"
   d="M 346.388,300.138 H 313.96 l 180.716,117.305 c 5.057,-3.321 9.277,-7.807 12.287,-13.075 z"
   id="path4" />&#10;	<path
   style="fill:#C8102E"
   d="m 4.049,109.475 157.73,102.387 h 32.428 L 15.475,95.842 c -4.799,3.572 -8.726,8.242 -11.426,13.633 z"
   id="path5" />&#10;	<path
   style="fill:#C8102E"
   d="M 332.566,211.862 502.601,101.487 c -4.199,-4.831 -9.578,-8.607 -15.699,-10.86 L 300.138,211.862 Z"
   id="path6" />&#10;</g>&#10;<metadata
   id="metadata1"><rdf:RDF><cc:Work
       rdf:about=""><dc:title>Flag of United Kingdom</dc:title><dc:date>04.09.2024</dc:date><dc:contributor><cc:Agent><dc:title>Henshingly</dc:title></cc:Agent></dc:contributor></cc:Work></rdf:RDF></metadata></svg>
