<?xml version="1.0" encoding="UTF-8" standalone="no"?>
<svg
   height="524.13751"
   width="800"
   version="1.1"
   id="Layer_1"
   viewBox="0 0 512 335.44801"
   xml:space="preserve"
   sodipodi:docname="Norsk.svg"
   inkscape:version="1.3 (0e150ed6c4, 2023-07-21)"
   xmlns:inkscape="http://www.inkscape.org/namespaces/inkscape"
   xmlns:sodipodi="http://sodipodi.sourceforge.net/DTD/sodipodi-0.dtd"
   xmlns="http://www.w3.org/2000/svg"
   xmlns:svg="http://www.w3.org/2000/svg"
   xmlns:rdf="http://www.w3.org/1999/02/22-rdf-syntax-ns#"
   xmlns:cc="http://creativecommons.org/ns#"
   xmlns:dc="http://purl.org/dc/elements/1.1/"><title
   id="title1">Flag of Norway</title><defs
   id="defs2" /><sodipodi:namedview
   id="namedview2"
   pagecolor="#EEEFFF"
   bordercolor="#000000"
   borderopacity="0.25"
   inkscape:showpageshadow="2"
   inkscape:pageopacity="0.0"
   inkscape:pagecheckerboard="0"
   inkscape:deskcolor="#d1d1d1"
   showgrid="false"
   inkscape:zoom="1.31"
   inkscape:cx="400.38168"
   inkscape:cy="261.0687"
   inkscape:window-width="2160"
   inkscape:window-height="1330"
   inkscape:window-x="-12"
   inkscape:window-y="-12"
   inkscape:window-maximized="1"
   inkscape:current-layer="Layer_1" />&#10;<path
   style="fill:#ba0c2f"
   d="M 473.655,335.448 H 38.345 C 17.167,335.448 0,318.281 0,297.103 V 38.345 C 0,17.168 17.167,0 38.345,0 h 435.31 C 494.832,0 512,17.167 512,38.345 v 258.759 c 0,21.177 -17.167,38.344 -38.345,38.344 z"
   id="path1" />&#10;<polygon
   style="fill:#EEEFFF"
   points="229.517,88.276 141.241,88.276 141.241,211.862 0,211.862 0,300.138 141.241,300.138 141.241,423.724 229.517,423.724 229.517,300.138 512,300.138 512,211.862 229.517,211.862 "
   id="polygon1"
   transform="translate(0,-88.276)" />&#10;<polygon
   style="fill:#00205b"
   points="211.862,88.276 158.897,88.276 158.897,229.517 0,229.517 0,282.483 158.897,282.483 158.897,423.724 211.862,423.724 211.862,282.483 512,282.483 512,229.517 211.862,229.517 "
   id="polygon2"
   transform="translate(0,-88.276)" />&#10;<metadata
   id="metadata1"><rdf:RDF><cc:Work
       rdf:about=""><dc:title>Flag of Norway</dc:title><dc:date>04.09.2024</dc:date><dc:contributor><cc:Agent><dc:title>Henshingly</dc:title></cc:Agent></dc:contributor></cc:Work></rdf:RDF></metadata></svg>
