<?xml version="1.0" encoding="UTF-8" standalone="no"?>
<svg
   height="16"
   width="24.421074"
   version="1.1"
   id="Layer_1"
   viewBox="0 0 15.629487 10.24"
   xml:space="preserve"
   sodipodi:docname="Norsk.svg"
   inkscape:version="1.4.2 (ebf0e94, 2025-05-08)"
   xmlns:inkscape="http://www.inkscape.org/namespaces/inkscape"
   xmlns:sodipodi="http://sodipodi.sourceforge.net/DTD/sodipodi-0.dtd"
   xmlns="http://www.w3.org/2000/svg"
   xmlns:svg="http://www.w3.org/2000/svg"
   xmlns:rdf="http://www.w3.org/1999/02/22-rdf-syntax-ns#"
   xmlns:cc="http://creativecommons.org/ns#"
   xmlns:dc="http://purl.org/dc/elements/1.1/"><title
   id="title1">Flag of Norway</title><defs
   id="defs2" /><sodipodi:namedview
   id="namedview2"
   pagecolor="#EEEFFF"
   bordercolor="#000000"
   borderopacity="0.25"
   inkscape:showpageshadow="2"
   inkscape:pageopacity="0.0"
   inkscape:pagecheckerboard="0"
   inkscape:deskcolor="#d1d1d1"
   showgrid="false"
   inkscape:zoom="1.31"
   inkscape:cx="400.38168"
   inkscape:cy="260.68702"
   inkscape:window-width="3840"
   inkscape:window-height="2054"
   inkscape:window-x="-11"
   inkscape:window-y="-11"
   inkscape:window-maximized="1"
   inkscape:current-layer="Layer_1" />
<path
   style="fill:#ba0c2f;stroke-width:0.0305263"
   d="M 14.458954,10.24 H 1.1705325 C 0.5240457,10.24 0,9.7159544 0,9.0694676 V 1.1705326 C 0,0.52407633 0.5240457,1.1016e-7 1.1705325,1.1016e-7 H 14.458954 c 0.646456,0 1.170533,0.52404569984 1.170533,1.17053248984 v 7.8989655 c 0,0.6464563 -0.524046,1.1705019 -1.170533,1.1705019 z"
   id="path1" />
<polygon
   style="fill:#eeefff"
   points="0,211.862 0,300.138 141.241,300.138 141.241,423.724 229.517,423.724 229.517,300.138 512,300.138 512,211.862 229.517,211.862 229.517,88.276 141.241,88.276 141.241,211.862 "
   id="polygon1"
   transform="matrix(0.03052634,0,0,0.03052634,0,-2.6947432)" />
<polygon
   style="fill:#00205b"
   points="0,229.517 0,282.483 158.897,282.483 158.897,423.724 211.862,423.724 211.862,282.483 512,282.483 512,229.517 211.862,229.517 211.862,88.276 158.897,88.276 158.897,229.517 "
   id="polygon2"
   transform="matrix(0.03052634,0,0,0.03052634,0,-2.6947432)" />
<metadata
   id="metadata1"><rdf:RDF><cc:Work
       rdf:about=""><dc:title>Flag of Norway</dc:title><dc:date>04.09.2024</dc:date><dc:contributor><cc:Agent><dc:title>Henshingly</dc:title></cc:Agent></dc:contributor></cc:Work></rdf:RDF></metadata></svg>
