<?xml version="1.0" encoding="UTF-8" standalone="no"?>
<!-- Created with Inkscape (http://www.inkscape.org/) -->

<svg
   width="13.393208mm"
   height="13.393208mm"
   viewBox="0 0 13.393208 13.393208"
   version="1.1"
   id="svg1"
   inkscape:version="1.4 (86a8ad7, 2024-10-11)"
   sodipodi:docname="right.svg"
   xmlns:inkscape="http://www.inkscape.org/namespaces/inkscape"
   xmlns:sodipodi="http://sodipodi.sourceforge.net/DTD/sodipodi-0.dtd"
   xmlns="http://www.w3.org/2000/svg"
   xmlns:svg="http://www.w3.org/2000/svg"
   xmlns:rdf="http://www.w3.org/1999/02/22-rdf-syntax-ns#"
   xmlns:cc="http://creativecommons.org/ns#"
   xmlns:dc="http://purl.org/dc/elements/1.1/">
  <title
     id="title1">Right Image</title>
  <sodipodi:namedview
     id="namedview1"
     pagecolor="#ffffff"
     bordercolor="#000000"
     borderopacity="0.25"
     inkscape:showpageshadow="2"
     inkscape:pageopacity="0.0"
     inkscape:pagecheckerboard="0"
     inkscape:deskcolor="#d1d1d1"
     inkscape:document-units="mm"
     inkscape:zoom="3.2337963"
     inkscape:cx="97.717967"
     inkscape:cy="224.34932"
     inkscape:window-width="3840"
     inkscape:window-height="2054"
     inkscape:window-x="-11"
     inkscape:window-y="-11"
     inkscape:window-maximized="1"
     inkscape:current-layer="layer1" />
  <defs
     id="defs1" />
  <g
     inkscape:label="Ebene 1"
     inkscape:groupmode="layer"
     id="layer1"
     transform="translate(-40.48125,-67.997917)">
    <path
       class="st1"
       d="m 47.177854,67.997917 c 3.698875,0 6.696604,2.997729 6.696604,6.696604 0,3.698875 -2.997729,6.696604 -6.696604,6.696604 -3.698875,0 -6.696604,-2.997729 -6.696604,-6.696604 0,-3.698875 2.997729,-6.696604 6.696604,-6.696604 z m -2.963333,6.873875 c 0.08996,-0.521229 0.685271,-0.809625 1.153583,-0.529167 0.04233,0.02646 0.08202,0.05556 0.121708,0.08996 l 0.0026,0.0026 c 0.211667,0.201084 0.447146,0.41275 0.679979,0.619125 l 0.201084,0.179917 2.38125,-2.497667 c 0.140229,-0.14552 0.246062,-0.24077 0.457729,-0.288395 0.73025,-0.161396 1.243542,0.73025 0.724958,1.277937 l -2.963333,3.1115 c -0.280458,0.298979 -0.777875,0.325438 -1.0795,0.03969 C 45.7226,76.718542 45.534746,76.5545 45.346891,76.390458 45.018808,76.104708 44.685433,75.813667 44.412912,75.527917 44.246225,75.366521 44.177433,75.096646 44.214475,74.87175 Z"
       id="path2"
       style="clip-rule:evenodd;fill:#6bbe66;fill-rule:evenodd;stroke-width:0.264583" />
  </g>
  <metadata
     id="metadata1">
    <rdf:RDF>
      <cc:Work
         rdf:about="">
        <dc:title>Right Image</dc:title>
        <dc:publisher>
          <cc:Agent>
            <dc:title>Henshingly</dc:title>
          </cc:Agent>
        </dc:publisher>
      </cc:Work>
    </rdf:RDF>
  </metadata>
</svg>
