<?xml version="1.0" encoding="UTF-8" standalone="no"?>
<!-- Created with Inkscape (http://www.inkscape.org/) -->

<svg
   width="5.291667mm"
   height="5.291667mm"
   viewBox="0 0 5.2916672 5.2916672"
   version="1.1"
   id="svg1"
   inkscape:version="1.4.2 (ebf0e94, 2025-05-08)"
   sodipodi:docname="right.svg"
   xmlns:inkscape="http://www.inkscape.org/namespaces/inkscape"
   xmlns:sodipodi="http://sodipodi.sourceforge.net/DTD/sodipodi-0.dtd"
   xmlns="http://www.w3.org/2000/svg"
   xmlns:svg="http://www.w3.org/2000/svg"
   xmlns:rdf="http://www.w3.org/1999/02/22-rdf-syntax-ns#"
   xmlns:cc="http://creativecommons.org/ns#"
   xmlns:dc="http://purl.org/dc/elements/1.1/">
  <title
     id="title1">Right Image</title>
  <sodipodi:namedview
     id="namedview1"
     pagecolor="#ffffff"
     bordercolor="#000000"
     borderopacity="0.25"
     inkscape:showpageshadow="2"
     inkscape:pageopacity="0.0"
     inkscape:pagecheckerboard="0"
     inkscape:deskcolor="#d1d1d1"
     inkscape:document-units="mm"
     inkscape:zoom="3.2337963"
     inkscape:cx="97.717967"
     inkscape:cy="224.34932"
     inkscape:window-width="3840"
     inkscape:window-height="2054"
     inkscape:window-x="-11"
     inkscape:window-y="-11"
     inkscape:window-maximized="1"
     inkscape:current-layer="layer1"
     showgrid="false" />
  <defs
     id="defs1" />
  <g
     inkscape:label="Ebene 1"
     inkscape:groupmode="layer"
     id="layer1"
     transform="translate(-40.48125,-67.997917)">
    <path
       class="st1"
       d="m 43.127083,67.997917 c 1.461429,0 2.645834,1.184405 2.645834,2.645833 0,1.461429 -1.184405,2.645834 -2.645834,2.645834 -1.461428,0 -2.645833,-1.184405 -2.645833,-2.645834 0,-1.461428 1.184405,-2.645833 2.645833,-2.645833 z m -1.170815,2.715873 c 0.03554,-0.205938 0.270751,-0.319883 0.455782,-0.209074 0.01672,0.01045 0.03241,0.02195 0.04809,0.03554 l 10e-4,0.001 c 0.08363,0.07945 0.176667,0.163078 0.26866,0.244617 l 0.07945,0.07108 0.940834,-0.98683 c 0.0554,-0.0575 0.09722,-0.09513 0.180849,-0.113945 0.288523,-0.06377 0.491324,0.288522 0.286432,0.504914 l -1.170816,1.229356 c -0.110809,0.118127 -0.307338,0.128581 -0.426511,0.01568 -0.06795,-0.06272 -0.14217,-0.127535 -0.216392,-0.192348 -0.129626,-0.1129 -0.261342,-0.227891 -0.369016,-0.340791 -0.06586,-0.06377 -0.09304,-0.170395 -0.0784,-0.259252 z"
       id="path2"
       style="clip-rule:evenodd;fill:#6bbe66;fill-rule:evenodd;stroke-width:0.104537" />
  </g>
  <metadata
     id="metadata1">
    <rdf:RDF>
      <cc:Work
         rdf:about="">
        <dc:title>Right Image</dc:title>
        <dc:publisher>
          <cc:Agent>
            <dc:title>Henshingly</dc:title>
          </cc:Agent>
        </dc:publisher>
      </cc:Work>
    </rdf:RDF>
  </metadata>
</svg>
