<?xml version="1.0" encoding="UTF-8" standalone="no"?>
<svg
   version="1.1"
   id="Layer_1"
   viewBox="0 0 24.421074 16"
   xml:space="preserve"
   sodipodi:docname="Slovenskega.selected.svg"
   width="24.421074"
   height="16"
   inkscape:version="1.4.2 (ebf0e94, 2025-05-08)"
   xmlns:inkscape="http://www.inkscape.org/namespaces/inkscape"
   xmlns:sodipodi="http://sodipodi.sourceforge.net/DTD/sodipodi-0.dtd"
   xmlns="http://www.w3.org/2000/svg"
   xmlns:svg="http://www.w3.org/2000/svg"
   xmlns:rdf="http://www.w3.org/1999/02/22-rdf-syntax-ns#"
   xmlns:cc="http://creativecommons.org/ns#"
   xmlns:dc="http://purl.org/dc/elements/1.1/"><title
   id="title1">Flag of Slovakia</title><defs
   id="defs5" /><sodipodi:namedview
   id="namedview5"
   pagecolor="#EEEFFF"
   bordercolor="#000000"
   borderopacity="0.25"
   inkscape:showpageshadow="2"
   inkscape:pageopacity="0.0"
   inkscape:pagecheckerboard="0"
   inkscape:deskcolor="#d1d1d1"
   showgrid="false"
   inkscape:zoom="2.0956674"
   inkscape:cx="256.00436"
   inkscape:cy="167.727"
   inkscape:window-width="3840"
   inkscape:window-height="2054"
   inkscape:window-x="-11"
   inkscape:window-y="-11"
   inkscape:window-maximized="1"
   inkscape:current-layer="Layer_1" />
<path
   style="opacity:0.4;fill:#f5f5f5;stroke-width:0.0476974"
   d="M 22.592116,0 H 1.8289571 C 0.8188214,0 0,0.8188214 0,1.8289571 V 5.3333333 H 24.421073 V 1.8289571 C 24.421073,0.8188214 23.602251,0 22.592116,0 Z"
   id="path1" />
<path
   style="opacity:0.4;fill:#ff4b55;stroke-width:0.0476974"
   d="M 0,14.171043 C 0,15.181131 0.8188214,16 1.8289571,16 H 22.592116 c 1.010088,0 1.828957,-0.818821 1.828957,-1.828957 V 10.666667 H 0 Z"
   id="path2" />
<rect
   y="5.3332381"
   style="opacity:0.4;fill:#41479b;stroke-width:0.0476974"
   width="24.421072"
   height="5.3330469"
   id="rect2"
   x="0" />
<path
   style="opacity:0.4;fill:#ee1c25;stroke-width:0.0476974"
   d="M 6.2113949,11.972479 C 6.0867616,11.900885 3.1579023,10.197372 3.1579023,7.5789273 V 4 h 6.3158045 v 3.5789273 c 0,2.6184447 -2.9288593,4.3219577 -3.0534926,4.3935517 l -0.1044097,0.05957 z"
   id="path3" />
<polygon
   style="opacity:0.4;fill:#eeefff"
   points="160.158,207.641 143.511,210.381 139.35,210.381 139.35,206.187 142.091,185.379 132.414,188.198 122.737,185.379 125.478,206.187 125.478,210.381 121.315,210.381 104.67,207.641 106.924,217.318 104.67,226.995 121.315,224.254 125.478,224.254 125.478,236.672 118.542,236.672 97.734,233.931 100.552,243.608 97.734,253.284 118.542,250.543 125.478,250.543 125.478,282.483 139.35,282.483 139.35,250.543 146.285,250.543 167.094,253.284 164.276,243.608 167.094,233.931 146.285,236.672 139.35,236.672 139.35,224.254 143.511,224.254 160.158,226.995 157.903,217.318 "
   id="polygon3"
   transform="matrix(0.04769741,0,0,0.04769741,0,-4.2105364)" />
<path
   style="opacity:0.4;fill:#0b4ea2;stroke-width:0.0476974"
   d="m 6.3158045,8.6315614 c -0.4349049,0 -0.8078987,0.263862 -0.9683527,0.6400515 -0.028332,-0.00234 -0.055424,-0.00849 -0.084281,-0.00849 -0.5604922,0 -1.014333,0.4392932 -1.0464811,0.9916771 0.8525912,1.049533 1.9204884,1.674942 1.9947056,1.717631 l 0.1044096,0.05962 0.1044097,-0.05962 C 6.4944316,11.929791 7.562329,11.304381 8.4149201,10.2548 8.3828201,9.7024161 7.9289313,9.2631229 7.368439,9.2631229 c -0.028857,0 -0.055997,0.00615 -0.084281,0.00849 C 7.1237032,8.8954234 6.7507095,8.6315614 6.3158045,8.6315614 Z"
   id="path4" />
<path
   style="opacity:0.4;fill:#eeefff;stroke-width:0.0476974"
   d="m 9.2631704,4.2105364 c 0,0 0,2.5263409 0,3.3684386 0,2.526341 -2.9473659,4.210536 -2.9473659,4.210536 0,0 -2.9473659,-1.684195 -2.9473659,-4.210536 0,-0.8420977 0,-3.3684386 0,-3.3684386 H 9.2631704 M 9.6841955,3.7894636 H 9.2631227 3.3684386 2.9473659 V 4.2105364 7.578975 c 0,2.739167 3.0305502,4.502349 3.159524,4.576089 l 0.2089146,0.119387 0.2089147,-0.119387 c 0.1290215,-0.07374 3.159524,-1.83697 3.159524,-4.576089 V 4.2105364 3.7894636 Z"
   id="path5" />
<metadata
   id="metadata1"><rdf:RDF><cc:Work
       rdf:about=""><dc:title>Flag of Slovakia</dc:title><dc:date>04.09.2024</dc:date><dc:contributor><cc:Agent><dc:title>Henshingly</dc:title></cc:Agent></dc:contributor></cc:Work></rdf:RDF></metadata></svg>
