<?xml version="1.0" encoding="UTF-8" standalone="no"?>
<!-- Created with Inkscape (http://www.inkscape.org/) -->

<svg
   width="20mm"
   height="20mm"
   viewBox="0 0 20 20"
   version="1.1"
   id="svg1"
   inkscape:version="1.4.2 (ebf0e94, 2025-05-08)"
   sodipodi:docname="spielbericht.svg"
   xmlns:inkscape="http://www.inkscape.org/namespaces/inkscape"
   xmlns:sodipodi="http://sodipodi.sourceforge.net/DTD/sodipodi-0.dtd"
   xmlns="http://www.w3.org/2000/svg"
   xmlns:svg="http://www.w3.org/2000/svg">
  <sodipodi:namedview
     id="namedview1"
     pagecolor="#ffffff"
     bordercolor="#000000"
     borderopacity="0.25"
     inkscape:showpageshadow="2"
     inkscape:pageopacity="0.0"
     inkscape:pagecheckerboard="0"
     inkscape:deskcolor="#d1d1d1"
     inkscape:document-units="mm"
     inkscape:zoom="9.1465571"
     inkscape:cx="53.134747"
     inkscape:cy="51.112128"
     inkscape:window-width="3840"
     inkscape:window-height="2054"
     inkscape:window-x="-11"
     inkscape:window-y="-11"
     inkscape:window-maximized="1"
     inkscape:current-layer="layer1"
     showgrid="false" />
  <defs
     id="defs1" />
  <g
     inkscape:label="Ebene 1"
     inkscape:groupmode="layer"
     id="layer1"
     transform="translate(-51.064582,-122.76666)">
    <circle
       cx="61.064583"
       cy="132.76666"
       r="9.7959185"
       fill="#ffffff"
       stroke="#000000"
       stroke-width="0.408164"
       id="circle1" />
    <path
       d="m 66.977078,126.85414 v 3e-5 c 1.276069,1.27602 1.276015,3.36408 5.4e-5,4.64011 l -2.729807,2.72984 c -1.610773,1.6107 -4.349085,1.1381 -5.226265,-0.87077 0.963022,-0.83698 1.432592,-0.56626 2.350132,-0.17812 0.540116,0.22839 1.173722,0.10612 1.612192,-0.33241 l 2.66664,-2.66653 c 0.576665,-0.57674 0.576718,-1.52046 0,-2.09722 -0.576638,-0.57661 -1.520877,-0.57618 -2.097113,0 l -1.912681,1.91274 c -0.632829,-0.30422 -1.344872,-0.39439 -2.024714,-0.27022 0.139786,-0.23691 0.308995,-0.45517 0.503596,-0.64957 l 2.217864,-2.21785 c 1.276071,-1.27598 3.364059,-1.27609 4.640102,-3e-5 z m -11.825014,11.825 2.7e-5,3e-5 c 1.276069,1.27601 3.364058,1.27601 4.640073,0 l 2.2992,-2.29921 c 0.201617,-0.20139 0.375959,-0.42834 0.518571,-0.67507 -0.748029,0.18653 -1.550047,0.10774 -2.252242,-0.23626 l -1.88354,1.88348 c -0.576182,0.57616 -1.520366,0.57672 -2.097058,0 -0.576719,-0.57669 -0.576746,-1.52036 0,-2.09706 l 2.666639,-2.66666 c 0.546423,-0.54643 1.636935,-0.70937 2.461145,0.0452 0.79775,-0.0841 1.107578,-0.23646 1.603123,-0.71092 -1.057211,-1.86431 -3.692562,-2.14708 -5.226131,-0.6135 l -2.729807,2.72981 c -1.276015,1.27604 -1.276015,3.36402 0,4.64007 z"
       id="path1"
       sodipodi:nodetypes="cccccccccccccccssscccccccccscs"
       style="stroke-width:0.026834" />
  </g>
</svg>
