<?xml version="1.0" encoding="UTF-8" standalone="no"?>
<!-- Uploaded to: SVG Repo, www.svgrepo.com, Generator: SVG Repo Mixer Tools -->

<svg
   width="22.153847"
   height="16"
   viewBox="0 0 0.9969231 0.72000001"
   aria-hidden="true"
   role="img"
   class="iconify iconify--twemoji"
   preserveAspectRatio="xMidYMid"
   version="1.1"
   id="svg4"
   sodipodi:docname="Suomalainen.svg"
   inkscape:version="1.4.2 (ebf0e94, 2025-05-08)"
   xmlns:inkscape="http://www.inkscape.org/namespaces/inkscape"
   xmlns:sodipodi="http://sodipodi.sourceforge.net/DTD/sodipodi-0.dtd"
   xmlns="http://www.w3.org/2000/svg"
   xmlns:svg="http://www.w3.org/2000/svg">
  <defs
     id="defs4" />
  <sodipodi:namedview
     id="namedview4"
     pagecolor="#ffffff"
     bordercolor="#000000"
     borderopacity="0.25"
     inkscape:showpageshadow="2"
     inkscape:pageopacity="0.0"
     inkscape:pagecheckerboard="0"
     inkscape:deskcolor="#d1d1d1"
     showgrid="false"
     inkscape:zoom="1.12375"
     inkscape:cx="400"
     inkscape:cy="288.76529"
     inkscape:window-width="3840"
     inkscape:window-height="2054"
     inkscape:window-x="-11"
     inkscape:window-y="-11"
     inkscape:window-maximized="1"
     inkscape:current-layer="svg4" />
  <path
     fill="#eeffff"
     d="M 0.88615385,0 H 0.49846154 V 0.27692308 H 0.99692308 V 0.11076923 A 0.11076923,0.11076923 0 0 0 0.88615385,0 Z"
     id="path1"
     style="stroke-width:0.0276923" />
  <path
     fill="#eeffff"
     d="M 0.30461539,0 H 0.11076923 A 0.11076923,0.11076923 0 0 0 0,0.11076923 v 0.16615385 h 0.30461539 z"
     id="path2"
     style="stroke-width:0.0276923" />
  <path
     fill="#eeffff"
     d="M 0.88615385,0.72 H 0.49846154 V 0.44307693 H 0.99692308 V 0.60923077 A 0.11076923,0.11076923 0 0 1 0.88615385,0.72 Z m -0.58153846,0 H 0.11076923 A 0.11076923,0.11076923 0 0 1 0,0.60923077 V 0.44307693 h 0.30461539 z"
     id="path3"
     style="stroke-width:0.0276923" />
  <path
     fill="#002f6c"
     d="M 0.49846154,0 H 0.30461539 V 0.27692308 H 0 V 0.44307693 H 0.30461539 V 0.72 H 0.49846154 V 0.44307693 H 0.99692308 V 0.27692308 H 0.49846154 Z"
     id="path4"
     style="stroke-width:0.0276923" />
</svg>
