<?xml version="1.0" encoding="UTF-8" standalone="no"?>
<svg
   width="22.153847"
   height="16"
   viewBox="0 0 0.9969231 0.72000001"
   aria-hidden="true"
   role="img"
   class="iconify iconify--twemoji"
   preserveAspectRatio="xMidYMid"
   version="1.1"
   id="svg2"
   sodipodi:docname="Svenska.svg"
   inkscape:version="1.4.2 (ebf0e94, 2025-05-08)"
   xmlns:inkscape="http://www.inkscape.org/namespaces/inkscape"
   xmlns:sodipodi="http://sodipodi.sourceforge.net/DTD/sodipodi-0.dtd"
   xmlns="http://www.w3.org/2000/svg"
   xmlns:svg="http://www.w3.org/2000/svg">
  <defs
     id="defs2" />
  <sodipodi:namedview
     id="namedview2"
     pagecolor="#ffffff"
     bordercolor="#000000"
     borderopacity="0.25"
     inkscape:showpageshadow="2"
     inkscape:pageopacity="0.0"
     inkscape:pagecheckerboard="0"
     inkscape:deskcolor="#d1d1d1"
     showgrid="false"
     inkscape:zoom="1.12375"
     inkscape:cx="400"
     inkscape:cy="288.76529"
     inkscape:window-width="3840"
     inkscape:window-height="2054"
     inkscape:window-x="-11"
     inkscape:window-y="-11"
     inkscape:window-maximized="1"
     inkscape:current-layer="svg2" />
  <path
     fill="#005293"
     d="m 0.42923077,0.72 h 0.45692308 c 0.0611723,0 0.11076923,-0.0495969 0.11076923,-0.12461538 V 0.42923077 H 0.42923077 Z M 0.88615385,0 H 0.42923077 v 0.29076923 h 0.56769231 v -0.18 A 0.11076923,0.11076923 0 0 0 0.88615385,0 Z M 0.29076923,0 h -0.18 A 0.11076923,0.11076923 0 0 0 0,0.11068615 V 0.29076923 H 0.29076923 Z M 0,0.42923077 V 0.59549539 C 5.5384616e-5,0.67045847 0.04962462,0.72 0.11076923,0.72 h 0.18 V 0.42923077 Z"
     id="path1"
     style="stroke-width:0.0276923" />
  <path
     fill="#fecb00"
     d="M 0.42923077,0 H 0.29076923 V 0.29076923 H 0 V 0.42923077 H 0.29076923 V 0.72 H 0.42923077 V 0.42923077 H 0.99692308 V 0.29076923 H 0.42923077 Z"
     id="path2"
     style="stroke-width:0.0276923" />
</svg>
