<?xml version="1.0" encoding="UTF-8" standalone="no"?>
<svg
   width="800"
   height="577.77777"
   viewBox="0 0 36 26"
   aria-hidden="true"
   role="img"
   class="iconify iconify--twemoji"
   preserveAspectRatio="xMidYMid"
   version="1.1"
   id="svg2"
   sodipodi:docname="Svenska.svg"
   inkscape:version="1.3 (0e150ed6c4, 2023-07-21)"
   xmlns:inkscape="http://www.inkscape.org/namespaces/inkscape"
   xmlns:sodipodi="http://sodipodi.sourceforge.net/DTD/sodipodi-0.dtd"
   xmlns="http://www.w3.org/2000/svg"
   xmlns:svg="http://www.w3.org/2000/svg">
  <defs
     id="defs2" />
  <sodipodi:namedview
     id="namedview2"
     pagecolor="#ffffff"
     bordercolor="#000000"
     borderopacity="0.25"
     inkscape:showpageshadow="2"
     inkscape:pageopacity="0.0"
     inkscape:pagecheckerboard="0"
     inkscape:deskcolor="#d1d1d1"
     showgrid="false"
     inkscape:zoom="1.12375"
     inkscape:cx="400"
     inkscape:cy="288.76529"
     inkscape:window-width="2160"
     inkscape:window-height="1330"
     inkscape:window-x="-12"
     inkscape:window-y="-12"
     inkscape:window-maximized="1"
     inkscape:current-layer="svg2" />
  <path
     fill="#005293"
     d="M 15.5,26 H 32 c 2.209,0 4,-1.791 4,-4.5 v -6 H 15.5 Z M 32,0 H 15.5 V 10.5 H 36 V 4 A 4,4 0 0 0 32,0 Z M 10.5,0 H 4 A 4,4 0 0 0 0,3.997 V 10.5 H 10.5 Z M 0,15.5 v 6.004 C 0.002,24.211 1.792,26 4,26 h 6.5 V 15.5 Z"
     id="path1"
     style="opacity:0.4" />
  <path
     fill="#fecb00"
     d="m 15.5,0 h -5 V 10.5 H 0 v 5 H 10.5 V 26 h 5 V 15.5 H 36 v -5 H 15.5 Z"
     id="path2"
     style="opacity:0.4" />
</svg>
