<?xml version="1.0" encoding="UTF-8" standalone="no"?>
<svg
   width="22.153847"
   height="16"
   viewBox="0 0 0.9969231 0.72000001"
   aria-hidden="true"
   role="img"
   version="1.1"
   id="svg7"
   sodipodi:docname="Türkce.svg"
   inkscape:version="1.4.2 (ebf0e94, 2025-05-08)"
   xmlns:inkscape="http://www.inkscape.org/namespaces/inkscape"
   xmlns:sodipodi="http://sodipodi.sourceforge.net/DTD/sodipodi-0.dtd"
   xmlns="http://www.w3.org/2000/svg"
   xmlns:svg="http://www.w3.org/2000/svg"
   xmlns:rdf="http://www.w3.org/1999/02/22-rdf-syntax-ns#"
   xmlns:cc="http://creativecommons.org/ns#"
   xmlns:dc="http://purl.org/dc/elements/1.1/">
  <title
     id="title1">Flag of Turkey</title>
  <defs
     id="defs7" />
  <sodipodi:namedview
     id="namedview7"
     pagecolor="#EEEFFF"
     bordercolor="#000000"
     borderopacity="0.25"
     inkscape:showpageshadow="2"
     inkscape:pageopacity="0.0"
     inkscape:pagecheckerboard="0"
     inkscape:deskcolor="#d1d1d1"
     inkscape:zoom="1.3290731"
     inkscape:cx="399.90276"
     inkscape:cy="288.54696"
     inkscape:window-width="3840"
     inkscape:window-height="2054"
     inkscape:window-x="-11"
     inkscape:window-y="-11"
     inkscape:window-maximized="1"
     inkscape:current-layer="svg7"
     showgrid="false" />
  <path
     fill="#e30a17"
     d="M 0.99692308,0.60923077 A 0.11076923,0.11076923 0 0 1 0.88615385,0.72 H 0.11076923 A 0.11076923,0.11076923 0 0 1 0,0.60923077 V 0.11076923 A 0.11076923,0.11076923 0 0 1 0.11076923,0 h 0.77538462 a 0.11076923,0.11076923 0 0 1 0.11076923,0.11076923 z"
     id="path1"
     style="stroke-width:0.0276923" />
  <metadata
     id="metadata1">
    <rdf:RDF>
      <cc:Work
         rdf:about="">
        <dc:title>Flag of Turkey</dc:title>
        <dc:date>04.09.2024</dc:date>
        <dc:contributor>
          <cc:Agent>
            <dc:title>Henshingly</dc:title>
          </cc:Agent>
        </dc:contributor>
      </cc:Work>
    </rdf:RDF>
  </metadata>
  <path
     fill="#ffffff"
     d="M 0.47364057,0.36013841 0.62830648,0.30989024 0.5327118,0.4414497 V 0.27882712 l 0.0955947,0.13155945 z m 0.0105443,0.0914339 a 0.17098971,0.17098971 0 1 1 0,-0.18286781 0.13679177,0.13679177 0 1 0 0,0.18286781 z"
     id="path2"
     style="stroke-width:1.13993e-05" />
</svg>
