<?xml version="1.0" encoding="UTF-8" standalone="no"?>
<svg
   width="800"
   height="577.77777"
   viewBox="0 0 36 26"
   aria-hidden="true"
   role="img"
   version="1.1"
   id="svg7"
   sodipodi:docname="Türkce.selected.svg"
   inkscape:version="1.3 (0e150ed6c4, 2023-07-21)"
   xmlns:inkscape="http://www.inkscape.org/namespaces/inkscape"
   xmlns:sodipodi="http://sodipodi.sourceforge.net/DTD/sodipodi-0.dtd"
   xmlns="http://www.w3.org/2000/svg"
   xmlns:svg="http://www.w3.org/2000/svg"
   xmlns:rdf="http://www.w3.org/1999/02/22-rdf-syntax-ns#"
   xmlns:cc="http://creativecommons.org/ns#"
   xmlns:dc="http://purl.org/dc/elements/1.1/">
  <title
     id="title1">Flag of Turkey</title>
  <defs
     id="defs7" />
  <sodipodi:namedview
     id="namedview7"
     pagecolor="#EEEFFF"
     bordercolor="#000000"
     borderopacity="0.25"
     inkscape:showpageshadow="2"
     inkscape:pageopacity="0.0"
     inkscape:pagecheckerboard="0"
     inkscape:deskcolor="#d1d1d1"
     inkscape:zoom="1.3290731"
     inkscape:cx="400.27896"
     inkscape:cy="288.92316"
     inkscape:window-width="2160"
     inkscape:window-height="1330"
     inkscape:window-x="-12"
     inkscape:window-y="-12"
     inkscape:window-maximized="1"
     inkscape:current-layer="svg7"
     showgrid="false" />
  <path
     fill="#e30a17"
     d="m 36,22 a 4,4 0 0 1 -4,4 H 4 A 4,4 0 0 1 0,22 V 4 A 4,4 0 0 1 4,0 h 28 a 4,4 0 0 1 4,4 z"
     id="path1"
     style="opacity:0.4" />
  <metadata
     id="metadata1">
    <rdf:RDF>
      <cc:Work
         rdf:about="">
        <dc:title>Flag of Turkey</dc:title>
        <dc:date>04.09.2024</dc:date>
        <dc:contributor>
          <cc:Agent>
            <dc:title>Henshingly</dc:title>
          </cc:Agent>
        </dc:contributor>
      </cc:Work>
    </rdf:RDF>
  </metadata>
  <path
     fill="#ffffff"
     d="m 17.103687,13.004998 5.585158,-1.814517 -3.45203,4.750758 v -5.872482 l 3.45203,4.750758 z m 0.380768,3.30178 a 6.1746285,6.1746285 0 1 1 0,-6.6035596 4.9397027,4.9397027 0 1 0 0,6.6035596 z"
     id="path2"
     style="opacity:0.4;stroke-width:0.000411642" />
</svg>
