<?xml version="1.0" encoding="UTF-8" standalone="no"?>
<!-- Created with Inkscape (http://www.inkscape.org/) -->

<svg
   width="13.758425mm"
   height="13.139507mm"
   viewBox="0 0 13.758425 13.139508"
   version="1.1"
   id="svg1"
   sodipodi:docname="h1.svg"
   inkscape:version="1.3 (0e150ed6c4, 2023-07-21)"
   xmlns:inkscape="http://www.inkscape.org/namespaces/inkscape"
   xmlns:sodipodi="http://sodipodi.sourceforge.net/DTD/sodipodi-0.dtd"
   xmlns:xlink="http://www.w3.org/1999/xlink"
   xmlns="http://www.w3.org/2000/svg"
   xmlns:svg="http://www.w3.org/2000/svg">
  <sodipodi:namedview
     id="namedview1"
     pagecolor="#ffffff"
     bordercolor="#000000"
     borderopacity="0.25"
     inkscape:showpageshadow="2"
     inkscape:pageopacity="0.0"
     inkscape:pagecheckerboard="0"
     inkscape:deskcolor="#d1d1d1"
     inkscape:document-units="mm"
     inkscape:zoom="7.4988609"
     inkscape:cx="41.139581"
     inkscape:cy="24.603737"
     inkscape:window-width="2160"
     inkscape:window-height="1330"
     inkscape:window-x="-12"
     inkscape:window-y="-12"
     inkscape:window-maximized="1"
     inkscape:current-layer="layer1" />
  <defs
     id="defs1">
    <radialGradient
       inkscape:collect="always"
       xlink:href="#linearGradient1834"
       id="radialGradient1836"
       cx="94.338982"
       cy="12.499572"
       fx="94.338982"
       fy="12.499572"
       r="98.499756"
       gradientTransform="matrix(0.07488727,0,0,0.00709616,87.879374,142.55452)"
       gradientUnits="userSpaceOnUse" />
    <linearGradient
       inkscape:collect="always"
       id="linearGradient1834">
      <stop
         style="stop-color:#003399;stop-opacity:0;"
         offset="0"
         id="stop1832" />
      <stop
         style="stop-color:#003399;stop-opacity:1;"
         offset="1"
         id="stop1830" />
    </linearGradient>
    <radialGradient
       inkscape:collect="always"
       xlink:href="#linearGradient1834"
       id="radialGradient2194"
       cx="89.962685"
       cy="102.88849"
       fx="89.962685"
       fy="102.88849"
       r="98.5"
       gradientTransform="matrix(0.06834355,3.637928e-4,-3.7713956e-5,0.00709539,88.513213,148.54553)"
       gradientUnits="userSpaceOnUse" />
  </defs>
  <g
     inkscape:label="Ebene 1"
     inkscape:groupmode="layer"
     id="layer1"
     transform="translate(-88.355555,-141.92645)">
    <path
       fill="#0099cc"
       d="m 89.752349,144.30282 c 0,0.38587 -0.312741,0.69891 -0.698396,0.69891 -0.385654,0 -0.698398,-0.31297 -0.698398,-0.69891 0,-0.38601 0.312673,-0.6989 0.698398,-0.6989 0.385655,0 0.698396,0.31297 0.698396,0.6989"
       id="path175"
       style="stroke-width:0.0698649" />
    <rect
       x="90.415825"
       y="143.60393"
       fill="#0099cc"
       width="6.4950943"
       height="1.3978091"
       id="rect177"
       style="stroke-width:0.0698649" />
    <path
       fill="#0099cc"
       d="m 91.218985,144.30282 c 0,0.38594 -0.312743,0.69891 -0.698397,0.69891 -0.385656,0 -0.698398,-0.31297 -0.698398,-0.69891 0,-0.38593 0.312742,-0.6989 0.698398,-0.6989 0.385654,0 0.698397,0.31304 0.698397,0.6989"
       id="path179"
       style="stroke-width:0.0698649" />
    <path
       id="path181"
       d="m 102.11398,142.62552 c 0,0.38586 -0.31274,0.69884 -0.6984,0.69884 -0.38572,0 -0.69838,-0.31304 -0.69838,-0.69884 0,-0.386 0.31274,-0.69898 0.69838,-0.69898 0.38566,0 0.6984,0.31298 0.6984,0.69898 m -12.362049,-0.0267 c 0.01474,0.38565 -0.285853,0.71036 -0.671229,0.72505 -0.385516,0.0147 -0.709851,-0.28606 -0.724588,-0.67165 -0.01481,-0.38594 0.285785,-0.71051 0.671229,-0.72525 0.385446,-0.0147 0.709852,0.28606 0.724588,0.67185 m -0.697978,-0.67235 h 12.361627 v 1.39782 H 89.053953 Z"
       style="fill:url(#radialGradient1836);fill-opacity:1;stroke-width:0.0698649" />
    <path
       fill="#0099cc"
       d="m 100.64734,144.30282 c 0,0.38587 -0.31274,0.69891 -0.698388,0.69891 -0.385724,0 -0.698398,-0.31297 -0.698398,-0.69891 0,-0.38601 0.312674,-0.6989 0.698398,-0.6989 0.385648,0 0.698388,0.31297 0.698388,0.6989"
       id="path183"
       style="stroke-width:0.0698649" />
    <path
       fill="#0099cc"
       d="m 99.180711,144.30282 c 0,0.38587 -0.312738,0.69891 -0.698392,0.69891 -0.385728,0 -0.698399,-0.31297 -0.698399,-0.69891 0,-0.38601 0.312671,-0.6989 0.698399,-0.6989 0.385654,0 0.698392,0.31297 0.698392,0.6989"
       id="path185"
       style="stroke-width:0.0698649" />
    <path
       fill="#0099cc"
       d="m 97.714077,144.30282 c 0,0.38587 -0.31274,0.69891 -0.698395,0.69891 -0.385724,0 -0.698397,-0.31297 -0.698397,-0.69891 0,-0.38601 0.312673,-0.6989 0.698397,-0.6989 0.385655,0 0.698395,0.31297 0.698395,0.6989"
       id="path187"
       style="stroke-width:0.0698649" />
    <path
       fill="#0099cc"
       d="m 102.11398,144.30282 c 0,0.38587 -0.31274,0.69891 -0.6984,0.69891 -0.38572,0 -0.69838,-0.31297 -0.69838,-0.69891 0,-0.38601 0.31266,-0.6989 0.69838,-0.6989 0.38566,0 0.6984,0.31297 0.6984,0.6989"
       id="path191"
       style="stroke-width:0.0698649" />
    <path
       fill="#0099cc"
       d="m 89.752349,145.9802 c 0,0.38586 -0.312741,0.6989 -0.698396,0.6989 -0.385654,0 -0.698398,-0.31298 -0.698398,-0.6989 0,-0.386 0.312673,-0.69892 0.698398,-0.69892 0.385655,0 0.698396,0.31298 0.698396,0.69892"
       id="path193"
       style="stroke-width:0.0698649" />
    <rect
       x="90.415825"
       y="145.2813"
       fill="#0099cc"
       width="6.4950943"
       height="1.3978091"
       id="rect195"
       style="stroke-width:0.0698649" />
    <path
       fill="#0099cc"
       d="m 91.218985,145.9802 c 0,0.38592 -0.312743,0.6989 -0.698397,0.6989 -0.385656,0 -0.698398,-0.31298 -0.698398,-0.6989 0,-0.38594 0.312742,-0.69892 0.698398,-0.69892 0.385654,0 0.698397,0.31305 0.698397,0.69892"
       id="path197"
       style="stroke-width:0.0698649" />
    <path
       fill="#0099cc"
       d="m 100.64734,145.9802 c 0,0.38586 -0.31274,0.6989 -0.698388,0.6989 -0.385724,0 -0.698398,-0.31298 -0.698398,-0.6989 0,-0.386 0.312674,-0.69892 0.698398,-0.69892 0.385648,0 0.698388,0.31298 0.698388,0.69892"
       id="path199"
       style="stroke-width:0.0698649" />
    <path
       fill="#0099cc"
       d="m 99.180711,145.9802 c 0,0.38586 -0.312738,0.6989 -0.698392,0.6989 -0.385728,0 -0.698399,-0.31298 -0.698399,-0.6989 0,-0.386 0.312671,-0.69892 0.698399,-0.69892 0.385654,0 0.698392,0.31298 0.698392,0.69892"
       id="path201"
       style="stroke-width:0.0698649" />
    <path
       fill="#0099cc"
       d="m 97.714077,145.9802 c 0,0.38586 -0.31274,0.6989 -0.698395,0.6989 -0.385724,0 -0.698397,-0.31298 -0.698397,-0.6989 0,-0.386 0.312673,-0.69892 0.698397,-0.69892 0.385655,0 0.698395,0.31298 0.698395,0.69892"
       id="path203"
       style="stroke-width:0.0698649" />
    <path
       fill="#0099cc"
       d="m 102.11398,145.9802 c 0,0.38586 -0.31274,0.6989 -0.6984,0.6989 -0.38572,0 -0.69838,-0.31298 -0.69838,-0.6989 0,-0.386 0.31266,-0.69892 0.69838,-0.69892 0.38566,0 0.6984,0.31298 0.6984,0.69892"
       id="path205"
       style="stroke-width:0.0698649" />
    <path
       fill="#0099cc"
       d="m 89.752349,147.65758 c 0,0.38585 -0.312741,0.69889 -0.698396,0.69889 -0.385654,0 -0.698398,-0.31297 -0.698398,-0.69889 0,-0.38602 0.312673,-0.69892 0.698398,-0.69892 0.385655,0 0.698396,0.31297 0.698396,0.69892"
       id="path207"
       style="stroke-width:0.0698649" />
    <rect
       x="90.415825"
       y="146.95866"
       fill="#0099cc"
       width="6.4950943"
       height="1.3978091"
       id="rect209"
       style="stroke-width:0.0698649" />
    <path
       fill="#0099cc"
       d="m 91.218985,147.65758 c 0,0.38592 -0.312743,0.69889 -0.698397,0.69889 -0.385656,0 -0.698398,-0.31297 -0.698398,-0.69889 0,-0.38595 0.312742,-0.69892 0.698398,-0.69892 0.385654,0 0.698397,0.31305 0.698397,0.69892"
       id="path211"
       style="stroke-width:0.0698649" />
    <path
       fill="#0099cc"
       d="m 100.64734,147.65758 c 0,0.38585 -0.31274,0.69889 -0.698388,0.69889 -0.385724,0 -0.698398,-0.31297 -0.698398,-0.69889 0,-0.38602 0.312674,-0.69892 0.698398,-0.69892 0.385648,0 0.698388,0.31297 0.698388,0.69892"
       id="path213"
       style="stroke-width:0.0698649" />
    <path
       fill="#0099cc"
       d="m 99.180711,147.65758 c 0,0.38585 -0.312738,0.69889 -0.698392,0.69889 -0.385728,0 -0.698399,-0.31297 -0.698399,-0.69889 0,-0.38602 0.312671,-0.69892 0.698399,-0.69892 0.385654,0 0.698392,0.31297 0.698392,0.69892"
       id="path215"
       style="stroke-width:0.0698649" />
    <path
       fill="#0099cc"
       d="m 97.714077,147.65758 c 0,0.38585 -0.31274,0.69889 -0.698395,0.69889 -0.385724,0 -0.698397,-0.31297 -0.698397,-0.69889 0,-0.38602 0.312673,-0.69892 0.698397,-0.69892 0.385655,0 0.698395,0.31297 0.698395,0.69892"
       id="path217"
       style="stroke-width:0.0698649" />
    <path
       fill="#0099cc"
       d="m 102.11398,147.65758 c 0,0.38585 -0.31274,0.69889 -0.6984,0.69889 -0.38572,0 -0.69838,-0.31297 -0.69838,-0.69889 0,-0.38602 0.31266,-0.69892 0.69838,-0.69892 0.38566,0 0.6984,0.31297 0.6984,0.69892"
       id="path219"
       style="stroke-width:0.0698649" />
    <path
       id="path233"
       d="m 102.11398,149.33494 c 0,0.38586 -0.31274,0.6989 -0.6984,0.6989 -0.38572,0 -0.69838,-0.31297 -0.69838,-0.6989 0,-0.38601 0.31266,-0.69891 0.69838,-0.69891 0.38566,0 0.6984,0.31297 0.6984,0.69891 m -4.399903,0 c 0,0.38586 -0.31274,0.6989 -0.698395,0.6989 -0.385724,0 -0.698397,-0.31297 -0.698397,-0.6989 0,-0.38601 0.312673,-0.69891 0.698397,-0.69891 0.385655,0 0.698395,0.31297 0.698395,0.69891 m 1.466634,0 c 0,0.38586 -0.312738,0.6989 -0.698392,0.6989 -0.385728,0 -0.698399,-0.31297 -0.698399,-0.6989 0,-0.38601 0.312671,-0.69891 0.698399,-0.69891 0.385654,0 0.698392,0.31297 0.698392,0.69891 m 1.466629,0 c 0,0.38586 -0.31274,0.6989 -0.698388,0.6989 -0.385724,0 -0.698398,-0.31297 -0.698398,-0.6989 0,-0.38601 0.312674,-0.69891 0.698398,-0.69891 0.385648,0 0.698388,0.31297 0.698388,0.69891 m -9.428355,0 c 0,0.38593 -0.312743,0.6989 -0.698397,0.6989 -0.385656,0 -0.698398,-0.31297 -0.698398,-0.6989 0,-0.38594 0.312742,-0.69891 0.698398,-0.69891 0.385654,0 0.698397,0.31305 0.698397,0.69891 m -0.803157,-0.69891 h 6.495094 v 1.39781 h -6.495094 z m -0.663479,0.69891 c 0,0.38586 -0.312741,0.6989 -0.698396,0.6989 -0.385725,0 -0.698398,-0.31297 -0.698398,-0.6989 0,-0.38601 0.312673,-0.69891 0.698398,-0.69891 0.385655,0 0.698396,0.31297 0.698396,0.69891"
       style="fill:url(#radialGradient2194);fill-opacity:1;stroke-width:0.0698649" />
    <path
       fill="#0099cc"
       d="m 89.752349,151.01232 c 0,0.38587 -0.312741,0.69889 -0.698396,0.69889 -0.385725,0 -0.698398,-0.31302 -0.698398,-0.69889 0,-0.38595 0.312673,-0.69891 0.698398,-0.69891 0.385655,0 0.698396,0.31296 0.698396,0.69891"
       id="path235"
       style="stroke-width:0.0698649" />
    <rect
       x="90.415825"
       y="150.31342"
       fill="#0099cc"
       width="6.4950943"
       height="1.3978091"
       id="rect237"
       style="stroke-width:0.0698649" />
    <path
       fill="#0099cc"
       d="m 91.218985,151.01232 c 0,0.38593 -0.312743,0.69889 -0.698397,0.69889 -0.385656,0 -0.698398,-0.31296 -0.698398,-0.69889 0,-0.38595 0.312742,-0.69891 0.698398,-0.69891 0.385654,0 0.698397,0.31296 0.698397,0.69891"
       id="path239"
       style="stroke-width:0.0698649" />
    <path
       fill="#0099cc"
       d="m 100.64734,151.01232 c 0,0.38587 -0.31274,0.69889 -0.698388,0.69889 -0.385724,0 -0.698398,-0.31302 -0.698398,-0.69889 0,-0.38595 0.312674,-0.69891 0.698398,-0.69891 0.385648,0 0.698388,0.31296 0.698388,0.69891"
       id="path241"
       style="stroke-width:0.0698649" />
    <path
       fill="#0099cc"
       d="m 99.180711,151.01232 c 0,0.38587 -0.312738,0.69889 -0.698392,0.69889 -0.385728,0 -0.698399,-0.31302 -0.698399,-0.69889 0,-0.38595 0.312671,-0.69891 0.698399,-0.69891 0.385654,0 0.698392,0.31296 0.698392,0.69891"
       id="path243"
       style="stroke-width:0.0698649" />
    <path
       fill="#0099cc"
       d="m 97.714077,151.01232 c 0,0.38587 -0.31274,0.69889 -0.698395,0.69889 -0.385724,0 -0.698397,-0.31302 -0.698397,-0.69889 0,-0.38595 0.312673,-0.69891 0.698397,-0.69891 0.385655,0 0.698395,0.31296 0.698395,0.69891"
       id="path245"
       style="stroke-width:0.0698649" />
    <path
       fill="#0099cc"
       d="m 102.11398,151.01232 c 0,0.38587 -0.31274,0.69889 -0.6984,0.69889 -0.38572,0 -0.69838,-0.31302 -0.69838,-0.69889 0,-0.38595 0.31266,-0.69891 0.69838,-0.69891 0.38566,0 0.6984,0.31296 0.6984,0.69891"
       id="path247"
       style="stroke-width:0.0698649" />
    <path
       fill="#0099cc"
       d="m 89.752349,152.68968 c 0,0.38586 -0.312741,0.6989 -0.698396,0.6989 -0.385725,0 -0.698398,-0.31304 -0.698398,-0.6989 0,-0.38594 0.312673,-0.6989 0.698398,-0.6989 0.385655,0 0.698396,0.31296 0.698396,0.6989"
       id="path249"
       style="stroke-width:0.0698649" />
    <rect
       x="90.415825"
       y="151.99078"
       fill="#0099cc"
       width="6.4950943"
       height="1.3978091"
       id="rect251"
       style="stroke-width:0.0698649" />
    <path
       fill="#0099cc"
       d="m 91.218985,152.68968 c 0,0.38594 -0.312743,0.6989 -0.698397,0.6989 -0.385656,0 -0.698398,-0.31296 -0.698398,-0.6989 0,-0.38594 0.312742,-0.6989 0.698398,-0.6989 0.385654,0 0.698397,0.31296 0.698397,0.6989"
       id="path253"
       style="stroke-width:0.0698649" />
    <path
       fill="#0099cc"
       d="m 100.64734,152.68968 c 0,0.38586 -0.31274,0.6989 -0.698388,0.6989 -0.385724,0 -0.698398,-0.31304 -0.698398,-0.6989 0,-0.38594 0.312674,-0.6989 0.698398,-0.6989 0.385648,0 0.698388,0.31296 0.698388,0.6989"
       id="path255"
       style="stroke-width:0.0698649" />
    <path
       fill="#0099cc"
       d="m 99.180711,152.68968 c 0,0.38586 -0.312738,0.6989 -0.698392,0.6989 -0.385728,0 -0.698399,-0.31304 -0.698399,-0.6989 0,-0.38594 0.312671,-0.6989 0.698399,-0.6989 0.385654,0 0.698392,0.31296 0.698392,0.6989"
       id="path257"
       style="stroke-width:0.0698649" />
    <path
       fill="#0099cc"
       d="m 97.714077,152.68968 c 0,0.38586 -0.31274,0.6989 -0.698395,0.6989 -0.385724,0 -0.698397,-0.31304 -0.698397,-0.6989 0,-0.38594 0.312673,-0.6989 0.698397,-0.6989 0.385655,0 0.698395,0.31296 0.698395,0.6989"
       id="path259"
       style="stroke-width:0.0698649" />
    <path
       fill="#0099cc"
       d="m 102.11398,152.68968 c 0,0.38586 -0.31274,0.6989 -0.6984,0.6989 -0.38572,0 -0.69838,-0.31304 -0.69838,-0.6989 0,-0.38594 0.31266,-0.6989 0.69838,-0.6989 0.38566,0 0.6984,0.31296 0.6984,0.6989"
       id="path261"
       style="stroke-width:0.0698649" />
    <path
       fill="#0099cc"
       d="m 89.752349,154.36706 c 0,0.38585 -0.312741,0.69889 -0.698396,0.69889 -0.385725,0 -0.698398,-0.31304 -0.698398,-0.69889 0,-0.38595 0.312673,-0.69891 0.698398,-0.69891 0.385655,0 0.698396,0.31296 0.698396,0.69891"
       id="path263"
       style="stroke-width:0.0698649" />
    <rect
       x="90.415825"
       y="153.66815"
       fill="#0099cc"
       width="6.4950943"
       height="1.3978091"
       id="rect265"
       style="stroke-width:0.0698649" />
    <path
       fill="#0099cc"
       d="m 91.218985,154.36706 c 0,0.38593 -0.312743,0.69889 -0.698397,0.69889 -0.385656,0 -0.698398,-0.31296 -0.698398,-0.69889 0,-0.38595 0.312742,-0.69891 0.698398,-0.69891 0.385654,0 0.698397,0.31296 0.698397,0.69891"
       id="path267"
       style="stroke-width:0.0698649" />
    <path
       fill="#0099cc"
       d="m 100.64734,154.36706 c 0,0.38585 -0.31274,0.69889 -0.698388,0.69889 -0.385724,0 -0.698398,-0.31304 -0.698398,-0.69889 0,-0.38595 0.312674,-0.69891 0.698398,-0.69891 0.385648,0 0.698388,0.31296 0.698388,0.69891"
       id="path269"
       style="stroke-width:0.0698649" />
    <path
       fill="#0099cc"
       d="m 99.180711,154.36706 c 0,0.38585 -0.312738,0.69889 -0.698392,0.69889 -0.385728,0 -0.698399,-0.31304 -0.698399,-0.69889 0,-0.38595 0.312671,-0.69891 0.698399,-0.69891 0.385654,0 0.698392,0.31296 0.698392,0.69891"
       id="path271"
       style="stroke-width:0.0698649" />
    <path
       fill="#0099cc"
       d="m 97.714077,154.36706 c 0,0.38585 -0.31274,0.69889 -0.698395,0.69889 -0.385724,0 -0.698397,-0.31304 -0.698397,-0.69889 0,-0.38595 0.312673,-0.69891 0.698397,-0.69891 0.385655,0 0.698395,0.31296 0.698395,0.69891"
       id="path273"
       style="stroke-width:0.0698649" />
    <path
       fill="#0099cc"
       d="m 102.11398,154.36706 c 0,0.38585 -0.31274,0.69889 -0.6984,0.69889 -0.38572,0 -0.69838,-0.31304 -0.69838,-0.69889 0,-0.38595 0.31266,-0.69891 0.69838,-0.69891 0.38566,0 0.6984,0.31296 0.6984,0.69891"
       id="path275"
       style="stroke-width:0.0698649" />
  </g>
</svg>
