<?xml version="1.0" encoding="UTF-8" standalone="no"?>
<!-- Generator: Adobe Illustrator 12.0.0, SVG Export Plug-In . SVG Version: 6.00 Build 51448)  -->

<svg
   version="1.1"
   id="Ebene_1"
   width="450"
   height="147.16243"
   viewBox="0 0 450 147.16243"
   overflow="visible"
   enable-background="new 0 0 740 242"
   xml:space="preserve"
   sodipodi:docname="logo save - Kopie.svg"
   inkscape:version="1.3 (0e150ed6c4, 2023-07-21)"
   inkscape:export-filename="logo save - Kopie.svg"
   inkscape:export-xdpi="58.37838"
   inkscape:export-ydpi="58.37838"
   xmlns:inkscape="http://www.inkscape.org/namespaces/inkscape"
   xmlns:sodipodi="http://sodipodi.sourceforge.net/DTD/sodipodi-0.dtd"
   xmlns:xlink="http://www.w3.org/1999/xlink"
   xmlns="http://www.w3.org/2000/svg"
   xmlns:svg="http://www.w3.org/2000/svg"><defs
   id="defs338"><linearGradient
     inkscape:collect="always"
     id="linearGradient2192"><stop
       style="stop-color:#003399;stop-opacity:0;"
       offset="0"
       id="stop2190" /><stop
       style="stop-color:#003399;stop-opacity:1;"
       offset="1"
       id="stop2188" /></linearGradient><linearGradient
     inkscape:collect="always"
     id="linearGradient1834"><stop
       style="stop-color:#003399;stop-opacity:0;"
       offset="0"
       id="stop1832" /><stop
       style="stop-color:#003399;stop-opacity:1;"
       offset="1"
       id="stop1830" /></linearGradient><radialGradient
     inkscape:collect="always"
     xlink:href="#linearGradient1834"
     id="radialGradient1836"
     cx="94.338982"
     cy="12.499572"
     fx="94.338982"
     fy="12.499572"
     r="98.499756"
     gradientTransform="matrix(0.65253463,0,0,0.06183281,-4.1492194,5.4721585)"
     gradientUnits="userSpaceOnUse" /><radialGradient
     inkscape:collect="always"
     xlink:href="#linearGradient1834"
     id="radialGradient1857"
     cx="460.42838"
     cy="112.0354"
     fx="460.42838"
     fy="112.0354"
     r="249.802"
     gradientTransform="matrix(2.1982678,-0.01118589,0.00147175,0.28922847,-551.8814,73.533156)"
     gradientUnits="userSpaceOnUse"
     spreadMethod="reflect" /><radialGradient
     inkscape:collect="always"
     xlink:href="#linearGradient2192"
     id="radialGradient2194"
     cx="89.962685"
     cy="102.88849"
     fx="89.962685"
     fy="102.88849"
     r="98.5"
     gradientTransform="matrix(0.59551553,0.00316993,-3.2862279e-4,0.06182599,1.3737691,57.675095)"
     gradientUnits="userSpaceOnUse" /></defs><sodipodi:namedview
   id="namedview336"
   pagecolor="#ffffff"
   bordercolor="#000000"
   borderopacity="0.25"
   inkscape:showpageshadow="2"
   inkscape:pageopacity="0.0"
   inkscape:pagecheckerboard="0"
   inkscape:deskcolor="#d1d1d1"
   showgrid="false"
   inkscape:zoom="2.7583008"
   inkscape:cx="319.5808"
   inkscape:cy="139.21614"
   inkscape:window-width="1080"
   inkscape:window-height="658"
   inkscape:window-x="-6"
   inkscape:window-y="-6"
   inkscape:window-maximized="1"
   inkscape:current-layer="Ebene_1" />&#10;&#10;&#10;<path
   fill="#0099cc"
   d="m 12.171052,20.706085 c 0,3.362259 -2.7250988,6.089946 -6.0855262,6.089946 C 2.7250985,26.796031 0,24.068952 0,20.706085 c 0,-3.363478 2.72449,-6.089947 6.0855258,-6.089947 3.3604274,0 6.0855262,2.727078 6.0855262,6.089947"
   id="path175"
   style="stroke-width:0.608773" />&#10;<rect
   x="17.952301"
   y="14.616138"
   fill="#0099cc"
   width="56.59539"
   height="12.179893"
   id="rect177"
   style="stroke-width:0.608773" />&#10;<path
   fill="#0099cc"
   d="m 24.950656,20.706085 c 0,3.362867 -2.725099,6.089946 -6.085526,6.089946 -3.360428,0 -6.085526,-2.727079 -6.085526,-6.089946 0,-3.362869 2.725098,-6.089947 6.085526,-6.089947 3.360427,0 6.085526,2.727687 6.085526,6.089947"
   id="path179"
   style="stroke-width:0.608773" />&#10;<path
   id="path181"
   d="m 119.88486,6.0908221 c 0,3.3622594 -2.7251,6.0893369 -6.08553,6.0893369 -3.36103,0 -6.08552,-2.7276865 -6.08552,-6.0893369 0,-3.3634773 2.7251,-6.09055526731 6.08552,-6.09055526731 3.36043,0 6.08553,2.72707796731 6.08553,6.09055526731 M 12.167401,5.8587953 C 12.295805,9.2192275 9.6765947,12.048616 6.3186015,12.176505 2.9593912,12.305004 0.13327301,9.6838905 0.00486842,6.324067 -0.12414473,2.9611988 2.4950656,0.13302766 5.8536673,0.00452979 9.2122691,-0.12396807 12.038996,2.4971449 12.167401,5.8587953 M 6.0855258,2.6683269e-4 H 113.79933 V 12.180159 H 6.0855258 Z"
   style="fill:url(#radialGradient1836);fill-opacity:1;stroke-width:0.608773" />&#10;<path
   fill="#0099cc"
   d="m 107.10525,20.706085 c 0,3.362259 -2.7251,6.089946 -6.08552,6.089946 -3.361036,0 -6.085526,-2.727079 -6.085526,-6.089946 0,-3.363478 2.72449,-6.089947 6.085526,-6.089947 3.36042,0 6.08552,2.727078 6.08552,6.089947"
   id="path183"
   style="stroke-width:0.608773" />&#10;<path
   fill="#0099cc"
   d="m 94.32565,20.706085 c 0,3.362259 -2.725098,6.089946 -6.085525,6.089946 -3.361035,0 -6.085526,-2.727079 -6.085526,-6.089946 0,-3.363478 2.724491,-6.089947 6.085526,-6.089947 3.360427,0 6.085525,2.727078 6.085525,6.089947"
   id="path185"
   style="stroke-width:0.608773" />&#10;<path
   fill="#0099cc"
   d="m 81.546046,20.706085 c 0,3.362259 -2.725098,6.089946 -6.085525,6.089946 -3.361036,0 -6.085526,-2.727079 -6.085526,-6.089946 0,-3.363478 2.72449,-6.089947 6.085526,-6.089947 3.360427,0 6.085525,2.727078 6.085525,6.089947"
   id="path187"
   style="stroke-width:0.608773" />&#10;<rect
   x="0"
   y="123.01718"
   fill="#0099cc"
   width="450.32892"
   height="24.359787"
   id="rect189"
   style="stroke-width:0.608773" />&#10;<path
   fill="#0099cc"
   d="m 119.88486,20.706085 c 0,3.362259 -2.7251,6.089946 -6.08553,6.089946 -3.36103,0 -6.08552,-2.727079 -6.08552,-6.089946 0,-3.363478 2.72449,-6.089947 6.08552,-6.089947 3.36043,0 6.08553,2.727078 6.08553,6.089947"
   id="path191"
   style="stroke-width:0.608773" />&#10;<path
   fill="#0099cc"
   d="m 12.171052,35.321955 c 0,3.36226 -2.7250988,6.089947 -6.0855262,6.089947 C 2.7250985,41.411902 0,38.684824 0,35.321955 c 0,-3.363477 2.72449,-6.089946 6.0855258,-6.089946 3.3604274,0 6.0855262,2.727079 6.0855262,6.089946"
   id="path193"
   style="stroke-width:0.608773" />&#10;<rect
   x="17.952301"
   y="29.23201"
   fill="#0099cc"
   width="56.59539"
   height="12.179893"
   id="rect195"
   style="stroke-width:0.608773" />&#10;<path
   fill="#0099cc"
   d="m 24.950656,35.321955 c 0,3.362869 -2.725099,6.089947 -6.085526,6.089947 -3.360428,0 -6.085526,-2.727078 -6.085526,-6.089947 0,-3.362867 2.725098,-6.089946 6.085526,-6.089946 3.360427,0 6.085526,2.727687 6.085526,6.089946"
   id="path197"
   style="stroke-width:0.608773" />&#10;<path
   fill="#0099cc"
   d="m 107.10525,35.321955 c 0,3.36226 -2.7251,6.089947 -6.08552,6.089947 -3.361036,0 -6.085526,-2.727078 -6.085526,-6.089947 0,-3.363477 2.72449,-6.089946 6.085526,-6.089946 3.36042,0 6.08552,2.727079 6.08552,6.089946"
   id="path199"
   style="stroke-width:0.608773" />&#10;<path
   fill="#0099cc"
   d="m 94.32565,35.321955 c 0,3.36226 -2.725098,6.089947 -6.085525,6.089947 -3.361035,0 -6.085526,-2.727078 -6.085526,-6.089947 0,-3.363477 2.724491,-6.089946 6.085526,-6.089946 3.360427,0 6.085525,2.727079 6.085525,6.089946"
   id="path201"
   style="stroke-width:0.608773" />&#10;<path
   fill="#0099cc"
   d="m 81.546046,35.321955 c 0,3.36226 -2.725098,6.089947 -6.085525,6.089947 -3.361036,0 -6.085526,-2.727078 -6.085526,-6.089947 0,-3.363477 2.72449,-6.089946 6.085526,-6.089946 3.360427,0 6.085525,2.727079 6.085525,6.089946"
   id="path203"
   style="stroke-width:0.608773" />&#10;<path
   fill="#0099cc"
   d="m 119.88486,35.321955 c 0,3.36226 -2.7251,6.089947 -6.08553,6.089947 -3.36103,0 -6.08552,-2.727078 -6.08552,-6.089947 0,-3.363477 2.72449,-6.089946 6.08552,-6.089946 3.36043,0 6.08553,2.727079 6.08553,6.089946"
   id="path205"
   style="stroke-width:0.608773" />&#10;<path
   fill="#0099cc"
   d="m 12.171052,49.937827 c 0,3.362259 -2.7250988,6.089946 -6.0855262,6.089946 C 2.7250985,56.027773 0,53.300695 0,49.937827 0,46.57435 2.72449,43.847881 6.0855258,43.847881 c 3.3604274,0 6.0855262,2.727077 6.0855262,6.089946"
   id="path207"
   style="stroke-width:0.608773" />&#10;<rect
   x="17.952301"
   y="43.847878"
   fill="#0099cc"
   width="56.59539"
   height="12.179893"
   id="rect209"
   style="stroke-width:0.608773" />&#10;<path
   fill="#0099cc"
   d="m 24.950656,49.937827 c 0,3.362868 -2.725099,6.089946 -6.085526,6.089946 -3.360428,0 -6.085526,-2.727078 -6.085526,-6.089946 0,-3.362869 2.725098,-6.089946 6.085526,-6.089946 3.360427,0 6.085526,2.727687 6.085526,6.089946"
   id="path211"
   style="stroke-width:0.608773" />&#10;<path
   fill="#0099cc"
   d="m 107.10525,49.937827 c 0,3.362259 -2.7251,6.089946 -6.08552,6.089946 -3.361036,0 -6.085526,-2.727078 -6.085526,-6.089946 0,-3.363477 2.72449,-6.089946 6.085526,-6.089946 3.36042,0 6.08552,2.727077 6.08552,6.089946"
   id="path213"
   style="stroke-width:0.608773" />&#10;<path
   fill="#0099cc"
   d="m 94.32565,49.937827 c 0,3.362259 -2.725098,6.089946 -6.085525,6.089946 -3.361035,0 -6.085526,-2.727078 -6.085526,-6.089946 0,-3.363477 2.724491,-6.089946 6.085526,-6.089946 3.360427,0 6.085525,2.727077 6.085525,6.089946"
   id="path215"
   style="stroke-width:0.608773" />&#10;<path
   fill="#0099cc"
   d="m 81.546046,49.937827 c 0,3.362259 -2.725098,6.089946 -6.085525,6.089946 -3.361036,0 -6.085526,-2.727078 -6.085526,-6.089946 0,-3.363477 2.72449,-6.089946 6.085526,-6.089946 3.360427,0 6.085525,2.727077 6.085525,6.089946"
   id="path217"
   style="stroke-width:0.608773" />&#10;<path
   fill="#0099cc"
   d="m 119.88486,49.937827 c 0,3.362259 -2.7251,6.089946 -6.08553,6.089946 -3.36103,0 -6.08552,-2.727078 -6.08552,-6.089946 0,-3.363477 2.72449,-6.089946 6.08552,-6.089946 3.36043,0 6.08553,2.727077 6.08553,6.089946"
   id="path219"
   style="stroke-width:0.608773" />&#10;&#10;&#10;&#10;&#10;&#10;&#10;<path
   id="path233"
   d="m 119.88486,64.553699 c 0,3.362259 -2.7251,6.089946 -6.08553,6.089946 -3.36103,0 -6.08552,-2.727077 -6.08552,-6.089946 0,-3.363477 2.72449,-6.089947 6.08552,-6.089947 3.36043,0 6.08553,2.727079 6.08553,6.089947 m -38.338814,0 c 0,3.362259 -2.725098,6.089946 -6.085525,6.089946 -3.361036,0 -6.085526,-2.727077 -6.085526,-6.089946 0,-3.363477 2.72449,-6.089947 6.085526,-6.089947 3.360427,0 6.085525,2.727079 6.085525,6.089947 m 12.779604,0 c 0,3.362259 -2.725098,6.089946 -6.085525,6.089946 -3.361035,0 -6.085526,-2.727077 -6.085526,-6.089946 0,-3.363477 2.724491,-6.089947 6.085526,-6.089947 3.360427,0 6.085525,2.727079 6.085525,6.089947 m 12.7796,0 c 0,3.362259 -2.7251,6.089946 -6.08552,6.089946 -3.361036,0 -6.085526,-2.727077 -6.085526,-6.089946 0,-3.363477 2.72449,-6.089947 6.085526,-6.089947 3.36042,0 6.08552,2.727079 6.08552,6.089947 m -82.154594,0 c 0,3.362869 -2.725099,6.089946 -6.085526,6.089946 -3.360428,0 -6.085526,-2.727077 -6.085526,-6.089946 0,-3.362868 2.725098,-6.089947 6.085526,-6.089947 3.360427,0 6.085526,2.727688 6.085526,6.089947 M 17.952301,58.463752 H 74.547692 V 70.643645 H 17.952301 Z m -5.781249,6.089947 c 0,3.362259 -2.7250988,6.089946 -6.0855262,6.089946 C 2.72449,70.643645 0,67.916568 0,64.553699 c 0,-3.363477 2.72449,-6.089947 6.0855258,-6.089947 3.3604274,0 6.0855262,2.727079 6.0855262,6.089947"
   style="fill:url(#radialGradient2194);fill-opacity:1;stroke-width:0.608773" />&#10;<path
   fill="#0099cc"
   d="m 12.171052,79.169571 c 0,3.362259 -2.7250988,6.089946 -6.0855262,6.089946 C 2.72449,85.259517 0,82.53183 0,79.169571 c 0,-3.362869 2.72449,-6.089946 6.0855258,-6.089946 3.3604274,0 6.0855262,2.727077 6.0855262,6.089946"
   id="path235"
   style="stroke-width:0.608773" />&#10;<rect
   x="17.952301"
   y="73.07962"
   fill="#0099cc"
   width="56.59539"
   height="12.179893"
   id="rect237"
   style="stroke-width:0.608773" />&#10;<path
   fill="#0099cc"
   d="m 24.950656,79.169571 c 0,3.362868 -2.725099,6.089946 -6.085526,6.089946 -3.360428,0 -6.085526,-2.727078 -6.085526,-6.089946 0,-3.362869 2.725098,-6.089946 6.085526,-6.089946 3.360427,0 6.085526,2.727077 6.085526,6.089946"
   id="path239"
   style="stroke-width:0.608773" />&#10;<path
   fill="#0099cc"
   d="m 107.10525,79.169571 c 0,3.362259 -2.7251,6.089946 -6.08552,6.089946 -3.361036,0 -6.085526,-2.727687 -6.085526,-6.089946 0,-3.362869 2.72449,-6.089946 6.085526,-6.089946 3.36042,0 6.08552,2.727077 6.08552,6.089946"
   id="path241"
   style="stroke-width:0.608773" />&#10;<path
   fill="#0099cc"
   d="m 94.32565,79.169571 c 0,3.362259 -2.725098,6.089946 -6.085525,6.089946 -3.361035,0 -6.085526,-2.727687 -6.085526,-6.089946 0,-3.362869 2.724491,-6.089946 6.085526,-6.089946 3.360427,0 6.085525,2.727077 6.085525,6.089946"
   id="path243"
   style="stroke-width:0.608773" />&#10;<path
   fill="#0099cc"
   d="m 81.546046,79.169571 c 0,3.362259 -2.725098,6.089946 -6.085525,6.089946 -3.361036,0 -6.085526,-2.727687 -6.085526,-6.089946 0,-3.362869 2.72449,-6.089946 6.085526,-6.089946 3.360427,0 6.085525,2.727077 6.085525,6.089946"
   id="path245"
   style="stroke-width:0.608773" />&#10;<path
   fill="#0099cc"
   d="m 119.88486,79.169571 c 0,3.362259 -2.7251,6.089946 -6.08553,6.089946 -3.36103,0 -6.08552,-2.727687 -6.08552,-6.089946 0,-3.362869 2.72449,-6.089946 6.08552,-6.089946 3.36043,0 6.08553,2.727077 6.08553,6.089946"
   id="path247"
   style="stroke-width:0.608773" />&#10;<path
   fill="#0099cc"
   d="m 12.171052,93.785441 c 0,3.362261 -2.7250988,6.089948 -6.0855262,6.089948 C 2.72449,99.875389 0,97.147702 0,93.785441 c 0,-3.362867 2.72449,-6.089946 6.0855258,-6.089946 3.3604274,0 6.0855262,2.727079 6.0855262,6.089946"
   id="path249"
   style="stroke-width:0.608773" />&#10;<rect
   x="17.952301"
   y="87.695503"
   fill="#0099cc"
   width="56.59539"
   height="12.179893"
   id="rect251"
   style="stroke-width:0.608773" />&#10;<path
   fill="#0099cc"
   d="m 24.950656,93.785441 c 0,3.362869 -2.725099,6.089948 -6.085526,6.089948 -3.360428,0 -6.085526,-2.727079 -6.085526,-6.089948 0,-3.362867 2.725098,-6.089946 6.085526,-6.089946 3.360427,0 6.085526,2.727079 6.085526,6.089946"
   id="path253"
   style="stroke-width:0.608773" />&#10;<path
   fill="#0099cc"
   d="m 107.10525,93.785441 c 0,3.362261 -2.7251,6.089948 -6.08552,6.089948 -3.361036,0 -6.085526,-2.727687 -6.085526,-6.089948 0,-3.362867 2.72449,-6.089946 6.085526,-6.089946 3.36042,0 6.08552,2.727079 6.08552,6.089946"
   id="path255"
   style="stroke-width:0.608773" />&#10;<path
   fill="#0099cc"
   d="m 94.32565,93.785441 c 0,3.362261 -2.725098,6.089948 -6.085525,6.089948 -3.361035,0 -6.085526,-2.727687 -6.085526,-6.089948 0,-3.362867 2.724491,-6.089946 6.085526,-6.089946 3.360427,0 6.085525,2.727079 6.085525,6.089946"
   id="path257"
   style="stroke-width:0.608773" />&#10;<path
   fill="#0099cc"
   d="m 81.546046,93.785441 c 0,3.362261 -2.725098,6.089948 -6.085525,6.089948 -3.361036,0 -6.085526,-2.727687 -6.085526,-6.089948 0,-3.362867 2.72449,-6.089946 6.085526,-6.089946 3.360427,0 6.085525,2.727079 6.085525,6.089946"
   id="path259"
   style="stroke-width:0.608773" />&#10;<path
   fill="#0099cc"
   d="m 119.88486,93.785441 c 0,3.362261 -2.7251,6.089948 -6.08553,6.089948 -3.36103,0 -6.08552,-2.727687 -6.08552,-6.089948 0,-3.362867 2.72449,-6.089946 6.08552,-6.089946 3.36043,0 6.08553,2.727079 6.08553,6.089946"
   id="path261"
   style="stroke-width:0.608773" />&#10;<path
   fill="#0099cc"
   d="m 12.171052,108.40131 c 0,3.36226 -2.7250988,6.08995 -6.0855262,6.08995 C 2.72449,114.49126 0,111.76357 0,108.40131 c 0,-3.36287 2.72449,-6.08994 6.0855258,-6.08994 3.3604274,0 6.0855262,2.72707 6.0855262,6.08994"
   id="path263"
   style="stroke-width:0.608773" />&#10;<rect
   x="17.952301"
   y="102.31136"
   fill="#0099cc"
   width="56.59539"
   height="12.179893"
   id="rect265"
   style="stroke-width:0.608773" />&#10;<path
   fill="#0099cc"
   d="m 24.950656,108.40131 c 0,3.36287 -2.725099,6.08995 -6.085526,6.08995 -3.360428,0 -6.085526,-2.72708 -6.085526,-6.08995 0,-3.36287 2.725098,-6.08994 6.085526,-6.08994 3.360427,0 6.085526,2.72707 6.085526,6.08994"
   id="path267"
   style="stroke-width:0.608773" />&#10;<path
   fill="#0099cc"
   d="m 107.10525,108.40131 c 0,3.36226 -2.7251,6.08995 -6.08552,6.08995 -3.361036,0 -6.085526,-2.72769 -6.085526,-6.08995 0,-3.36287 2.72449,-6.08994 6.085526,-6.08994 3.36042,0 6.08552,2.72707 6.08552,6.08994"
   id="path269"
   style="stroke-width:0.608773" />&#10;<path
   fill="#0099cc"
   d="m 94.32565,108.40131 c 0,3.36226 -2.725098,6.08995 -6.085525,6.08995 -3.361035,0 -6.085526,-2.72769 -6.085526,-6.08995 0,-3.36287 2.724491,-6.08994 6.085526,-6.08994 3.360427,0 6.085525,2.72707 6.085525,6.08994"
   id="path271"
   style="stroke-width:0.608773" />&#10;<path
   fill="#0099cc"
   d="m 81.546046,108.40131 c 0,3.36226 -2.725098,6.08995 -6.085525,6.08995 -3.361036,0 -6.085526,-2.72769 -6.085526,-6.08995 0,-3.36287 2.72449,-6.08994 6.085526,-6.08994 3.360427,0 6.085525,2.72707 6.085525,6.08994"
   id="path273"
   style="stroke-width:0.608773" />&#10;<path
   fill="#0099cc"
   d="m 119.88486,108.40131 c 0,3.36226 -2.7251,6.08995 -6.08553,6.08995 -3.36103,0 -6.08552,-2.72769 -6.08552,-6.08995 0,-3.36287 2.72449,-6.08994 6.08552,-6.08994 3.36043,0 6.08553,2.72707 6.08553,6.08994"
   id="path275"
   style="stroke-width:0.608773" />&#10;<g
   id="g283"
   transform="matrix(0.60855258,0,0,0.60899463,0,2.6683269e-4)">&#10;	&#10;	&#10;	<path
   id="path281"
   d="m 558.868,94.484 c 0,-14.338 2.366,-27.306 7.102,-38.905 C 570.706,43.98 577.126,34.074 585.236,25.857 593.344,17.64 602.85,11.277 613.757,6.766 624.662,2.256 636.285,0 648.625,0 c 12.34,0 23.963,2.256 34.869,6.766 10.906,4.512 20.411,10.875 28.52,19.091 8.109,8.216 14.529,18.124 19.266,29.722 4.735,11.599 7.104,24.566 7.104,38.905 0,14.659 -2.367,27.75 -7.104,39.267 -4.735,11.518 -11.156,21.307 -19.266,29.359 -8.107,8.057 -17.612,14.217 -28.52,18.485 -10.906,4.27 -22.529,6.403 -34.869,6.403 -12.34,0 -23.963,-2.135 -34.869,-6.403 -10.906,-4.27 -20.413,-10.43 -28.521,-18.485 -8.108,-8.055 -14.528,-17.842 -19.266,-29.359 -4.735,-11.519 -7.101,-24.607 -7.101,-39.267 z m 59.4,0.954 c 0,5.322 0.718,10.12 2.153,14.393 1.436,4.272 3.518,7.942 6.243,11.006 2.725,3.064 5.957,5.443 9.688,7.136 3.73,1.692 7.822,2.539 12.272,2.539 4.592,0 8.719,-0.847 12.379,-2.539 3.66,-1.692 6.854,-4.072 9.58,-7.136 2.726,-3.065 4.809,-6.734 6.245,-11.006 1.435,-4.273 2.153,-9.07 2.153,-14.393 0,-4.837 -0.72,-9.394 -2.153,-13.668 -1.438,-4.272 -3.445,-8.063 -6.028,-11.369 -2.584,-3.305 -5.742,-5.886 -9.474,-7.74 -3.73,-1.854 -7.966,-2.783 -12.702,-2.783 -4.737,0 -8.973,0.928 -12.704,2.783 -3.73,1.854 -6.89,4.435 -9.472,7.74 -2.585,3.306 -4.595,7.097 -6.028,11.369 -1.436,4.274 -2.152,8.832 -2.152,13.668 z M 374.006,0 h 62.612 l 23.09,98.711 h 1.554 c 0.592,-4.153 1.184,-8.35 1.776,-12.588 0.591,-4.238 1.406,-8.35 2.442,-12.339 L 484.354,0 h 61.943 l 27.532,188 H 514.992 L 507,85.063 h -1.333 c -0.296,3.159 -0.814,6.316 -1.554,9.471 -0.74,3.157 -1.556,6.231 -2.442,9.223 L 477.47,188 h -35.523 l -21.758,-79.508 c -1.037,-3.822 -1.853,-7.684 -2.443,-11.59 -0.593,-3.904 -1.036,-7.851 -1.33,-11.838 h -2 c -0.297,3.821 -0.555,7.603 -0.776,11.341 -0.224,3.739 -0.48,7.518 -0.775,11.34 L 405.756,188 H 346.92 Z M 238.78,188 V 0 h 60.776 V 127.716 H 350.62 V 188 Z"
   style="fill:url(#radialGradient1857);fill-opacity:1" />&#10;</g>&#10;&#10;<path
   fill="#ffffff"
   stroke="#000000"
   stroke-width="1.21755"
   d="m 174.40752,72.230077 -57.37434,-9.901035 c -2.99468,-0.517036 -4.98282,3.01026 -2.99468,5.309215 l 38.12642,44.031533 c 1.94737,2.24718 5.63703,0.9007 5.67963,-2.07058 l 0.21299,-14.920982 26.92175,15.204762 c 2.37579,1.34284 5.38874,0.49999 6.73242,-1.8757 1.34125,-2.37873 0.50206,-5.3963 -1.87434,-6.73852 l -26.92419,-15.202335 12.65729,-7.899878 c 2.52001,-1.573643 1.76479,-5.430406 -1.16295,-5.93648"
   id="path333" />&#10;<path
   style="font-weight:800;font-size:36.4856px;font-family:'Futura LT Paneuropean';-inkscape-font-specification:'Futura LT Paneuropean Ultra-Bold';fill:#ffffff;stroke-width:0.0555287"
   d="m 19.948372,141.11193 v -15.28158 h 6.66973 v 10.37687 h 5.598679 v 4.90471 z m 20.496043,-10.76196 v 10.76196 h -6.280257 v -10.76196 z m -6.596703,-3.32384 q 0,-1.17552 0.973682,-1.84433 0.998026,-0.66883 2.482892,-0.66883 1.484867,0 2.458551,0.66883 0.998025,0.66881 0.998025,1.84433 0,0.66881 -0.292105,1.15523 -0.292105,0.46615 -0.778946,0.77016 -0.4625,0.30401 -1.095395,0.46616 -0.608552,0.14187 -1.29013,0.14187 -0.681577,0 -1.314471,-0.14187 -0.608552,-0.16215 -1.095394,-0.46616 -0.462499,-0.30401 -0.754605,-0.77016 -0.292104,-0.48642 -0.292104,-1.15523 z m 14.605253,3.08063 q 1.241447,0 2.190788,0.46615 0.949341,0.46615 1.582235,1.31738 h 0.170394 l -0.170394,-1.54032 h 6.08552 v 10.13367 q 0,1.58086 -0.730262,2.69556 -0.70592,1.1147 -1.898683,1.82406 -1.192762,0.70935 -2.774996,1.03364 -1.557894,0.34453 -3.237497,0.34453 -1.533551,0 -2.848024,-0.22293 -1.29013,-0.22294 -2.701971,-0.62829 l -0.632893,-0.18241 1.387497,-3.62785 q 0.900657,0.64855 2.142104,0.97284 1.265788,0.34454 2.385523,0.34454 1.290131,0 2.020393,-0.66883 0.730262,-0.66881 0.851973,-1.70245 l 0.12171,-1.09445 h -0.170394 q -0.24342,0.44589 -0.657236,0.79044 -0.413815,0.32428 -0.924999,0.54722 -0.511183,0.22293 -1.095394,0.32427 -0.559868,0.12161 -1.119735,0.12161 -1.314473,0 -2.361183,-0.50668 -1.022367,-0.50668 -1.752629,-1.29712 -0.70592,-0.81069 -1.071052,-1.82406 -0.365131,-1.01337 -0.365131,-2.00647 0,-1.01335 0.365131,-2.00646 0.365132,-0.9931 1.071052,-1.80379 0.730262,-0.8107 1.752629,-1.29711 1.04671,-0.50669 2.385524,-0.50669 z m 2.409867,7.15437 q 0.803288,0 1.192761,-0.44588 0.389474,-0.44587 0.389474,-1.0539 0,-0.60802 -0.438157,-1.07417 -0.413816,-0.48641 -1.192763,-0.48641 -0.754604,0 -1.241445,0.44588 -0.486842,0.44588 -0.486842,1.09443 0,0.64855 0.462499,1.09444 0.486842,0.42561 1.314473,0.42561 z m 9.566439,-1.47951 q 0,-1.01336 0.365131,-2.02673 0.365133,-1.01337 1.071054,-1.82407 0.730257,-0.81069 1.776967,-1.31737 1.046711,-0.50669 2.409869,-0.50669 1.168421,0 2.117763,0.36481 0.949335,0.36481 1.655263,1.15524 h 0.146046 l -0.19473,-1.27684 h 6.15854 v 10.76196 h -6.15854 l 0.19473,-1.41871 h -0.146046 q -0.85198,0.74988 -1.72829,1.21604 -0.876315,0.44588 -2.215131,0.44588 -1.314474,0 -2.336842,-0.50668 -1.022369,-0.50668 -1.728284,-1.29712 -0.681579,-0.81069 -1.046711,-1.80379 -0.340789,-0.99311 -0.340789,-1.96593 z m 6.231573,-0.10133 q 0,0.64855 0.389474,1.1147 0.389474,0.46614 1.241441,0.46614 0.900658,0 1.290131,-0.48641 0.389474,-0.50669 0.389474,-1.13497 0,-0.62829 -0.4625,-1.03364 -0.462494,-0.40534 -1.217105,-0.40534 -0.7546,0 -1.192757,0.44588 -0.438158,0.44588 -0.438158,1.03364 z m 24.366422,-9.84994 h 6.864455 l 2.531589,8.02586 h 0.17039 q 0.0974,-0.50667 0.19473,-1.01336 0.0974,-0.52694 0.26776,-1.01336 l 2.06908,-5.99914 h 6.79144 l 3.01842,15.28158 h -6.45065 l -0.87631,-8.37041 h -0.14606 q -0.0487,0.38507 -0.17039,0.77016 -0.12171,0.38507 -0.26776,0.74989 l -2.65329,6.85036 h -3.894733 l -2.385526,-6.46528 q -0.170395,-0.46615 -0.267763,-0.9323 -0.09736,-0.48642 -0.146053,-0.97283 h -0.219079 q -0.04868,0.46615 -0.09736,0.93229 -0.02434,0.44589 -0.07302,0.91204 l -0.778946,6.52608 h -6.450658 z m 23.417084,9.95127 q 0,-1.01336 0.36512,-2.02673 0.36513,-1.01337 1.07106,-1.82407 0.73025,-0.81069 1.77698,-1.31737 1.0467,-0.50669 2.40986,-0.50669 1.16841,0 2.11776,0.36481 0.94934,0.36481 1.65526,1.15524 h 0.14605 l -0.19473,-1.27684 h 6.15854 v 10.76196 h -6.15854 l 0.19473,-1.41871 h -0.14605 q -0.85198,0.74988 -1.72829,1.21604 -0.87632,0.44588 -2.21513,0.44588 -1.31448,0 -2.33684,-0.50668 -1.02236,-0.50668 -1.72828,-1.29712 -0.68159,-0.81069 -1.04673,-1.80379 -0.34077,-0.99311 -0.34077,-1.96593 z m 6.23157,-0.10133 q 0,0.64855 0.38948,1.1147 0.38946,0.46614 1.24144,0.46614 0.90065,0 1.29012,-0.48641 0.38948,-0.50669 0.38948,-1.13497 0,-0.62829 -0.4625,-1.03364 -0.4625,-0.40534 -1.2171,-0.40534 -0.75461,0 -1.19276,0.44588 -0.43816,0.44588 -0.43816,1.03364 z m 11.73286,-5.33032 h 6.13421 l -0.24343,1.72272 h 0.14606 q 0.46249,-0.44588 0.87631,-0.81069 0.43816,-0.36481 0.90066,-0.60803 0.48684,-0.26346 1.04671,-0.40533 0.58421,-0.14188 1.33882,-0.14188 1.2171,0 2.04473,0.36481 0.85198,0.34455 1.3875,0.95257 0.55986,0.58775 0.80329,1.37818 0.24342,0.79042 0.24342,1.68219 v 6.62742 h -6.28026 v -5.24924 q 0,-0.24321 -0.0243,-0.50669 0,-0.26347 -0.1217,-0.48642 -0.0974,-0.22293 -0.31645,-0.36481 -0.19473,-0.16213 -0.60856,-0.16213 -0.38947,0 -0.60855,0.14187 -0.19473,0.1216 -0.2921,0.34454 -0.0974,0.20268 -0.12171,0.46614 -0.0243,0.24322 -0.0243,0.48643 v 5.33031 h -6.28026 z m 16.6743,5.43165 q 0,-1.01336 0.36514,-2.02673 0.36512,-1.01337 1.07104,-1.82407 0.73026,-0.81069 1.77698,-1.31737 1.04671,-0.50669 2.40986,-0.50669 1.16841,0 2.11776,0.36481 0.94934,0.36481 1.65526,1.15524 h 0.14606 l -0.19474,-1.27684 h 6.15855 v 10.76196 h -6.15855 l 0.19474,-1.41871 h -0.14606 q -0.85197,0.74988 -1.72828,1.21604 -0.87633,0.44588 -2.21513,0.44588 -1.31448,0 -2.33684,-0.50668 -1.02237,-0.50668 -1.72829,-1.29712 -0.68158,-0.81069 -1.04672,-1.80379 -0.34078,-0.99311 -0.34078,-1.96593 z m 6.23157,-0.10133 q 0,0.64855 0.38948,1.1147 0.38947,0.46614 1.24144,0.46614 0.90066,0 1.29013,-0.48641 0.38948,-0.50669 0.38948,-1.13497 0,-0.62829 -0.4625,-1.03364 -0.4625,-0.40534 -1.21711,-0.40534 -0.7546,0 -1.19275,0.44588 -0.43817,0.44588 -0.43817,1.03364 z m 16.89341,-5.57353 q 1.24144,0 2.19079,0.46615 0.94933,0.46615 1.58222,1.31738 h 0.1704 l -0.1704,-1.54032 h 6.08553 v 10.13367 q 0,1.58086 -0.73027,2.69556 -0.70592,1.1147 -1.89867,1.82406 -1.19277,0.70935 -2.775,1.03364 -1.5579,0.34453 -3.23751,0.34453 -1.53355,0 -2.84801,-0.22293 -1.29014,-0.22294 -2.70198,-0.62829 l -0.63289,-0.18241 1.3875,-3.62785 q 0.90065,0.64855 2.14209,0.97284 1.2658,0.34454 2.38553,0.34454 1.29014,0 2.0204,-0.66883 0.73026,-0.66881 0.85197,-1.70245 l 0.12171,-1.09445 h -0.1704 q -0.24342,0.44589 -0.65723,0.79044 -0.41382,0.32428 -0.92499,0.54722 -0.51119,0.22293 -1.09541,0.32427 -0.55986,0.12161 -1.11972,0.12161 -1.31448,0 -2.36119,-0.50668 -1.02236,-0.50668 -1.75263,-1.29712 -0.70592,-0.81069 -1.07105,-1.82406 -0.36513,-1.01337 -0.36513,-2.00647 0,-1.01335 0.36513,-2.00646 0.36513,-0.9931 1.07105,-1.80379 0.73027,-0.8107 1.75263,-1.29711 1.04671,-0.50669 2.38553,-0.50669 z m 2.40986,7.15437 q 0.80329,0 1.19276,-0.44588 0.38947,-0.44587 0.38947,-1.0539 0,-0.60802 -0.43816,-1.07417 -0.41381,-0.48641 -1.19276,-0.48641 -0.7546,0 -1.24144,0.44588 -0.48684,0.44588 -0.48684,1.09443 0,0.64855 0.46249,1.09444 0.48684,0.42561 1.31448,0.42561 z m 9.61512,-1.35791 q 0,-1.33764 0.58421,-2.41182 0.58421,-1.07416 1.58224,-1.82406 0.99802,-0.74988 2.36118,-1.15523 1.36316,-0.40535 2.8967,-0.40535 1.65526,0 3.09146,0.40535 1.46052,0.40535 2.53156,1.19577 1.07106,0.77015 1.67961,1.88486 0.63289,1.11472 0.63289,2.53342 0,0.1216 0,0.24322 0,0.12159 -0.0243,0.24321 h -9.12829 q 0,0.32427 0.0487,0.66881 0.0487,0.32429 0.19474,0.58775 0.1704,0.26348 0.46251,0.42562 0.2921,0.16214 0.77895,0.16214 0.48683,0 0.82763,-0.24321 0.34078,-0.26347 0.43815,-0.64855 h 6.10986 q -0.31644,0.97283 -1.07105,1.68218 -0.7546,0.70937 -1.77697,1.19577 -0.99803,0.46616 -2.16645,0.68909 -1.14407,0.22295 -2.26381,0.22295 -1.53356,0 -2.94539,-0.32428 -1.38749,-0.34454 -2.48289,-1.01337 -1.07105,-0.66882 -1.72828,-1.68219 -0.63291,-1.03363 -0.63291,-2.43208 z m 6.20723,-1.52005 h 2.9454 q 0,-0.54722 -0.43816,-0.97284 -0.41382,-0.42561 -1.0954,-0.42561 -0.70592,0 -1.07104,0.42561 -0.3408,0.40536 -0.3408,0.97284 z m 11.14867,-4.0332 h 6.28025 l -0.14605,1.43898 h 0.14605 q 0.38948,-0.48641 0.77895,-0.81068 0.41382,-0.3243 0.87631,-0.5067 0.48684,-0.20267 1.04671,-0.28374 0.55987,-0.0811 1.24144,-0.0811 h 0.43817 v 5.31005 q -0.48685,-0.24321 -0.90066,-0.40535 -0.41381,-0.18241 -1.02237,-0.18241 -1.2171,0 -1.85,0.56749 -0.60855,0.54721 -0.60855,1.58086 v 4.13453 h -6.28025 z m 21.83487,3.16171 q 0,-1.8038 0.80329,-3.26304 0.80329,-1.45926 2.16645,-2.4929 1.3875,-1.03362 3.23749,-1.6011 1.85,-0.5675 3.94343,-0.5675 2.09341,0 3.94341,0.5675 1.85,0.56748 3.21316,1.6011 1.3875,1.03364 2.19078,2.4929 0.80329,1.45924 0.80329,3.26304 0,1.84432 -0.80329,3.30357 -0.80328,1.43898 -2.19078,2.45235 -1.36316,1.01337 -3.21316,1.56059 -1.85,0.52695 -3.94341,0.52695 -2.09343,0 -3.94343,-0.52695 -1.84999,-0.54722 -3.23749,-1.56059 -1.36316,-1.01337 -2.16645,-2.45235 -0.80329,-1.45925 -0.80329,-3.30357 z m 6.71841,0.0811 q 0,0.66883 0.24344,1.21604 0.24341,0.52695 0.70591,0.91204 0.4625,0.38508 1.0954,0.60802 0.63289,0.20267 1.3875,0.20267 0.77894,0 1.38749,-0.20267 0.6329,-0.22294 1.09539,-0.60802 0.46251,-0.38509 0.70592,-0.91204 0.24343,-0.54721 0.24343,-1.21604 0,-0.60802 -0.24343,-1.13497 -0.24341,-0.54721 -0.68157,-0.95257 -0.43815,-0.42561 -1.07105,-0.64854 -0.6329,-0.24321 -1.43618,-0.24321 -0.8033,0 -1.43619,0.24321 -0.6329,0.22293 -1.07105,0.64854 -0.43816,0.40536 -0.68157,0.95257 -0.24344,0.52695 -0.24344,1.13497 z m 15.65194,-3.24281 h 6.13421 l -0.24342,1.72272 h 0.14605 q 0.4625,-0.44588 0.87631,-0.81069 0.43816,-0.36481 0.90066,-0.60803 0.48683,-0.26346 1.04671,-0.40533 0.58421,-0.14188 1.33881,-0.14188 1.21711,0 2.04474,0.36481 0.85196,0.34455 1.3875,0.95257 0.55986,0.58775 0.80328,1.37818 0.24342,0.79042 0.24342,1.68219 v 6.62742 h -6.28025 v -5.24924 q 0,-0.24321 -0.0243,-0.50669 0,-0.26347 -0.12172,-0.48642 -0.0974,-0.22293 -0.31644,-0.36481 -0.19474,-0.16213 -0.60856,-0.16213 -0.38946,0 -0.60854,0.14187 -0.19474,0.1216 -0.29211,0.34454 -0.0974,0.20268 -0.12171,0.46614 -0.0243,0.24322 -0.0243,0.48643 v 5.33031 h -6.28025 z m 17.28286,10.76196 V 124.6751 h 6.28025 v 16.43683 z m 15.62759,-10.76196 v 10.76196 h -6.28025 v -10.76196 z m -6.59671,-3.32384 q 0,-1.17552 0.97369,-1.84433 0.99803,-0.66883 2.48289,-0.66883 1.48487,0 2.45854,0.66883 0.99803,0.66881 0.99803,1.84433 0,0.66881 -0.2921,1.15523 -0.29211,0.46615 -0.77895,0.77016 -0.46249,0.30401 -1.09539,0.46616 -0.60855,0.14187 -1.29013,0.14187 -0.68158,0 -1.31447,-0.14187 -0.60855,-0.16215 -1.0954,-0.46616 -0.46249,-0.30401 -0.7546,-0.77016 -0.29211,-0.48642 -0.29211,-1.15523 z m 9.44474,3.32384 h 6.1342 l -0.24342,1.72272 h 0.14606 q 0.46249,-0.44588 0.87631,-0.81069 0.43815,-0.36481 0.90066,-0.60803 0.48683,-0.26346 1.04671,-0.40533 0.58421,-0.14188 1.33881,-0.14188 1.21711,0 2.04474,0.36481 0.85196,0.34455 1.3875,0.95257 0.55986,0.58775 0.80328,1.37818 0.24343,0.79042 0.24343,1.68219 v 6.62742 h -6.28026 v -5.24924 q 0,-0.24321 -0.0243,-0.50669 0,-0.26347 -0.12172,-0.48642 -0.0974,-0.22293 -0.31645,-0.36481 -0.19474,-0.16213 -0.60856,-0.16213 -0.38947,0 -0.60855,0.14187 -0.19474,0.1216 -0.29209,0.34454 -0.0974,0.20268 -0.12172,0.46614 -0.0243,0.24322 -0.0243,0.48643 v 5.33031 h -6.28025 z m 16.72299,5.55325 q 0,-1.33764 0.58422,-2.41182 0.5842,-1.07416 1.58223,-1.82406 0.99803,-0.74988 2.36118,-1.15523 1.36316,-0.40535 2.89671,-0.40535 1.65526,0 3.09144,0.40535 1.46053,0.40535 2.53158,1.19577 1.07105,0.77015 1.6796,1.88486 0.63289,1.11472 0.63289,2.53342 0,0.1216 0,0.24321 0,0.1216 -0.0243,0.24322 h -9.12828 q 0,0.32427 0.0487,0.66881 0.0487,0.32429 0.19475,0.58775 0.17039,0.26348 0.46249,0.42562 0.29211,0.16214 0.77895,0.16214 0.48684,0 0.82763,-0.24321 0.34079,-0.26347 0.43816,-0.64855 h 6.10986 q -0.31644,0.97283 -1.07105,1.68218 -0.7546,0.70937 -1.77697,1.19577 -0.99803,0.46616 -2.16644,0.68909 -1.14409,0.22295 -2.26382,0.22295 -1.53356,0 -2.94539,-0.32428 -1.3875,-0.34454 -2.48289,-1.01337 -1.07106,-0.66882 -1.72829,-1.68219 -0.6329,-1.03363 -0.6329,-2.43208 z m 6.20723,-1.52005 h 2.94539 q 0,-0.54722 -0.43816,-0.97284 -0.41381,-0.42561 -1.09538,-0.42561 -0.70593,0 -1.07106,0.42561 -0.34079,0.40536 -0.34079,0.97284 z m 21.64011,3.38464 V 133.309 h 8.69013 v 4.45881 z m 34.17631,-11.93746 v 4.37775 h -5.57434 v 1.58085 h 4.89276 v 3.9724 h -4.89276 v 5.35058 h -6.71841 v -15.28157 z m 1.26578,10.03234 q 0,-1.41872 0.6329,-2.49289 0.63289,-1.07417 1.70395,-1.8038 1.07104,-0.72962 2.48288,-1.09443 1.4362,-0.36481 3.01842,-0.36481 1.58224,0 2.99408,0.36481 1.43618,0.36481 2.50724,1.09443 1.07104,0.72963 1.70394,1.8038 0.6329,1.07417 0.6329,2.49289 0,1.33764 -0.65724,2.37127 -0.65724,1.01337 -1.75264,1.72274 -1.09538,0.68908 -2.50723,1.05389 -1.41184,0.34455 -2.92105,0.34455 -1.5092,0 -2.92104,-0.34455 -1.41184,-0.36481 -2.50724,-1.05389 -1.09539,-0.70937 -1.75263,-1.72274 -0.65724,-1.03363 -0.65724,-2.37127 z m 6.08553,-0.0811 q 0,0.64856 0.51118,1.07416 0.51118,0.40535 1.24144,0.40535 0.73027,0 1.24146,-0.40535 0.51118,-0.4256 0.51118,-1.07416 0,-0.64855 -0.48684,-1.1147 -0.48685,-0.46615 -1.2658,-0.46615 -0.77894,0 -1.26579,0.46615 -0.48683,0.46615 -0.48683,1.1147 z m 11.63552,-5.43165 h 6.28025 l -0.14605,1.43898 h 0.14605 q 0.38948,-0.48641 0.77895,-0.81068 0.41381,-0.3243 0.87631,-0.5067 0.48684,-0.20267 1.0467,-0.28374 0.55987,-0.0811 1.24145,-0.0811 h 0.43816 v 5.31005 q -0.48684,-0.24321 -0.90066,-0.40535 -0.41381,-0.18241 -1.02236,-0.18241 -1.2171,0 -1.85,0.56749 -0.60855,0.54721 -0.60855,1.58086 v 4.13453 h -6.28025 z m 12.04935,0 h 6.23158 v 5.55325 q 0,0.24322 0.0243,0.48641 0.0243,0.22296 0.12171,0.40536 0.12172,0.18241 0.31645,0.30401 0.21908,0.10133 0.60856,0.10133 0.38947,0 0.58421,-0.10133 0.21908,-0.1216 0.31644,-0.30401 0.12171,-0.1824 0.14605,-0.40536 0.0243,-0.24319 0.0243,-0.48641 v -5.55322 h 6.23157 v 6.08021 q 0,1.27684 -0.60855,2.20913 -0.60855,0.93229 -1.63091,1.54032 -1.02238,0.58775 -2.33685,0.89177 -1.31447,0.28374 -2.72631,0.28374 -1.41184,0 -2.72631,-0.28374 -1.31448,-0.30402 -2.33684,-0.89177 -1.02238,-0.60803 -1.63093,-1.54032 -0.60855,-0.93229 -0.60855,-2.20913 z m 17.13685,0 h 5.93946 l -0.19474,1.90513 h 0.19474 q 0.41381,-0.9931 1.43618,-1.56059 1.04671,-0.58775 2.31251,-0.58775 1.38749,0 2.33683,0.60802 0.94935,0.58776 1.36316,1.68219 h 0.14606 q 0.55986,-1.15524 1.46052,-1.72272 0.92499,-0.56749 2.45855,-0.56749 1.16842,0 1.99605,0.34455 0.85196,0.34455 1.38749,0.95257 0.55987,0.58774 0.80329,1.37818 0.26776,0.77015 0.26776,1.64164 v 6.68823 h -6.08551 v -5.33031 q 0,-0.24321 -0.0243,-0.48643 0,-0.26346 -0.0974,-0.46614 -0.073,-0.22294 -0.26777,-0.34454 -0.19474,-0.14187 -0.53552,-0.14187 -0.34079,0 -0.53553,0.14187 -0.17039,0.1216 -0.26776,0.34454 -0.073,0.20268 -0.0974,0.46614 0,0.24322 0,0.48643 v 5.33031 h -6.08552 v -5.33031 q 0,-0.24321 -0.0243,-0.48643 0,-0.26346 -0.0974,-0.46614 -0.073,-0.22294 -0.26776,-0.34454 -0.19473,-0.14187 -0.53552,-0.14187 -0.34079,0 -0.53552,0.14187 -0.1704,0.1216 -0.26777,0.34454 -0.073,0.20268 -0.0974,0.46614 0,0.24322 0,0.48643 v 5.33031 h -6.08551 z"
   id="text1"
   aria-label="Liga Manager Online - Forum" /></svg>
