<?xml version="1.0" encoding="UTF-8" standalone="no"?>
<!-- Generator: Adobe Illustrator 12.0.0, SVG Export Plug-In . SVG Version: 6.00 Build 51448)  -->

<svg
   version="1.1"
   id="Ebene_1"
   width="740"
   height="242"
   viewBox="0 0 740 242"
   overflow="visible"
   enable-background="new 0 0 740 242"
   xml:space="preserve"
   sodipodi:docname="20230705.svg"
   inkscape:version="1.2.2 (732a01da63, 2022-12-09)"
   xmlns:inkscape="http://www.inkscape.org/namespaces/inkscape"
   xmlns:sodipodi="http://sodipodi.sourceforge.net/DTD/sodipodi-0.dtd"
   xmlns:xlink="http://www.w3.org/1999/xlink"
   xmlns="http://www.w3.org/2000/svg"
   xmlns:svg="http://www.w3.org/2000/svg"><defs
   id="defs338"><linearGradient
     inkscape:collect="always"
     id="linearGradient2192"><stop
       style="stop-color:#003399;stop-opacity:0;"
       offset="0"
       id="stop2190" /><stop
       style="stop-color:#003399;stop-opacity:1;"
       offset="1"
       id="stop2188" /></linearGradient><linearGradient
     inkscape:collect="always"
     id="linearGradient1834"><stop
       style="stop-color:#003399;stop-opacity:0;"
       offset="0"
       id="stop1832" /><stop
       style="stop-color:#003399;stop-opacity:1;"
       offset="1"
       id="stop1830" /></linearGradient><radialGradient
     inkscape:collect="always"
     xlink:href="#linearGradient1834"
     id="radialGradient1836"
     cx="94.338982"
     cy="12.499572"
     fx="94.338982"
     fy="12.499572"
     r="98.499754"
     gradientTransform="matrix(1.0722732,0,0,0.10153262,-6.8181773,8.985123)"
     gradientUnits="userSpaceOnUse" /><radialGradient
     inkscape:collect="always"
     xlink:href="#linearGradient1834"
     id="radialGradient1857"
     cx="460.42838"
     cy="112.0354"
     fx="460.42838"
     fy="112.0354"
     r="249.802"
     gradientTransform="matrix(2.1982678,-0.01118589,0.00147175,0.28922847,-551.8814,73.533156)"
     gradientUnits="userSpaceOnUse"
     spreadMethod="reflect" /><radialGradient
     inkscape:collect="always"
     xlink:href="#linearGradient2192"
     id="radialGradient2194"
     cx="89.962685"
     cy="102.88849"
     fx="89.962685"
     fy="102.88849"
     r="98.5"
     gradientTransform="matrix(0.97857695,0.00520519,-5.4000722e-4,0.1015214,2.257437,94.704987)"
     gradientUnits="userSpaceOnUse" /></defs><sodipodi:namedview
   id="namedview336"
   pagecolor="#ffffff"
   bordercolor="#000000"
   borderopacity="0.25"
   inkscape:showpageshadow="2"
   inkscape:pageopacity="0.0"
   inkscape:pagecheckerboard="0"
   inkscape:deskcolor="#d1d1d1"
   showgrid="false"
   inkscape:zoom="0.68957521"
   inkscape:cx="537.2873"
   inkscape:cy="97.88635"
   inkscape:window-width="1080"
   inkscape:window-height="658"
   inkscape:window-x="-6"
   inkscape:window-y="-6"
   inkscape:window-maximized="1"
   inkscape:current-layer="Ebene_1" />


<path
   fill="#0099CC"
   d="M20,34c0,5.521-4.478,10-10,10C4.478,44,0,39.522,0,34c0-5.523,4.477-10,10-10C15.522,24,20,28.478,20,34"
   id="path175" />
<rect
   x="29.5"
   y="24"
   fill="#0099CC"
   width="93"
   height="20"
   id="rect177" />
<path
   fill="#0099CC"
   d="M41,34c0,5.522-4.478,10-10,10s-10-4.478-10-10s4.478-10,10-10S41,28.479,41,34"
   id="path179" />
<path
   id="path181"
   d="M 197,10.001 C 197,15.522 192.522,20 187,20 181.477,20 177,15.521 177,10.001 177,4.478 181.478,0 187,0 c 5.522,0 10,4.478 10,10.001 M 19.994,9.62 C 20.205,15.138 15.901,19.784 10.383,19.994 4.863,20.205 0.219,15.901 0.008,10.384 -0.204,4.862 4.1,0.218 9.619,0.007 15.138,-0.204 19.783,4.1 19.994,9.62 M 10,0 H 187 V 20 H 10 Z"
   style="fill:url(#radialGradient1836);fill-opacity:1" />
<path
   fill="#0099CC"
   d="M176,34c0,5.521-4.478,10-10,10c-5.523,0-10-4.478-10-10c0-5.523,4.477-10,10-10  C171.522,24,176,28.478,176,34"
   id="path183" />
<path
   fill="#0099CC"
   d="M155,34c0,5.521-4.478,10-10,10c-5.523,0-10-4.478-10-10c0-5.523,4.477-10,10-10  C150.522,24,155,28.478,155,34"
   id="path185" />
<path
   fill="#0099CC"
   d="M134,34c0,5.521-4.478,10-10,10c-5.523,0-10-4.478-10-10c0-5.523,4.477-10,10-10  C129.522,24,134,28.478,134,34"
   id="path187" />
<rect
   x="0"
   y="202"
   fill="#0099CC"
   width="740"
   height="40"
   id="rect189" />
<path
   fill="#0099CC"
   d="M197,34c0,5.521-4.478,10-10,10c-5.523,0-10-4.478-10-10c0-5.523,4.477-10,10-10  C192.522,24,197,28.478,197,34"
   id="path191" />
<path
   fill="#0099CC"
   d="M20,58c0,5.521-4.478,10-10,10C4.478,68,0,63.522,0,58c0-5.523,4.477-10,10-10C15.522,48,20,52.478,20,58"
   id="path193" />
<rect
   x="29.5"
   y="48"
   fill="#0099CC"
   width="93"
   height="20"
   id="rect195" />
<path
   fill="#0099CC"
   d="M41,58c0,5.522-4.478,10-10,10s-10-4.478-10-10s4.478-10,10-10S41,52.479,41,58"
   id="path197" />
<path
   fill="#0099CC"
   d="M176,58c0,5.521-4.478,10-10,10c-5.523,0-10-4.478-10-10c0-5.523,4.477-10,10-10  C171.522,48,176,52.478,176,58"
   id="path199" />
<path
   fill="#0099CC"
   d="M155,58c0,5.521-4.478,10-10,10c-5.523,0-10-4.478-10-10c0-5.523,4.477-10,10-10  C150.522,48,155,52.478,155,58"
   id="path201" />
<path
   fill="#0099CC"
   d="M134,58c0,5.521-4.478,10-10,10c-5.523,0-10-4.478-10-10c0-5.523,4.477-10,10-10  C129.522,48,134,52.478,134,58"
   id="path203" />
<path
   fill="#0099CC"
   d="M197,58c0,5.521-4.478,10-10,10c-5.523,0-10-4.478-10-10c0-5.523,4.477-10,10-10  C192.522,48,197,52.478,197,58"
   id="path205" />
<path
   fill="#0099CC"
   d="M20,82c0,5.521-4.478,10-10,10C4.478,92,0,87.522,0,82c0-5.523,4.477-10,10-10C15.522,72,20,76.478,20,82"
   id="path207" />
<rect
   x="29.5"
   y="72"
   fill="#0099CC"
   width="93"
   height="20"
   id="rect209" />
<path
   fill="#0099CC"
   d="M41,82c0,5.522-4.478,10-10,10s-10-4.478-10-10s4.478-10,10-10S41,76.479,41,82"
   id="path211" />
<path
   fill="#0099CC"
   d="M176,82c0,5.521-4.478,10-10,10c-5.523,0-10-4.478-10-10c0-5.523,4.477-10,10-10  C171.522,72,176,76.478,176,82"
   id="path213" />
<path
   fill="#0099CC"
   d="M155,82c0,5.521-4.478,10-10,10c-5.523,0-10-4.478-10-10c0-5.523,4.477-10,10-10  C150.522,72,155,76.478,155,82"
   id="path215" />
<path
   fill="#0099CC"
   d="M134,82c0,5.521-4.478,10-10,10c-5.523,0-10-4.478-10-10c0-5.523,4.477-10,10-10  C129.522,72,134,76.478,134,82"
   id="path217" />
<path
   fill="#0099CC"
   d="M197,82c0,5.521-4.478,10-10,10c-5.523,0-10-4.478-10-10c0-5.523,4.477-10,10-10  C192.522,72,197,76.478,197,82"
   id="path219" />






<path
   id="path233"
   d="m 197,106 c 0,5.521 -4.478,10 -10,10 -5.523,0 -10,-4.478 -10,-10 0,-5.523 4.477,-10 10,-10 5.522,0 10,4.478 10,10 m -63,0 c 0,5.521 -4.478,10 -10,10 -5.523,0 -10,-4.478 -10,-10 0,-5.523 4.477,-10 10,-10 5.522,0 10,4.478 10,10 m 21,0 c 0,5.521 -4.478,10 -10,10 -5.523,0 -10,-4.478 -10,-10 0,-5.523 4.477,-10 10,-10 5.522,0 10,4.478 10,10 m 21,0 c 0,5.521 -4.478,10 -10,10 -5.523,0 -10,-4.478 -10,-10 0,-5.523 4.477,-10 10,-10 5.522,0 10,4.478 10,10 m -135,0 c 0,5.522 -4.478,10 -10,10 -5.522,0 -10,-4.478 -10,-10 0,-5.522 4.478,-10 10,-10 5.522,0 10,4.479 10,10 M 29.5,96 h 93 v 20 h -93 z M 20,106 c 0,5.521 -4.478,10 -10,10 -5.523,0 -10,-4.478 -10,-10 0,-5.523 4.477,-10 10,-10 5.522,0 10,4.478 10,10"
   style="fill:url(#radialGradient2194);fill-opacity:1" />
<path
   fill="#0099CC"
   d="M20,130c0,5.521-4.478,10-10,10c-5.523,0-10-4.479-10-10c0-5.522,4.477-10,10-10  C15.522,120,20,124.478,20,130"
   id="path235" />
<rect
   x="29.5"
   y="120"
   fill="#0099CC"
   width="93"
   height="20"
   id="rect237" />
<path
   fill="#0099CC"
   d="M41,130c0,5.522-4.478,10-10,10s-10-4.478-10-10s4.478-10,10-10S41,124.478,41,130"
   id="path239" />
<path
   fill="#0099CC"
   d="M176,130c0,5.521-4.478,10-10,10c-5.523,0-10-4.479-10-10c0-5.522,4.477-10,10-10  C171.522,120,176,124.478,176,130"
   id="path241" />
<path
   fill="#0099CC"
   d="M155,130c0,5.521-4.478,10-10,10c-5.523,0-10-4.479-10-10c0-5.522,4.477-10,10-10  C150.522,120,155,124.478,155,130"
   id="path243" />
<path
   fill="#0099CC"
   d="M134,130c0,5.521-4.478,10-10,10c-5.523,0-10-4.479-10-10c0-5.522,4.477-10,10-10  C129.522,120,134,124.478,134,130"
   id="path245" />
<path
   fill="#0099CC"
   d="M197,130c0,5.521-4.478,10-10,10c-5.523,0-10-4.479-10-10c0-5.522,4.477-10,10-10  C192.522,120,197,124.478,197,130"
   id="path247" />
<path
   fill="#0099CC"
   d="M20,154c0,5.521-4.478,10-10,10c-5.523,0-10-4.479-10-10c0-5.522,4.477-10,10-10  C15.522,144,20,148.478,20,154"
   id="path249" />
<rect
   x="29.5"
   y="144"
   fill="#0099CC"
   width="93"
   height="20"
   id="rect251" />
<path
   fill="#0099CC"
   d="M41,154c0,5.522-4.478,10-10,10s-10-4.478-10-10s4.478-10,10-10S41,148.478,41,154"
   id="path253" />
<path
   fill="#0099CC"
   d="M176,154c0,5.521-4.478,10-10,10c-5.523,0-10-4.479-10-10c0-5.522,4.477-10,10-10  C171.522,144,176,148.478,176,154"
   id="path255" />
<path
   fill="#0099CC"
   d="M155,154c0,5.521-4.478,10-10,10c-5.523,0-10-4.479-10-10c0-5.522,4.477-10,10-10  C150.522,144,155,148.478,155,154"
   id="path257" />
<path
   fill="#0099CC"
   d="M134,154c0,5.521-4.478,10-10,10c-5.523,0-10-4.479-10-10c0-5.522,4.477-10,10-10  C129.522,144,134,148.478,134,154"
   id="path259" />
<path
   fill="#0099CC"
   d="M197,154c0,5.521-4.478,10-10,10c-5.523,0-10-4.479-10-10c0-5.522,4.477-10,10-10  C192.522,144,197,148.478,197,154"
   id="path261" />
<path
   fill="#0099CC"
   d="M20,178c0,5.521-4.478,10-10,10c-5.523,0-10-4.479-10-10c0-5.522,4.477-10,10-10  C15.522,168,20,172.478,20,178"
   id="path263" />
<rect
   x="29.5"
   y="168"
   fill="#0099CC"
   width="93"
   height="20"
   id="rect265" />
<path
   fill="#0099CC"
   d="M41,178c0,5.522-4.478,10-10,10s-10-4.478-10-10s4.478-10,10-10S41,172.478,41,178"
   id="path267" />
<path
   fill="#0099CC"
   d="M176,178c0,5.521-4.478,10-10,10c-5.523,0-10-4.479-10-10c0-5.522,4.477-10,10-10  C171.522,168,176,172.478,176,178"
   id="path269" />
<path
   fill="#0099CC"
   d="M155,178c0,5.521-4.478,10-10,10c-5.523,0-10-4.479-10-10c0-5.522,4.477-10,10-10  C150.522,168,155,172.478,155,178"
   id="path271" />
<path
   fill="#0099CC"
   d="M134,178c0,5.521-4.478,10-10,10c-5.523,0-10-4.479-10-10c0-5.522,4.477-10,10-10  C129.522,168,134,172.478,134,178"
   id="path273" />
<path
   fill="#0099CC"
   d="M197,178c0,5.521-4.478,10-10,10c-5.523,0-10-4.479-10-10c0-5.522,4.477-10,10-10  C192.522,168,197,172.478,197,178"
   id="path275" />
<g
   id="g283">
	
	
	<path
   id="path281"
   d="m 558.868,94.484 c 0,-14.338 2.366,-27.306 7.102,-38.905 C 570.706,43.98 577.126,34.074 585.236,25.857 593.344,17.64 602.85,11.277 613.757,6.766 624.662,2.256 636.285,0 648.625,0 c 12.34,0 23.963,2.256 34.869,6.766 10.906,4.512 20.411,10.875 28.52,19.091 8.109,8.216 14.529,18.124 19.266,29.722 4.735,11.599 7.104,24.566 7.104,38.905 0,14.659 -2.367,27.75 -7.104,39.267 -4.735,11.518 -11.156,21.307 -19.266,29.359 -8.107,8.057 -17.612,14.217 -28.52,18.485 -10.906,4.27 -22.529,6.403 -34.869,6.403 -12.34,0 -23.963,-2.135 -34.869,-6.403 -10.906,-4.27 -20.413,-10.43 -28.521,-18.485 -8.108,-8.055 -14.528,-17.842 -19.266,-29.359 -4.735,-11.519 -7.101,-24.607 -7.101,-39.267 z m 59.4,0.954 c 0,5.322 0.718,10.12 2.153,14.393 1.436,4.272 3.518,7.942 6.243,11.006 2.725,3.064 5.957,5.443 9.688,7.136 3.73,1.692 7.822,2.539 12.272,2.539 4.592,0 8.719,-0.847 12.379,-2.539 3.66,-1.692 6.854,-4.072 9.58,-7.136 2.726,-3.065 4.809,-6.734 6.245,-11.006 1.435,-4.273 2.153,-9.07 2.153,-14.393 0,-4.837 -0.72,-9.394 -2.153,-13.668 -1.438,-4.272 -3.445,-8.063 -6.028,-11.369 -2.584,-3.305 -5.742,-5.886 -9.474,-7.74 -3.73,-1.854 -7.966,-2.783 -12.702,-2.783 -4.737,0 -8.973,0.928 -12.704,2.783 -3.73,1.854 -6.89,4.435 -9.472,7.74 -2.585,3.306 -4.595,7.097 -6.028,11.369 -1.436,4.274 -2.152,8.832 -2.152,13.668 z M 374.006,0 h 62.612 l 23.09,98.711 h 1.554 c 0.592,-4.153 1.184,-8.35 1.776,-12.588 0.591,-4.238 1.406,-8.35 2.442,-12.339 L 484.354,0 h 61.943 l 27.532,188 H 514.992 L 507,85.063 h -1.333 c -0.296,3.159 -0.814,6.316 -1.554,9.471 -0.74,3.157 -1.556,6.231 -2.442,9.223 L 477.47,188 h -35.523 l -21.758,-79.508 c -1.037,-3.822 -1.853,-7.684 -2.443,-11.59 -0.593,-3.904 -1.036,-7.851 -1.33,-11.838 h -2 c -0.297,3.821 -0.555,7.603 -0.776,11.341 -0.224,3.739 -0.48,7.518 -0.775,11.34 L 405.756,188 H 346.92 Z M 238.78,188 V 0 h 60.776 V 127.716 H 350.62 V 188 Z"
   style="fill:url(#radialGradient1857);fill-opacity:1" />
</g>
<g
   enable-background="new    "
   id="g331">
	<path
   fill="#FFFFFF"
   d="M41.34,233.189v-22.625h10.688v15.375h8.97v7.25H41.34z"
   id="path285" />
	<path
   fill="#FFFFFF"
   d="M63.64,212.347c0-1.16,0.526-2.07,1.578-2.73c1.052-0.659,2.37-0.989,3.954-0.989s2.902,0.33,3.954,0.989   c1.052,0.66,1.578,1.57,1.578,2.73c0,0.66-0.156,1.225-0.468,1.694s-0.721,0.855-1.227,1.155s-1.09,0.525-1.752,0.675   s-1.357,0.225-2.084,0.225c-0.728,0-1.422-0.075-2.084-0.225s-1.247-0.375-1.753-0.675s-0.916-0.686-1.227-1.155   S63.64,213.007,63.64,212.347z M74.202,217.252v15.938H64.14v-15.938H74.202z"
   id="path287" />
	<path
   fill="#FFFFFF"
   d="M87.034,216.908c1.329,0,2.501,0.228,3.518,0.683c1.016,0.454,1.863,1.102,2.541,1.941h0.273l-0.273-2.28   h9.742v15.013c0,1.561-0.384,2.893-1.152,3.993c-0.768,1.101-1.79,2.001-3.065,2.702s-2.753,1.217-4.432,1.547   c-1.679,0.33-3.417,0.495-5.213,0.495c-1.64,0-3.157-0.11-4.549-0.33s-2.843-0.53-4.352-0.931l-1.014-0.27l2.223-5.371   c0.963,0.645,2.114,1.133,3.455,1.466c1.34,0.331,2.609,0.498,3.806,0.498c1.379,0,2.459-0.331,3.24-0.993   c0.78-0.664,1.236-1.506,1.366-2.527l0.195-1.619h-0.273c-0.26,0.439-0.611,0.824-1.054,1.154s-0.937,0.605-1.483,0.826   c-0.546,0.219-1.125,0.384-1.736,0.494c-0.611,0.109-1.216,0.165-1.814,0.165c-1.405,0-2.66-0.251-3.766-0.75   c-1.105-0.5-2.042-1.146-2.81-1.937c-0.768-0.789-1.346-1.686-1.736-2.686c-0.391-1-0.585-1.99-0.585-2.971   c0-1,0.195-1.99,0.586-2.971s0.971-1.871,1.739-2.672c0.769-0.8,1.707-1.445,2.814-1.936S85.601,216.908,87.034,216.908z    M90.881,227.502c0.862,0,1.501-0.222,1.919-0.665s0.627-0.967,0.627-1.57c0-0.605-0.229-1.144-0.686-1.617   c-0.457-0.473-1.104-0.71-1.939-0.71c-0.81,0-1.476,0.222-1.998,0.665s-0.783,0.986-0.783,1.631s0.254,1.184,0.764,1.617   S89.993,227.502,90.881,227.502z"
   id="path289" />
	<path
   fill="#FFFFFF"
   d="M106.21,225.312c0-1,0.195-2,0.584-3.001s0.968-1.901,1.735-2.701s1.708-1.45,2.826-1.95   c1.117-0.5,2.404-0.751,3.859-0.751c1.247,0,2.378,0.178,3.392,0.532s1.897,0.922,2.651,1.701h0.234l-0.312-1.89h9.875v15.938   h-9.875l0.312-2.086h-0.227c-0.91,0.74-1.833,1.335-2.77,1.786c-0.936,0.449-2.119,0.675-3.549,0.675   c-1.404,0-2.652-0.251-3.744-0.75c-1.092-0.5-2.009-1.146-2.75-1.937c-0.741-0.789-1.3-1.675-1.677-2.655   S106.21,226.272,106.21,225.312z M116.179,225.146c0,0.645,0.208,1.198,0.625,1.662c0.417,0.463,1.081,0.694,1.992,0.694   c0.963,0,1.653-0.247,2.07-0.74c0.417-0.493,0.625-1.052,0.625-1.677s-0.248-1.139-0.742-1.541   c-0.495-0.402-1.146-0.604-1.953-0.604c-0.808,0-1.445,0.222-1.914,0.665S116.179,224.562,116.179,225.146z"
   id="path291" />
	<path
   fill="#FFFFFF"
   d="M155.23,210.564h10.998l4.056,11.88h0.273c0.104-0.5,0.208-1.005,0.312-1.515s0.247-1.005,0.429-1.485   l3.315-8.88h10.881l4.836,22.625h-10.335l-1.404-12.406h-0.234c-0.052,0.381-0.144,0.761-0.273,1.142s-0.273,0.751-0.429,1.111   l-4.251,10.153h-6.24l-3.822-9.583c-0.182-0.46-0.325-0.926-0.429-1.396s-0.182-0.946-0.234-1.427h-0.351   c-0.052,0.461-0.098,0.917-0.137,1.366c-0.039,0.451-0.084,0.906-0.136,1.367l-1.248,9.673h-10.335L155.23,210.564z"
   id="path293" />
	<path
   fill="#FFFFFF"
   d="M192.75,225.312c0-1,0.195-2,0.584-3.001s0.968-1.901,1.735-2.701s1.708-1.45,2.826-1.95   c1.117-0.5,2.404-0.751,3.859-0.751c1.247,0,2.378,0.178,3.392,0.532s1.897,0.922,2.651,1.701h0.234l-0.312-1.89h9.875v15.938   h-9.875l0.312-2.086h-0.227c-0.91,0.74-1.833,1.335-2.77,1.786c-0.936,0.449-2.119,0.675-3.549,0.675   c-1.404,0-2.652-0.251-3.744-0.75c-1.092-0.5-2.009-1.146-2.75-1.937c-0.741-0.789-1.3-1.675-1.677-2.655   S192.75,226.272,192.75,225.312z M202.719,225.146c0,0.645,0.208,1.198,0.625,1.662c0.417,0.463,1.081,0.694,1.992,0.694   c0.963,0,1.653-0.247,2.07-0.74c0.417-0.493,0.625-1.052,0.625-1.677s-0.248-1.139-0.742-1.541   c-0.495-0.402-1.146-0.604-1.953-0.604c-0.808,0-1.445,0.222-1.914,0.665S202.719,224.562,202.719,225.146z"
   id="path295" />
	<path
   fill="#FFFFFF"
   d="M221.517,217.252h9.844l-0.39,2.571h0.234c0.494-0.44,0.968-0.842,1.423-1.202s0.936-0.666,1.443-0.917   c0.507-0.25,1.065-0.445,1.677-0.586c0.611-0.14,1.319-0.21,2.125-0.21c1.3,0,2.398,0.175,3.295,0.524s1.638,0.82,2.223,1.41   s1.007,1.273,1.267,2.053c0.26,0.78,0.39,1.609,0.39,2.489v9.805h-10.063v-7.755c0-0.238-0.007-0.488-0.02-0.748   c-0.013-0.26-0.079-0.498-0.196-0.719c-0.118-0.219-0.288-0.404-0.509-0.554s-0.555-0.225-0.998-0.225   c-0.418,0-0.738,0.065-0.959,0.194c-0.222,0.131-0.385,0.3-0.489,0.51c-0.104,0.209-0.17,0.439-0.196,0.688   c-0.026,0.249-0.039,0.494-0.039,0.733v7.874h-10.063V217.252z"
   id="path297" />
	<path
   fill="#FFFFFF"
   d="M248.246,225.312c0-1,0.195-2,0.584-3.001s0.968-1.901,1.735-2.701s1.708-1.45,2.826-1.95   c1.117-0.5,2.404-0.751,3.859-0.751c1.247,0,2.378,0.178,3.392,0.532s1.897,0.922,2.651,1.701h0.234l-0.312-1.89h9.875v15.938   h-9.875l0.312-2.086h-0.227c-0.91,0.74-1.833,1.335-2.77,1.786c-0.936,0.449-2.119,0.675-3.549,0.675   c-1.404,0-2.652-0.251-3.744-0.75c-1.092-0.5-2.009-1.146-2.75-1.937c-0.741-0.789-1.3-1.675-1.677-2.655   S248.246,226.272,248.246,225.312z M258.215,225.146c0,0.645,0.208,1.198,0.625,1.662c0.417,0.463,1.081,0.694,1.992,0.694   c0.963,0,1.653-0.247,2.07-0.74c0.417-0.493,0.625-1.052,0.625-1.677s-0.248-1.139-0.742-1.541   c-0.495-0.402-1.146-0.604-1.953-0.604c-0.808,0-1.445,0.222-1.914,0.665S258.215,224.562,258.215,225.146z"
   id="path299" />
	<path
   fill="#FFFFFF"
   d="M285.307,216.908c1.329,0,2.501,0.228,3.518,0.683c1.016,0.454,1.863,1.102,2.541,1.941h0.273l-0.273-2.28   h9.742v15.013c0,1.561-0.384,2.893-1.152,3.993c-0.768,1.101-1.79,2.001-3.065,2.702s-2.753,1.217-4.432,1.547   c-1.679,0.33-3.417,0.495-5.213,0.495c-1.64,0-3.157-0.11-4.549-0.33s-2.843-0.53-4.352-0.931l-1.014-0.27l2.223-5.371   c0.963,0.645,2.114,1.133,3.455,1.466c1.34,0.331,2.609,0.498,3.806,0.498c1.379,0,2.459-0.331,3.24-0.993   c0.78-0.664,1.236-1.506,1.366-2.527l0.195-1.619h-0.273c-0.26,0.439-0.611,0.824-1.054,1.154s-0.937,0.605-1.483,0.826   c-0.546,0.219-1.125,0.384-1.736,0.494c-0.611,0.109-1.216,0.165-1.814,0.165c-1.405,0-2.66-0.251-3.766-0.75   c-1.105-0.5-2.042-1.146-2.81-1.937c-0.768-0.789-1.346-1.686-1.736-2.686c-0.391-1-0.585-1.99-0.585-2.971   c0-1,0.195-1.99,0.586-2.971s0.971-1.871,1.739-2.672c0.769-0.8,1.707-1.445,2.814-1.936S283.874,216.908,285.307,216.908z    M289.154,227.502c0.862,0,1.501-0.222,1.919-0.665s0.627-0.967,0.627-1.57c0-0.605-0.229-1.144-0.686-1.617   c-0.457-0.473-1.104-0.71-1.939-0.71c-0.81,0-1.476,0.222-1.998,0.665s-0.783,0.986-0.783,1.631s0.254,1.184,0.764,1.617   S288.266,227.502,289.154,227.502z"
   id="path301" />
	<path
   fill="#FFFFFF"
   d="M304.545,225.491c0-1.32,0.312-2.51,0.937-3.57c0.624-1.061,1.47-1.961,2.537-2.701   c1.066-0.74,2.329-1.311,3.786-1.711s3.005-0.601,4.644-0.601c1.769,0,3.428,0.2,4.976,0.6s2.895,0.985,4.039,1.755   s2.049,1.703,2.712,2.803c0.663,1.1,0.995,2.35,0.995,3.748c0,0.12,0,0.24,0,0.36s-0.011,0.239-0.031,0.359h-14.656   c0,0.322,0.026,0.649,0.078,0.982c0.052,0.333,0.163,0.63,0.332,0.892c0.169,0.262,0.41,0.473,0.723,0.635   c0.313,0.16,0.729,0.241,1.25,0.241c0.521,0,0.963-0.127,1.328-0.382c0.365-0.254,0.599-0.575,0.704-0.962h9.805   c-0.338,0.963-0.911,1.795-1.717,2.497c-0.807,0.701-1.75,1.288-2.829,1.76c-1.08,0.471-2.238,0.816-3.474,1.037   s-2.452,0.331-3.649,0.331c-1.639,0-3.207-0.165-4.703-0.495s-2.823-0.825-3.981-1.485s-2.081-1.495-2.771-2.507   C304.89,228.067,304.545,226.872,304.545,225.491z M314.483,223.221h4.75c0-0.538-0.229-1.017-0.687-1.435   s-1.054-0.628-1.786-0.628c-0.759,0-1.328,0.204-1.708,0.612C314.672,222.18,314.483,222.663,314.483,223.221z"
   id="path303" />
	<path
   fill="#FFFFFF"
   d="M332.361,217.252h10.063l-0.234,2.156h0.234c0.416-0.481,0.838-0.884,1.267-1.204   c0.429-0.322,0.897-0.578,1.404-0.769s1.06-0.327,1.658-0.407s1.261-0.12,1.989-0.12h0.702v7.856   c-0.521-0.236-1.001-0.438-1.443-0.605c-0.442-0.167-0.988-0.251-1.638-0.251c-1.3,0-2.282,0.274-2.945,0.823   s-0.994,1.332-0.994,2.351v6.107h-10.063V217.252z"
   id="path305" />
	<path
   fill="#FFFFFF"
   d="M367.358,221.952c0-1.779,0.428-3.39,1.286-4.83s2.02-2.67,3.488-3.691c1.468-1.02,3.188-1.81,5.163-2.369   c1.975-0.561,4.079-0.841,6.313-0.841s4.339,0.28,6.313,0.841c1.974,0.56,3.695,1.35,5.162,2.369   c1.469,1.021,2.631,2.251,3.488,3.691s1.286,3.051,1.286,4.83c0,1.82-0.429,3.446-1.286,4.877c-0.857,1.43-2.02,2.645-3.488,3.645   c-1.467,1-3.188,1.766-5.162,2.296c-1.975,0.53-4.079,0.795-6.313,0.795s-4.339-0.265-6.313-0.795s-3.695-1.296-5.163-2.296   s-2.63-2.215-3.488-3.645C367.787,225.398,367.358,223.772,367.358,221.952z M378.108,222.079c0,0.662,0.13,1.258,0.39,1.789   s0.637,0.988,1.131,1.369s1.08,0.676,1.756,0.887s1.418,0.315,2.224,0.315c0.832,0,1.579-0.104,2.243-0.315   c0.662-0.211,1.241-0.506,1.735-0.887s0.871-0.838,1.132-1.369c0.26-0.531,0.39-1.127,0.39-1.789c0-0.602-0.13-1.168-0.39-1.699   c-0.261-0.531-0.625-1.002-1.093-1.413s-1.04-0.731-1.716-0.962c-0.677-0.23-1.443-0.347-2.302-0.347s-1.626,0.116-2.302,0.347   s-1.248,0.551-1.716,0.962s-0.833,0.882-1.093,1.413S378.108,221.478,378.108,222.079z"
   id="path307" />
	<path
   fill="#FFFFFF"
   d="M403.177,217.252h9.844l-0.39,2.571h0.233c0.493-0.44,0.968-0.842,1.423-1.202s0.937-0.666,1.443-0.917   c0.507-0.25,1.065-0.445,1.677-0.586c0.61-0.14,1.319-0.21,2.126-0.21c1.299,0,2.397,0.175,3.295,0.524   c0.896,0.35,1.638,0.82,2.223,1.41s1.008,1.273,1.268,2.053c0.26,0.78,0.39,1.609,0.39,2.489v9.805h-10.063v-7.755   c0-0.238-0.007-0.488-0.02-0.748s-0.079-0.498-0.196-0.719c-0.117-0.219-0.287-0.404-0.509-0.554s-0.555-0.225-0.998-0.225   c-0.418,0-0.737,0.065-0.96,0.194c-0.221,0.131-0.385,0.3-0.488,0.51c-0.105,0.209-0.17,0.439-0.196,0.688   s-0.039,0.494-0.039,0.733v7.874h-10.063V217.252z"
   id="path309" />
	<path
   fill="#FFFFFF"
   d="M430.875,233.189v-24.344h10.063v24.344H430.875z"
   id="path311" />
	<path
   fill="#FFFFFF"
   d="M445.365,212.347c0-1.16,0.526-2.07,1.578-2.73c1.052-0.659,2.369-0.989,3.953-0.989   s2.902,0.33,3.954,0.989c1.052,0.66,1.577,1.57,1.577,2.73c0,0.66-0.156,1.225-0.467,1.694c-0.313,0.47-0.721,0.855-1.228,1.155   s-1.091,0.525-1.753,0.675s-1.356,0.225-2.084,0.225c-0.727,0-1.422-0.075-2.084-0.225s-1.246-0.375-1.752-0.675   c-0.507-0.3-0.916-0.686-1.228-1.155S445.365,213.007,445.365,212.347z M455.928,217.252v15.938h-10.063v-15.938H455.928z"
   id="path313" />
	<path
   fill="#FFFFFF"
   d="M460.467,217.252h9.844l-0.391,2.571h0.234c0.493-0.44,0.968-0.842,1.423-1.202s0.937-0.666,1.442-0.917   c0.508-0.25,1.066-0.445,1.678-0.586c0.61-0.14,1.318-0.21,2.125-0.21c1.3,0,2.398,0.175,3.295,0.524s1.639,0.82,2.223,1.41   c0.586,0.59,1.008,1.273,1.268,2.053c0.26,0.78,0.391,1.609,0.391,2.489v9.805h-10.063v-7.755c0-0.238-0.008-0.488-0.02-0.748   c-0.014-0.26-0.079-0.498-0.196-0.719c-0.118-0.219-0.288-0.404-0.509-0.554c-0.223-0.149-0.555-0.225-0.998-0.225   c-0.418,0-0.738,0.065-0.96,0.194c-0.222,0.131-0.385,0.3-0.489,0.51c-0.104,0.209-0.17,0.439-0.195,0.688   c-0.027,0.249-0.039,0.494-0.039,0.733v7.874h-10.063V217.252z"
   id="path315" />
	<path
   fill="#FFFFFF"
   d="M487.258,225.491c0-1.32,0.313-2.51,0.937-3.57s1.47-1.961,2.536-2.701s2.329-1.311,3.786-1.711   s3.005-0.601,4.644-0.601c1.77,0,3.428,0.2,4.977,0.6c1.547,0.399,2.895,0.985,4.039,1.755s2.049,1.703,2.712,2.803   s0.995,2.35,0.995,3.748c0,0.12,0,0.24,0,0.36s-0.011,0.239-0.031,0.359h-14.656c0,0.322,0.025,0.649,0.078,0.982   c0.052,0.333,0.162,0.63,0.332,0.892c0.169,0.262,0.41,0.473,0.723,0.635c0.313,0.16,0.729,0.241,1.25,0.241   c0.521,0,0.963-0.127,1.328-0.382c0.365-0.254,0.6-0.575,0.703-0.962h9.806c-0.339,0.963-0.911,1.795-1.718,2.497   c-0.807,0.701-1.749,1.288-2.828,1.76c-1.08,0.471-2.238,0.816-3.475,1.037c-1.235,0.221-2.451,0.331-3.648,0.331   c-1.639,0-3.207-0.165-4.703-0.495s-2.822-0.825-3.98-1.485s-2.081-1.495-2.771-2.507   C487.603,228.067,487.258,226.872,487.258,225.491z M497.195,223.221h4.75c0-0.538-0.229-1.017-0.688-1.435   c-0.457-0.418-1.053-0.628-1.785-0.628c-0.76,0-1.328,0.204-1.708,0.612C497.385,222.18,497.195,222.663,497.195,223.221z"
   id="path317" />
	<path
   fill="#FFFFFF"
   d="M531.891,228.252v-6.594h13.938v6.594H531.891z"
   id="path319" />
	<path
   fill="#FFFFFF"
   d="M586.647,210.564v6.469h-8.931v2.344h7.839v5.875h-7.839v7.938h-10.75v-22.625H586.647z"
   id="path321" />
	<path
   fill="#FFFFFF"
   d="M588.68,225.432c0-1.4,0.337-2.631,1.013-3.691s1.585-1.95,2.729-2.671c1.143-0.721,2.474-1.26,3.993-1.621   c1.52-0.359,3.124-0.54,4.813-0.54s3.292,0.181,4.812,0.54c1.52,0.361,2.852,0.9,3.994,1.621s2.053,1.61,2.729,2.671   c0.675,1.061,1.013,2.291,1.013,3.691c0,1.32-0.351,2.485-1.052,3.496s-1.637,1.86-2.806,2.552   c-1.169,0.689-2.507,1.21-4.014,1.561c-1.507,0.35-3.065,0.524-4.676,0.524s-3.169-0.175-4.677-0.524   c-1.506-0.351-2.844-0.871-4.013-1.561c-1.169-0.691-2.104-1.541-2.806-2.552S588.68,226.752,588.68,225.432z M598.43,225.312   c0,0.641,0.271,1.165,0.815,1.575s1.204,0.615,1.981,0.615c0.776,0,1.437-0.205,1.981-0.615c0.543-0.41,0.815-0.935,0.815-1.575   s-0.259-1.19-0.776-1.65c-0.519-0.46-1.191-0.69-2.021-0.69s-1.503,0.23-2.021,0.69S598.43,224.671,598.43,225.312z"
   id="path323" />
	<path
   fill="#FFFFFF"
   d="M617.057,217.252h10.063l-0.234,2.156h0.234c0.416-0.481,0.839-0.884,1.267-1.204   c0.43-0.322,0.897-0.578,1.404-0.769s1.06-0.327,1.658-0.407c0.598-0.08,1.261-0.12,1.988-0.12h0.703v7.856   c-0.521-0.236-1.002-0.438-1.443-0.605c-0.442-0.167-0.988-0.251-1.639-0.251c-1.3,0-2.281,0.274-2.944,0.823   s-0.994,1.332-0.994,2.351v6.107h-10.063V217.252z"
   id="path325" />
	<path
   fill="#FFFFFF"
   d="M636.361,217.252h9.969v8.233c0,0.24,0.013,0.476,0.039,0.706s0.098,0.436,0.215,0.616   c0.117,0.18,0.286,0.325,0.508,0.436s0.54,0.165,0.957,0.165s0.735-0.055,0.957-0.165s0.391-0.256,0.508-0.436   c0.117-0.181,0.188-0.386,0.215-0.616s0.039-0.466,0.039-0.706v-8.233h9.969v9.013c0,1.262-0.325,2.354-0.974,3.274   c-0.65,0.921-1.52,1.677-2.61,2.269c-1.091,0.59-2.338,1.031-3.74,1.321s-2.856,0.436-4.363,0.436s-2.962-0.146-4.364-0.436   s-2.648-0.731-3.739-1.321c-1.091-0.592-1.961-1.348-2.61-2.269s-0.974-2.013-0.974-3.274V217.252z"
   id="path327" />
	<path
   fill="#FFFFFF"
   d="M663.81,217.252h9.516l-0.313,2.844h0.313c0.443-0.982,1.219-1.759,2.327-2.331   c1.108-0.57,2.34-0.856,3.696-0.856c1.485,0,2.736,0.296,3.754,0.89c1.017,0.592,1.746,1.432,2.189,2.517l0.235-0.011   c0.599-1.141,1.385-1.992,2.36-2.554c0.975-0.562,2.281-0.842,3.92-0.842c1.248,0,2.321,0.17,3.219,0.51   c0.896,0.34,1.639,0.805,2.223,1.395c0.586,0.59,1.015,1.269,1.288,2.038c0.272,0.77,0.409,1.585,0.409,2.444v9.895h-9.75v-7.874   c0-0.239-0.006-0.484-0.02-0.733c-0.013-0.249-0.064-0.479-0.156-0.688c-0.092-0.21-0.242-0.379-0.451-0.51   c-0.209-0.129-0.496-0.194-0.861-0.194s-0.646,0.065-0.842,0.194c-0.195,0.131-0.34,0.3-0.431,0.51   c-0.092,0.209-0.144,0.439-0.157,0.688c-0.013,0.249-0.02,0.494-0.02,0.733v7.874h-9.75v-7.874c0-0.239-0.006-0.484-0.02-0.733   c-0.013-0.249-0.064-0.479-0.156-0.688c-0.092-0.21-0.242-0.379-0.451-0.51c-0.209-0.129-0.496-0.194-0.861-0.194   s-0.646,0.065-0.842,0.194c-0.195,0.131-0.34,0.3-0.431,0.51c-0.092,0.209-0.144,0.439-0.157,0.688   c-0.013,0.249-0.02,0.494-0.02,0.733v7.874h-9.762V217.252z"
   id="path329" />
</g>
<path
   fill="#FFFFFF"
   stroke="#000000"
   stroke-width="2"
   d="M286.594,118.605l-94.28-16.258c-4.921-0.849-8.188,4.943-4.921,8.718  l62.651,72.302c3.2,3.69,9.263,1.479,9.333-3.4l0.35-24.501l44.239,24.967c3.904,2.205,8.855,0.821,11.063-3.08  c2.204-3.906,0.825-8.861-3.08-11.065l-44.243-24.963l20.799-12.972C292.646,125.769,291.405,119.436,286.594,118.605"
   id="path333" />
</svg>
