<?xml version="1.0" encoding="UTF-8" standalone="no"?>
<!-- Generator: Adobe Illustrator 12.0.0, SVG Export Plug-In . SVG Version: 6.00 Build 51448)  -->

<svg
   version="1.1"
   id="Ebene_1"
   width="740"
   height="242.00044"
   viewBox="0 0 740 242.00044"
   overflow="visible"
   enable-background="new 0 0 740 242"
   xml:space="preserve"
   sodipodi:docname="logo.svg"
   inkscape:version="1.2.2 (732a01da63, 2022-12-09)"
   xmlns:inkscape="http://www.inkscape.org/namespaces/inkscape"
   xmlns:sodipodi="http://sodipodi.sourceforge.net/DTD/sodipodi-0.dtd"
   xmlns:xlink="http://www.w3.org/1999/xlink"
   xmlns="http://www.w3.org/2000/svg"
   xmlns:svg="http://www.w3.org/2000/svg"><defs
   id="defs338"><linearGradient
     inkscape:collect="always"
     id="linearGradient2192"><stop
       style="stop-color:#003399;stop-opacity:0;"
       offset="0"
       id="stop2190" /><stop
       style="stop-color:#003399;stop-opacity:1;"
       offset="1"
       id="stop2188" /></linearGradient><linearGradient
     inkscape:collect="always"
     id="linearGradient1834"><stop
       style="stop-color:#003399;stop-opacity:0;"
       offset="0"
       id="stop1832" /><stop
       style="stop-color:#003399;stop-opacity:1;"
       offset="1"
       id="stop1830" /></linearGradient><radialGradient
     inkscape:collect="always"
     xlink:href="#linearGradient1834"
     id="radialGradient1836"
     cx="94.338982"
     cy="12.499572"
     fx="94.338982"
     fy="12.499572"
     r="98.499756"
     gradientTransform="matrix(1.0722732,0,0,0.10153262,-6.8181773,8.9855612)"
     gradientUnits="userSpaceOnUse" /><radialGradient
     inkscape:collect="always"
     xlink:href="#linearGradient1834"
     id="radialGradient1857"
     cx="460.42838"
     cy="112.0354"
     fx="460.42838"
     fy="112.0354"
     r="249.802"
     gradientTransform="matrix(2.1982678,-0.01118589,0.00147175,0.28922847,-551.8814,73.533156)"
     gradientUnits="userSpaceOnUse"
     spreadMethod="reflect" /><radialGradient
     inkscape:collect="always"
     xlink:href="#linearGradient2192"
     id="radialGradient2194"
     cx="89.962685"
     cy="102.88849"
     fx="89.962685"
     fy="102.88849"
     r="98.5"
     gradientTransform="matrix(0.97857695,0.00520519,-5.4000722e-4,0.1015214,2.257437,94.705425)"
     gradientUnits="userSpaceOnUse" /></defs><sodipodi:namedview
   id="namedview336"
   pagecolor="#ffffff"
   bordercolor="#000000"
   borderopacity="0.25"
   inkscape:showpageshadow="2"
   inkscape:pageopacity="0.0"
   inkscape:pagecheckerboard="0"
   inkscape:deskcolor="#d1d1d1"
   showgrid="false"
   inkscape:zoom="0.68957521"
   inkscape:cx="537.2873"
   inkscape:cy="97.88635"
   inkscape:window-width="1080"
   inkscape:window-height="658"
   inkscape:window-x="-6"
   inkscape:window-y="-6"
   inkscape:window-maximized="1"
   inkscape:current-layer="Ebene_1" />&#10;&#10;&#10;<path
   fill="#0099cc"
   d="m 20,34.000438 c 0,5.521 -4.478,10 -10,10 -5.522,0 -10,-4.478 -10,-10 0,-5.523 4.477,-10 10,-10 5.522,0 10,4.478 10,10"
   id="path175" />&#10;<rect
   x="29.5"
   y="24.000439"
   fill="#0099cc"
   width="93"
   height="20"
   id="rect177" />&#10;<path
   fill="#0099cc"
   d="m 41,34.000438 c 0,5.522 -4.478,10 -10,10 -5.522,0 -10,-4.478 -10,-10 0,-5.522 4.478,-10 10,-10 5.522,0 10,4.479 10,10"
   id="path179" />&#10;<path
   id="path181"
   d="m 197,10.001438 c 0,5.521 -4.478,9.999 -10,9.999 -5.523,0 -10,-4.479 -10,-9.999 0,-5.5229998 4.478,-10.00099984792 10,-10.00099984792 5.522,0 10,4.47800004792 10,10.00099984792 M 19.994,9.6204382 c 0.211,5.5179998 -4.093,10.1639998 -9.611,10.3739998 -5.52,0.211 -10.164,-4.093 -10.375,-9.61 C -0.204,4.8624382 4.1,0.21843815 9.619,0.00743815 c 5.519,-0.211 10.164,4.09300005 10.375,9.61300005 M 10,4.3815208e-4 H 187 V 20.000438 H 10 Z"
   style="fill:url(#radialGradient1836);fill-opacity:1" />&#10;<path
   fill="#0099cc"
   d="m 176,34.000438 c 0,5.521 -4.478,10 -10,10 -5.523,0 -10,-4.478 -10,-10 0,-5.523 4.477,-10 10,-10 5.522,0 10,4.478 10,10"
   id="path183" />&#10;<path
   fill="#0099cc"
   d="m 155,34.000438 c 0,5.521 -4.478,10 -10,10 -5.523,0 -10,-4.478 -10,-10 0,-5.523 4.477,-10 10,-10 5.522,0 10,4.478 10,10"
   id="path185" />&#10;<path
   fill="#0099cc"
   d="m 134,34.000438 c 0,5.521 -4.478,10 -10,10 -5.523,0 -10,-4.478 -10,-10 0,-5.523 4.477,-10 10,-10 5.522,0 10,4.478 10,10"
   id="path187" />&#10;<rect
   x="0"
   y="202.00044"
   fill="#0099cc"
   width="740"
   height="40"
   id="rect189" />&#10;<path
   fill="#0099cc"
   d="m 197,34.000438 c 0,5.521 -4.478,10 -10,10 -5.523,0 -10,-4.478 -10,-10 0,-5.523 4.477,-10 10,-10 5.522,0 10,4.478 10,10"
   id="path191" />&#10;<path
   fill="#0099cc"
   d="m 20,58.000438 c 0,5.521 -4.478,10 -10,10 -5.522,0 -10,-4.478 -10,-10 0,-5.523 4.477,-10 10,-10 5.522,0 10,4.478 10,10"
   id="path193" />&#10;<rect
   x="29.5"
   y="48.000439"
   fill="#0099cc"
   width="93"
   height="20"
   id="rect195" />&#10;<path
   fill="#0099cc"
   d="m 41,58.000438 c 0,5.522 -4.478,10 -10,10 -5.522,0 -10,-4.478 -10,-10 0,-5.522 4.478,-10 10,-10 5.522,0 10,4.479 10,10"
   id="path197" />&#10;<path
   fill="#0099cc"
   d="m 176,58.000438 c 0,5.521 -4.478,10 -10,10 -5.523,0 -10,-4.478 -10,-10 0,-5.523 4.477,-10 10,-10 5.522,0 10,4.478 10,10"
   id="path199" />&#10;<path
   fill="#0099cc"
   d="m 155,58.000438 c 0,5.521 -4.478,10 -10,10 -5.523,0 -10,-4.478 -10,-10 0,-5.523 4.477,-10 10,-10 5.522,0 10,4.478 10,10"
   id="path201" />&#10;<path
   fill="#0099cc"
   d="m 134,58.000438 c 0,5.521 -4.478,10 -10,10 -5.523,0 -10,-4.478 -10,-10 0,-5.523 4.477,-10 10,-10 5.522,0 10,4.478 10,10"
   id="path203" />&#10;<path
   fill="#0099cc"
   d="m 197,58.000438 c 0,5.521 -4.478,10 -10,10 -5.523,0 -10,-4.478 -10,-10 0,-5.523 4.477,-10 10,-10 5.522,0 10,4.478 10,10"
   id="path205" />&#10;<path
   fill="#0099cc"
   d="m 20,82.000438 c 0,5.521 -4.478,10 -10,10 -5.522,0 -10,-4.478 -10,-10 0,-5.523 4.477,-10 10,-10 5.522,0 10,4.478 10,10"
   id="path207" />&#10;<rect
   x="29.5"
   y="72.000435"
   fill="#0099cc"
   width="93"
   height="20"
   id="rect209" />&#10;<path
   fill="#0099cc"
   d="m 41,82.000438 c 0,5.522 -4.478,10 -10,10 -5.522,0 -10,-4.478 -10,-10 0,-5.522 4.478,-10 10,-10 5.522,0 10,4.479 10,10"
   id="path211" />&#10;<path
   fill="#0099cc"
   d="m 176,82.000438 c 0,5.521 -4.478,10 -10,10 -5.523,0 -10,-4.478 -10,-10 0,-5.523 4.477,-10 10,-10 5.522,0 10,4.478 10,10"
   id="path213" />&#10;<path
   fill="#0099cc"
   d="m 155,82.000438 c 0,5.521 -4.478,10 -10,10 -5.523,0 -10,-4.478 -10,-10 0,-5.523 4.477,-10 10,-10 5.522,0 10,4.478 10,10"
   id="path215" />&#10;<path
   fill="#0099cc"
   d="m 134,82.000438 c 0,5.521 -4.478,10 -10,10 -5.523,0 -10,-4.478 -10,-10 0,-5.523 4.477,-10 10,-10 5.522,0 10,4.478 10,10"
   id="path217" />&#10;<path
   fill="#0099cc"
   d="m 197,82.000438 c 0,5.521 -4.478,10 -10,10 -5.523,0 -10,-4.478 -10,-10 0,-5.523 4.477,-10 10,-10 5.522,0 10,4.478 10,10"
   id="path219" />&#10;&#10;&#10;&#10;&#10;&#10;&#10;<path
   id="path233"
   d="m 197,106.00044 c 0,5.521 -4.478,10 -10,10 -5.523,0 -10,-4.478 -10,-10 0,-5.523 4.477,-10.000002 10,-10.000002 5.522,0 10,4.478002 10,10.000002 m -63,0 c 0,5.521 -4.478,10 -10,10 -5.523,0 -10,-4.478 -10,-10 0,-5.523 4.477,-10.000002 10,-10.000002 5.522,0 10,4.478002 10,10.000002 m 21,0 c 0,5.521 -4.478,10 -10,10 -5.523,0 -10,-4.478 -10,-10 0,-5.523 4.477,-10.000002 10,-10.000002 5.522,0 10,4.478002 10,10.000002 m 21,0 c 0,5.521 -4.478,10 -10,10 -5.523,0 -10,-4.478 -10,-10 0,-5.523 4.477,-10.000002 10,-10.000002 5.522,0 10,4.478002 10,10.000002 m -135,0 c 0,5.522 -4.478,10 -10,10 -5.522,0 -10,-4.478 -10,-10 0,-5.522 4.478,-10.000002 10,-10.000002 5.522,0 10,4.479002 10,10.000002 M 29.5,96.000438 h 93 v 20.000002 h -93 z M 20,106.00044 c 0,5.521 -4.478,10 -10,10 -5.523,0 -10,-4.478 -10,-10 0,-5.523 4.477,-10.000002 10,-10.000002 5.522,0 10,4.478002 10,10.000002"
   style="fill:url(#radialGradient2194);fill-opacity:1" />&#10;<path
   fill="#0099cc"
   d="m 20,130.00044 c 0,5.521 -4.478,10 -10,10 -5.523,0 -10,-4.479 -10,-10 0,-5.522 4.477,-10 10,-10 5.522,0 10,4.478 10,10"
   id="path235" />&#10;<rect
   x="29.5"
   y="120.00043"
   fill="#0099cc"
   width="93"
   height="20"
   id="rect237" />&#10;<path
   fill="#0099cc"
   d="m 41,130.00044 c 0,5.522 -4.478,10 -10,10 -5.522,0 -10,-4.478 -10,-10 0,-5.522 4.478,-10 10,-10 5.522,0 10,4.478 10,10"
   id="path239" />&#10;<path
   fill="#0099cc"
   d="m 176,130.00044 c 0,5.521 -4.478,10 -10,10 -5.523,0 -10,-4.479 -10,-10 0,-5.522 4.477,-10 10,-10 5.522,0 10,4.478 10,10"
   id="path241" />&#10;<path
   fill="#0099cc"
   d="m 155,130.00044 c 0,5.521 -4.478,10 -10,10 -5.523,0 -10,-4.479 -10,-10 0,-5.522 4.477,-10 10,-10 5.522,0 10,4.478 10,10"
   id="path243" />&#10;<path
   fill="#0099cc"
   d="m 134,130.00044 c 0,5.521 -4.478,10 -10,10 -5.523,0 -10,-4.479 -10,-10 0,-5.522 4.477,-10 10,-10 5.522,0 10,4.478 10,10"
   id="path245" />&#10;<path
   fill="#0099cc"
   d="m 197,130.00044 c 0,5.521 -4.478,10 -10,10 -5.523,0 -10,-4.479 -10,-10 0,-5.522 4.477,-10 10,-10 5.522,0 10,4.478 10,10"
   id="path247" />&#10;<path
   fill="#0099cc"
   d="m 20,154.00044 c 0,5.521 -4.478,10 -10,10 -5.523,0 -10,-4.479 -10,-10 0,-5.522 4.477,-10 10,-10 5.522,0 10,4.478 10,10"
   id="path249" />&#10;<rect
   x="29.5"
   y="144.00044"
   fill="#0099cc"
   width="93"
   height="20"
   id="rect251" />&#10;<path
   fill="#0099cc"
   d="m 41,154.00044 c 0,5.522 -4.478,10 -10,10 -5.522,0 -10,-4.478 -10,-10 0,-5.522 4.478,-10 10,-10 5.522,0 10,4.478 10,10"
   id="path253" />&#10;<path
   fill="#0099cc"
   d="m 176,154.00044 c 0,5.521 -4.478,10 -10,10 -5.523,0 -10,-4.479 -10,-10 0,-5.522 4.477,-10 10,-10 5.522,0 10,4.478 10,10"
   id="path255" />&#10;<path
   fill="#0099cc"
   d="m 155,154.00044 c 0,5.521 -4.478,10 -10,10 -5.523,0 -10,-4.479 -10,-10 0,-5.522 4.477,-10 10,-10 5.522,0 10,4.478 10,10"
   id="path257" />&#10;<path
   fill="#0099cc"
   d="m 134,154.00044 c 0,5.521 -4.478,10 -10,10 -5.523,0 -10,-4.479 -10,-10 0,-5.522 4.477,-10 10,-10 5.522,0 10,4.478 10,10"
   id="path259" />&#10;<path
   fill="#0099cc"
   d="m 197,154.00044 c 0,5.521 -4.478,10 -10,10 -5.523,0 -10,-4.479 -10,-10 0,-5.522 4.477,-10 10,-10 5.522,0 10,4.478 10,10"
   id="path261" />&#10;<path
   fill="#0099cc"
   d="m 20,178.00044 c 0,5.521 -4.478,10 -10,10 -5.523,0 -10,-4.479 -10,-10 0,-5.522 4.477,-10 10,-10 5.522,0 10,4.478 10,10"
   id="path263" />&#10;<rect
   x="29.5"
   y="168.00044"
   fill="#0099cc"
   width="93"
   height="20"
   id="rect265" />&#10;<path
   fill="#0099cc"
   d="m 41,178.00044 c 0,5.522 -4.478,10 -10,10 -5.522,0 -10,-4.478 -10,-10 0,-5.522 4.478,-10 10,-10 5.522,0 10,4.478 10,10"
   id="path267" />&#10;<path
   fill="#0099cc"
   d="m 176,178.00044 c 0,5.521 -4.478,10 -10,10 -5.523,0 -10,-4.479 -10,-10 0,-5.522 4.477,-10 10,-10 5.522,0 10,4.478 10,10"
   id="path269" />&#10;<path
   fill="#0099cc"
   d="m 155,178.00044 c 0,5.521 -4.478,10 -10,10 -5.523,0 -10,-4.479 -10,-10 0,-5.522 4.477,-10 10,-10 5.522,0 10,4.478 10,10"
   id="path271" />&#10;<path
   fill="#0099cc"
   d="m 134,178.00044 c 0,5.521 -4.478,10 -10,10 -5.523,0 -10,-4.479 -10,-10 0,-5.522 4.477,-10 10,-10 5.522,0 10,4.478 10,10"
   id="path273" />&#10;<path
   fill="#0099cc"
   d="m 197,178.00044 c 0,5.521 -4.478,10 -10,10 -5.523,0 -10,-4.479 -10,-10 0,-5.522 4.477,-10 10,-10 5.522,0 10,4.478 10,10"
   id="path275" />&#10;<g
   id="g283"
   transform="translate(0,4.3815208e-4)">&#10;	&#10;	&#10;	<path
   id="path281"
   d="m 558.868,94.484 c 0,-14.338 2.366,-27.306 7.102,-38.905 C 570.706,43.98 577.126,34.074 585.236,25.857 593.344,17.64 602.85,11.277 613.757,6.766 624.662,2.256 636.285,0 648.625,0 c 12.34,0 23.963,2.256 34.869,6.766 10.906,4.512 20.411,10.875 28.52,19.091 8.109,8.216 14.529,18.124 19.266,29.722 4.735,11.599 7.104,24.566 7.104,38.905 0,14.659 -2.367,27.75 -7.104,39.267 -4.735,11.518 -11.156,21.307 -19.266,29.359 -8.107,8.057 -17.612,14.217 -28.52,18.485 -10.906,4.27 -22.529,6.403 -34.869,6.403 -12.34,0 -23.963,-2.135 -34.869,-6.403 -10.906,-4.27 -20.413,-10.43 -28.521,-18.485 -8.108,-8.055 -14.528,-17.842 -19.266,-29.359 -4.735,-11.519 -7.101,-24.607 -7.101,-39.267 z m 59.4,0.954 c 0,5.322 0.718,10.12 2.153,14.393 1.436,4.272 3.518,7.942 6.243,11.006 2.725,3.064 5.957,5.443 9.688,7.136 3.73,1.692 7.822,2.539 12.272,2.539 4.592,0 8.719,-0.847 12.379,-2.539 3.66,-1.692 6.854,-4.072 9.58,-7.136 2.726,-3.065 4.809,-6.734 6.245,-11.006 1.435,-4.273 2.153,-9.07 2.153,-14.393 0,-4.837 -0.72,-9.394 -2.153,-13.668 -1.438,-4.272 -3.445,-8.063 -6.028,-11.369 -2.584,-3.305 -5.742,-5.886 -9.474,-7.74 -3.73,-1.854 -7.966,-2.783 -12.702,-2.783 -4.737,0 -8.973,0.928 -12.704,2.783 -3.73,1.854 -6.89,4.435 -9.472,7.74 -2.585,3.306 -4.595,7.097 -6.028,11.369 -1.436,4.274 -2.152,8.832 -2.152,13.668 z M 374.006,0 h 62.612 l 23.09,98.711 h 1.554 c 0.592,-4.153 1.184,-8.35 1.776,-12.588 0.591,-4.238 1.406,-8.35 2.442,-12.339 L 484.354,0 h 61.943 l 27.532,188 H 514.992 L 507,85.063 h -1.333 c -0.296,3.159 -0.814,6.316 -1.554,9.471 -0.74,3.157 -1.556,6.231 -2.442,9.223 L 477.47,188 h -35.523 l -21.758,-79.508 c -1.037,-3.822 -1.853,-7.684 -2.443,-11.59 -0.593,-3.904 -1.036,-7.851 -1.33,-11.838 h -2 c -0.297,3.821 -0.555,7.603 -0.776,11.341 -0.224,3.739 -0.48,7.518 -0.775,11.34 L 405.756,188 H 346.92 Z M 238.78,188 V 0 h 60.776 V 127.716 H 350.62 V 188 Z"
   style="fill:url(#radialGradient1857);fill-opacity:1" />&#10;</g>&#10;<g
   enable-background="new    "
   id="g331"
   transform="translate(0,4.3815208e-4)">&#10;	<path
   fill="#ffffff"
   d="m 41.34,233.189 v -22.625 h 10.688 v 15.375 h 8.97 v 7.25 z"
   id="path285" />&#10;	<path
   fill="#ffffff"
   d="m 63.64,212.347 c 0,-1.16 0.526,-2.07 1.578,-2.73 1.052,-0.659 2.37,-0.989 3.954,-0.989 1.584,0 2.902,0.33 3.954,0.989 1.052,0.66 1.578,1.57 1.578,2.73 0,0.66 -0.156,1.225 -0.468,1.694 -0.312,0.469 -0.721,0.855 -1.227,1.155 -0.506,0.3 -1.09,0.525 -1.752,0.675 -0.662,0.15 -1.357,0.225 -2.084,0.225 -0.728,0 -1.422,-0.075 -2.084,-0.225 -0.662,-0.15 -1.247,-0.375 -1.753,-0.675 -0.506,-0.3 -0.916,-0.686 -1.227,-1.155 -0.311,-0.469 -0.469,-1.034 -0.469,-1.694 z m 10.562,4.905 V 233.19 H 64.14 v -15.938 z"
   id="path287" />&#10;	<path
   fill="#ffffff"
   d="m 87.034,216.908 c 1.329,0 2.501,0.228 3.518,0.683 1.016,0.454 1.863,1.102 2.541,1.941 h 0.273 l -0.273,-2.28 h 9.742 v 15.013 c 0,1.561 -0.384,2.893 -1.152,3.993 -0.768,1.101 -1.79,2.001 -3.065,2.702 -1.275,0.701 -2.753,1.217 -4.432,1.547 -1.679,0.33 -3.417,0.495 -5.213,0.495 -1.64,0 -3.157,-0.11 -4.549,-0.33 -1.392,-0.22 -2.843,-0.53 -4.352,-0.931 l -1.014,-0.27 2.223,-5.371 c 0.963,0.645 2.114,1.133 3.455,1.466 1.34,0.331 2.609,0.498 3.806,0.498 1.379,0 2.459,-0.331 3.24,-0.993 0.78,-0.664 1.236,-1.506 1.366,-2.527 l 0.195,-1.619 H 93.07 c -0.26,0.439 -0.611,0.824 -1.054,1.154 -0.443,0.33 -0.937,0.605 -1.483,0.826 -0.546,0.219 -1.125,0.384 -1.736,0.494 -0.611,0.109 -1.216,0.165 -1.814,0.165 -1.405,0 -2.66,-0.251 -3.766,-0.75 -1.105,-0.5 -2.042,-1.146 -2.81,-1.937 -0.768,-0.789 -1.346,-1.686 -1.736,-2.686 -0.391,-1 -0.585,-1.99 -0.585,-2.971 0,-1 0.195,-1.99 0.586,-2.971 0.391,-0.981 0.971,-1.871 1.739,-2.672 0.769,-0.8 1.707,-1.445 2.814,-1.936 1.107,-0.491 2.376,-0.733 3.809,-0.733 z m 3.847,10.594 c 0.862,0 1.501,-0.222 1.919,-0.665 0.418,-0.443 0.627,-0.967 0.627,-1.57 0,-0.605 -0.229,-1.144 -0.686,-1.617 -0.457,-0.473 -1.104,-0.71 -1.939,-0.71 -0.81,0 -1.476,0.222 -1.998,0.665 -0.522,0.443 -0.783,0.986 -0.783,1.631 0,0.645 0.254,1.184 0.764,1.617 0.51,0.433 1.208,0.649 2.096,0.649 z"
   id="path289" />&#10;	<path
   fill="#ffffff"
   d="m 106.21,225.312 c 0,-1 0.195,-2 0.584,-3.001 0.389,-1.001 0.968,-1.901 1.735,-2.701 0.767,-0.8 1.708,-1.45 2.826,-1.95 1.117,-0.5 2.404,-0.751 3.859,-0.751 1.247,0 2.378,0.178 3.392,0.532 1.014,0.354 1.897,0.922 2.651,1.701 h 0.234 l -0.312,-1.89 h 9.875 v 15.938 h -9.875 l 0.312,-2.086 h -0.227 c -0.91,0.74 -1.833,1.335 -2.77,1.786 -0.936,0.449 -2.119,0.675 -3.549,0.675 -1.404,0 -2.652,-0.251 -3.744,-0.75 -1.092,-0.5 -2.009,-1.146 -2.75,-1.937 -0.741,-0.789 -1.3,-1.675 -1.677,-2.655 -0.377,-0.98 -0.564,-1.951 -0.564,-2.911 z m 9.969,-0.166 c 0,0.645 0.208,1.198 0.625,1.662 0.417,0.463 1.081,0.694 1.992,0.694 0.963,0 1.653,-0.247 2.07,-0.74 0.417,-0.493 0.625,-1.052 0.625,-1.677 0,-0.625 -0.248,-1.139 -0.742,-1.541 -0.495,-0.402 -1.146,-0.604 -1.953,-0.604 -0.808,0 -1.445,0.222 -1.914,0.665 -0.469,0.443 -0.703,0.957 -0.703,1.541 z"
   id="path291" />&#10;	<path
   fill="#ffffff"
   d="m 155.23,210.564 h 10.998 l 4.056,11.88 h 0.273 c 0.104,-0.5 0.208,-1.005 0.312,-1.515 0.104,-0.51 0.247,-1.005 0.429,-1.485 l 3.315,-8.88 h 10.881 l 4.836,22.625 h -10.335 l -1.404,-12.406 h -0.234 c -0.052,0.381 -0.144,0.761 -0.273,1.142 -0.129,0.381 -0.273,0.751 -0.429,1.111 l -4.251,10.153 h -6.24 l -3.822,-9.583 c -0.182,-0.46 -0.325,-0.926 -0.429,-1.396 -0.104,-0.47 -0.182,-0.946 -0.234,-1.427 h -0.351 c -0.052,0.461 -0.098,0.917 -0.137,1.366 -0.039,0.451 -0.084,0.906 -0.136,1.367 l -1.248,9.673 h -10.335 z"
   id="path293" />&#10;	<path
   fill="#ffffff"
   d="m 192.75,225.312 c 0,-1 0.195,-2 0.584,-3.001 0.389,-1.001 0.968,-1.901 1.735,-2.701 0.767,-0.8 1.708,-1.45 2.826,-1.95 1.117,-0.5 2.404,-0.751 3.859,-0.751 1.247,0 2.378,0.178 3.392,0.532 1.014,0.354 1.897,0.922 2.651,1.701 h 0.234 l -0.312,-1.89 h 9.875 v 15.938 h -9.875 l 0.312,-2.086 h -0.227 c -0.91,0.74 -1.833,1.335 -2.77,1.786 -0.936,0.449 -2.119,0.675 -3.549,0.675 -1.404,0 -2.652,-0.251 -3.744,-0.75 -1.092,-0.5 -2.009,-1.146 -2.75,-1.937 -0.741,-0.789 -1.3,-1.675 -1.677,-2.655 -0.377,-0.98 -0.564,-1.951 -0.564,-2.911 z m 9.969,-0.166 c 0,0.645 0.208,1.198 0.625,1.662 0.417,0.463 1.081,0.694 1.992,0.694 0.963,0 1.653,-0.247 2.07,-0.74 0.417,-0.493 0.625,-1.052 0.625,-1.677 0,-0.625 -0.248,-1.139 -0.742,-1.541 -0.495,-0.402 -1.146,-0.604 -1.953,-0.604 -0.808,0 -1.445,0.222 -1.914,0.665 -0.469,0.443 -0.703,0.957 -0.703,1.541 z"
   id="path295" />&#10;	<path
   fill="#ffffff"
   d="m 221.517,217.252 h 9.844 l -0.39,2.571 h 0.234 c 0.494,-0.44 0.968,-0.842 1.423,-1.202 0.455,-0.36 0.936,-0.666 1.443,-0.917 0.507,-0.25 1.065,-0.445 1.677,-0.586 0.611,-0.14 1.319,-0.21 2.125,-0.21 1.3,0 2.398,0.175 3.295,0.524 0.897,0.349 1.638,0.82 2.223,1.41 0.585,0.59 1.007,1.273 1.267,2.053 0.26,0.78 0.39,1.609 0.39,2.489 v 9.805 h -10.063 v -7.755 c 0,-0.238 -0.007,-0.488 -0.02,-0.748 -0.013,-0.26 -0.079,-0.498 -0.196,-0.719 -0.118,-0.219 -0.288,-0.404 -0.509,-0.554 -0.221,-0.15 -0.555,-0.225 -0.998,-0.225 -0.418,0 -0.738,0.065 -0.959,0.194 -0.222,0.131 -0.385,0.3 -0.489,0.51 -0.104,0.209 -0.17,0.439 -0.196,0.688 -0.026,0.249 -0.039,0.494 -0.039,0.733 v 7.874 h -10.063 v -15.935 z"
   id="path297" />&#10;	<path
   fill="#ffffff"
   d="m 248.246,225.312 c 0,-1 0.195,-2 0.584,-3.001 0.389,-1.001 0.968,-1.901 1.735,-2.701 0.767,-0.8 1.708,-1.45 2.826,-1.95 1.117,-0.5 2.404,-0.751 3.859,-0.751 1.247,0 2.378,0.178 3.392,0.532 1.014,0.354 1.897,0.922 2.651,1.701 h 0.234 l -0.312,-1.89 h 9.875 v 15.938 h -9.875 l 0.312,-2.086 H 263.3 c -0.91,0.74 -1.833,1.335 -2.77,1.786 -0.936,0.449 -2.119,0.675 -3.549,0.675 -1.404,0 -2.652,-0.251 -3.744,-0.75 -1.092,-0.5 -2.009,-1.146 -2.75,-1.937 -0.741,-0.789 -1.3,-1.675 -1.677,-2.655 -0.377,-0.98 -0.564,-1.951 -0.564,-2.911 z m 9.969,-0.166 c 0,0.645 0.208,1.198 0.625,1.662 0.417,0.463 1.081,0.694 1.992,0.694 0.963,0 1.653,-0.247 2.07,-0.74 0.417,-0.493 0.625,-1.052 0.625,-1.677 0,-0.625 -0.248,-1.139 -0.742,-1.541 -0.495,-0.402 -1.146,-0.604 -1.953,-0.604 -0.808,0 -1.445,0.222 -1.914,0.665 -0.469,0.443 -0.703,0.957 -0.703,1.541 z"
   id="path299" />&#10;	<path
   fill="#ffffff"
   d="m 285.307,216.908 c 1.329,0 2.501,0.228 3.518,0.683 1.016,0.454 1.863,1.102 2.541,1.941 h 0.273 l -0.273,-2.28 h 9.742 v 15.013 c 0,1.561 -0.384,2.893 -1.152,3.993 -0.768,1.101 -1.79,2.001 -3.065,2.702 -1.275,0.701 -2.753,1.217 -4.432,1.547 -1.679,0.33 -3.417,0.495 -5.213,0.495 -1.64,0 -3.157,-0.11 -4.549,-0.33 -1.392,-0.22 -2.843,-0.53 -4.352,-0.931 l -1.014,-0.27 2.223,-5.371 c 0.963,0.645 2.114,1.133 3.455,1.466 1.34,0.331 2.609,0.498 3.806,0.498 1.379,0 2.459,-0.331 3.24,-0.993 0.78,-0.664 1.236,-1.506 1.366,-2.527 l 0.195,-1.619 h -0.273 c -0.26,0.439 -0.611,0.824 -1.054,1.154 -0.443,0.33 -0.937,0.605 -1.483,0.826 -0.546,0.219 -1.125,0.384 -1.736,0.494 -0.611,0.109 -1.216,0.165 -1.814,0.165 -1.405,0 -2.66,-0.251 -3.766,-0.75 -1.105,-0.5 -2.042,-1.146 -2.81,-1.937 -0.768,-0.789 -1.346,-1.686 -1.736,-2.686 -0.391,-1 -0.585,-1.99 -0.585,-2.971 0,-1 0.195,-1.99 0.586,-2.971 0.391,-0.981 0.971,-1.871 1.739,-2.672 0.769,-0.8 1.707,-1.445 2.814,-1.936 1.107,-0.491 2.376,-0.733 3.809,-0.733 z m 3.847,10.594 c 0.862,0 1.501,-0.222 1.919,-0.665 0.418,-0.443 0.627,-0.967 0.627,-1.57 0,-0.605 -0.229,-1.144 -0.686,-1.617 -0.457,-0.473 -1.104,-0.71 -1.939,-0.71 -0.81,0 -1.476,0.222 -1.998,0.665 -0.522,0.443 -0.783,0.986 -0.783,1.631 0,0.645 0.254,1.184 0.764,1.617 0.51,0.433 1.208,0.649 2.096,0.649 z"
   id="path301" />&#10;	<path
   fill="#ffffff"
   d="m 304.545,225.491 c 0,-1.32 0.312,-2.51 0.937,-3.57 0.624,-1.061 1.47,-1.961 2.537,-2.701 1.066,-0.74 2.329,-1.311 3.786,-1.711 1.457,-0.4 3.005,-0.601 4.644,-0.601 1.769,0 3.428,0.2 4.976,0.6 1.548,0.4 2.895,0.985 4.039,1.755 1.144,0.77 2.049,1.703 2.712,2.803 0.663,1.1 0.995,2.35 0.995,3.748 0,0.12 0,0.24 0,0.36 0,0.12 -0.011,0.239 -0.031,0.359 h -14.656 c 0,0.322 0.026,0.649 0.078,0.982 0.052,0.333 0.163,0.63 0.332,0.892 0.169,0.262 0.41,0.473 0.723,0.635 0.313,0.16 0.729,0.241 1.25,0.241 0.521,0 0.963,-0.127 1.328,-0.382 0.365,-0.254 0.599,-0.575 0.704,-0.962 h 9.805 c -0.338,0.963 -0.911,1.795 -1.717,2.497 -0.807,0.701 -1.75,1.288 -2.829,1.76 -1.08,0.471 -2.238,0.816 -3.474,1.037 -1.236,0.221 -2.452,0.331 -3.649,0.331 -1.639,0 -3.207,-0.165 -4.703,-0.495 -1.496,-0.33 -2.823,-0.825 -3.981,-1.485 -1.158,-0.66 -2.081,-1.495 -2.771,-2.507 -0.69,-1.01 -1.035,-2.205 -1.035,-3.586 z m 9.938,-2.27 h 4.75 c 0,-0.538 -0.229,-1.017 -0.687,-1.435 -0.458,-0.418 -1.054,-0.628 -1.786,-0.628 -0.759,0 -1.328,0.204 -1.708,0.612 -0.38,0.41 -0.569,0.893 -0.569,1.451 z"
   id="path303" />&#10;	<path
   fill="#ffffff"
   d="m 332.361,217.252 h 10.063 l -0.234,2.156 h 0.234 c 0.416,-0.481 0.838,-0.884 1.267,-1.204 0.429,-0.322 0.897,-0.578 1.404,-0.769 0.507,-0.191 1.06,-0.327 1.658,-0.407 0.598,-0.08 1.261,-0.12 1.989,-0.12 h 0.702 v 7.856 c -0.521,-0.236 -1.001,-0.438 -1.443,-0.605 -0.442,-0.167 -0.988,-0.251 -1.638,-0.251 -1.3,0 -2.282,0.274 -2.945,0.823 -0.663,0.549 -0.994,1.332 -0.994,2.351 v 6.107 h -10.063 z"
   id="path305" />&#10;	<path
   fill="#ffffff"
   d="m 367.358,221.952 c 0,-1.779 0.428,-3.39 1.286,-4.83 0.858,-1.44 2.02,-2.67 3.488,-3.691 1.468,-1.02 3.188,-1.81 5.163,-2.369 1.975,-0.561 4.079,-0.841 6.313,-0.841 2.234,0 4.339,0.28 6.313,0.841 1.974,0.56 3.695,1.35 5.162,2.369 1.469,1.021 2.631,2.251 3.488,3.691 0.857,1.44 1.286,3.051 1.286,4.83 0,1.82 -0.429,3.446 -1.286,4.877 -0.857,1.43 -2.02,2.645 -3.488,3.645 -1.467,1 -3.188,1.766 -5.162,2.296 -1.975,0.53 -4.079,0.795 -6.313,0.795 -2.234,0 -4.339,-0.265 -6.313,-0.795 -1.974,-0.53 -3.695,-1.296 -5.163,-2.296 -1.468,-1 -2.63,-2.215 -3.488,-3.645 -0.857,-1.431 -1.286,-3.057 -1.286,-4.877 z m 10.75,0.127 c 0,0.662 0.13,1.258 0.39,1.789 0.26,0.531 0.637,0.988 1.131,1.369 0.494,0.381 1.08,0.676 1.756,0.887 0.676,0.211 1.418,0.315 2.224,0.315 0.832,0 1.579,-0.104 2.243,-0.315 0.662,-0.211 1.241,-0.506 1.735,-0.887 0.494,-0.381 0.871,-0.838 1.132,-1.369 0.26,-0.531 0.39,-1.127 0.39,-1.789 0,-0.602 -0.13,-1.168 -0.39,-1.699 -0.261,-0.531 -0.625,-1.002 -1.093,-1.413 -0.468,-0.411 -1.04,-0.731 -1.716,-0.962 -0.677,-0.23 -1.443,-0.347 -2.302,-0.347 -0.859,0 -1.626,0.116 -2.302,0.347 -0.676,0.231 -1.248,0.551 -1.716,0.962 -0.468,0.411 -0.833,0.882 -1.093,1.413 -0.26,0.531 -0.389,1.098 -0.389,1.699 z"
   id="path307" />&#10;	<path
   fill="#ffffff"
   d="m 403.177,217.252 h 9.844 l -0.39,2.571 h 0.233 c 0.493,-0.44 0.968,-0.842 1.423,-1.202 0.455,-0.36 0.937,-0.666 1.443,-0.917 0.507,-0.25 1.065,-0.445 1.677,-0.586 0.61,-0.14 1.319,-0.21 2.126,-0.21 1.299,0 2.397,0.175 3.295,0.524 0.896,0.35 1.638,0.82 2.223,1.41 0.585,0.59 1.008,1.273 1.268,2.053 0.26,0.78 0.39,1.609 0.39,2.489 v 9.805 h -10.063 v -7.755 c 0,-0.238 -0.007,-0.488 -0.02,-0.748 -0.013,-0.26 -0.079,-0.498 -0.196,-0.719 -0.117,-0.219 -0.287,-0.404 -0.509,-0.554 -0.222,-0.15 -0.555,-0.225 -0.998,-0.225 -0.418,0 -0.737,0.065 -0.96,0.194 -0.221,0.131 -0.385,0.3 -0.488,0.51 -0.105,0.209 -0.17,0.439 -0.196,0.688 -0.026,0.249 -0.039,0.494 -0.039,0.733 v 7.874 h -10.063 z"
   id="path309" />&#10;	<path
   fill="#ffffff"
   d="m 430.875,233.189 v -24.344 h 10.063 v 24.344 z"
   id="path311" />&#10;	<path
   fill="#ffffff"
   d="m 445.365,212.347 c 0,-1.16 0.526,-2.07 1.578,-2.73 1.052,-0.659 2.369,-0.989 3.953,-0.989 1.584,0 2.902,0.33 3.954,0.989 1.052,0.66 1.577,1.57 1.577,2.73 0,0.66 -0.156,1.225 -0.467,1.694 -0.313,0.47 -0.721,0.855 -1.228,1.155 -0.507,0.3 -1.091,0.525 -1.753,0.675 -0.662,0.15 -1.356,0.225 -2.084,0.225 -0.727,0 -1.422,-0.075 -2.084,-0.225 -0.662,-0.15 -1.246,-0.375 -1.752,-0.675 -0.507,-0.3 -0.916,-0.686 -1.228,-1.155 -0.312,-0.469 -0.466,-1.034 -0.466,-1.694 z m 10.563,4.905 v 15.938 h -10.063 v -15.938 z"
   id="path313" />&#10;	<path
   fill="#ffffff"
   d="m 460.467,217.252 h 9.844 l -0.391,2.571 h 0.234 c 0.493,-0.44 0.968,-0.842 1.423,-1.202 0.455,-0.36 0.937,-0.666 1.442,-0.917 0.508,-0.25 1.066,-0.445 1.678,-0.586 0.61,-0.14 1.318,-0.21 2.125,-0.21 1.3,0 2.398,0.175 3.295,0.524 0.897,0.349 1.639,0.82 2.223,1.41 0.586,0.59 1.008,1.273 1.268,2.053 0.26,0.78 0.391,1.609 0.391,2.489 v 9.805 h -10.063 v -7.755 c 0,-0.238 -0.008,-0.488 -0.02,-0.748 -0.014,-0.26 -0.079,-0.498 -0.196,-0.719 -0.118,-0.219 -0.288,-0.404 -0.509,-0.554 -0.223,-0.149 -0.555,-0.225 -0.998,-0.225 -0.418,0 -0.738,0.065 -0.96,0.194 -0.222,0.131 -0.385,0.3 -0.489,0.51 -0.104,0.209 -0.17,0.439 -0.195,0.688 -0.027,0.249 -0.039,0.494 -0.039,0.733 v 7.874 h -10.063 z"
   id="path315" />&#10;	<path
   fill="#ffffff"
   d="m 487.258,225.491 c 0,-1.32 0.313,-2.51 0.937,-3.57 0.624,-1.06 1.47,-1.961 2.536,-2.701 1.066,-0.74 2.329,-1.311 3.786,-1.711 1.457,-0.4 3.005,-0.601 4.644,-0.601 1.77,0 3.428,0.2 4.977,0.6 1.547,0.399 2.895,0.985 4.039,1.755 1.144,0.77 2.049,1.703 2.712,2.803 0.663,1.1 0.995,2.35 0.995,3.748 0,0.12 0,0.24 0,0.36 0,0.12 -0.011,0.239 -0.031,0.359 h -14.656 c 0,0.322 0.025,0.649 0.078,0.982 0.052,0.333 0.162,0.63 0.332,0.892 0.169,0.262 0.41,0.473 0.723,0.635 0.313,0.16 0.729,0.241 1.25,0.241 0.521,0 0.963,-0.127 1.328,-0.382 0.365,-0.254 0.6,-0.575 0.703,-0.962 h 9.806 c -0.339,0.963 -0.911,1.795 -1.718,2.497 -0.807,0.701 -1.749,1.288 -2.828,1.76 -1.08,0.471 -2.238,0.816 -3.475,1.037 -1.235,0.221 -2.451,0.331 -3.648,0.331 -1.639,0 -3.207,-0.165 -4.703,-0.495 -1.496,-0.33 -2.822,-0.825 -3.98,-1.485 -1.158,-0.66 -2.081,-1.495 -2.771,-2.507 -0.691,-1.01 -1.036,-2.205 -1.036,-3.586 z m 9.937,-2.27 h 4.75 c 0,-0.538 -0.229,-1.017 -0.688,-1.435 -0.457,-0.418 -1.053,-0.628 -1.785,-0.628 -0.76,0 -1.328,0.204 -1.708,0.612 -0.379,0.41 -0.569,0.893 -0.569,1.451 z"
   id="path317" />&#10;	<path
   fill="#ffffff"
   d="m 531.891,228.252 v -6.594 h 13.938 v 6.594 z"
   id="path319" />&#10;	<path
   fill="#ffffff"
   d="m 586.647,210.564 v 6.469 h -8.931 v 2.344 h 7.839 v 5.875 h -7.839 v 7.938 h -10.75 v -22.625 h 19.681 z"
   id="path321" />&#10;	<path
   fill="#ffffff"
   d="m 588.68,225.432 c 0,-1.4 0.337,-2.631 1.013,-3.691 0.676,-1.06 1.585,-1.95 2.729,-2.671 1.143,-0.721 2.474,-1.26 3.993,-1.621 1.52,-0.359 3.124,-0.54 4.813,-0.54 1.689,0 3.292,0.181 4.812,0.54 1.52,0.361 2.852,0.9 3.994,1.621 1.142,0.721 2.053,1.61 2.729,2.671 0.675,1.061 1.013,2.291 1.013,3.691 0,1.32 -0.351,2.485 -1.052,3.496 -0.701,1.011 -1.637,1.86 -2.806,2.552 -1.169,0.689 -2.507,1.21 -4.014,1.561 -1.507,0.35 -3.065,0.524 -4.676,0.524 -1.611,0 -3.169,-0.175 -4.677,-0.524 -1.506,-0.351 -2.844,-0.871 -4.013,-1.561 -1.169,-0.691 -2.104,-1.541 -2.806,-2.552 -0.702,-1.011 -1.052,-2.176 -1.052,-3.496 z m 9.75,-0.12 c 0,0.641 0.271,1.165 0.815,1.575 0.544,0.41 1.204,0.615 1.981,0.615 0.776,0 1.437,-0.205 1.981,-0.615 0.543,-0.41 0.815,-0.935 0.815,-1.575 0,-0.64 -0.259,-1.19 -0.776,-1.65 -0.519,-0.46 -1.191,-0.69 -2.021,-0.69 -0.83,0 -1.503,0.23 -2.021,0.69 -0.518,0.46 -0.774,1.009 -0.774,1.65 z"
   id="path323" />&#10;	<path
   fill="#ffffff"
   d="m 617.057,217.252 h 10.063 l -0.234,2.156 h 0.234 c 0.416,-0.481 0.839,-0.884 1.267,-1.204 0.43,-0.322 0.897,-0.578 1.404,-0.769 0.507,-0.191 1.06,-0.327 1.658,-0.407 0.598,-0.08 1.261,-0.12 1.988,-0.12 h 0.703 v 7.856 c -0.521,-0.236 -1.002,-0.438 -1.443,-0.605 -0.442,-0.167 -0.988,-0.251 -1.639,-0.251 -1.3,0 -2.281,0.274 -2.944,0.823 -0.663,0.549 -0.994,1.332 -0.994,2.351 v 6.107 h -10.063 z"
   id="path325" />&#10;	<path
   fill="#ffffff"
   d="m 636.361,217.252 h 9.969 v 8.233 c 0,0.24 0.013,0.476 0.039,0.706 0.026,0.23 0.098,0.436 0.215,0.616 0.117,0.18 0.286,0.325 0.508,0.436 0.222,0.111 0.54,0.165 0.957,0.165 0.417,0 0.735,-0.055 0.957,-0.165 0.222,-0.11 0.391,-0.256 0.508,-0.436 0.117,-0.181 0.188,-0.386 0.215,-0.616 0.027,-0.23 0.039,-0.466 0.039,-0.706 v -8.233 h 9.969 v 9.013 c 0,1.262 -0.325,2.354 -0.974,3.274 -0.65,0.921 -1.52,1.677 -2.61,2.269 -1.091,0.59 -2.338,1.031 -3.74,1.321 -1.402,0.29 -2.856,0.436 -4.363,0.436 -1.507,0 -2.962,-0.146 -4.364,-0.436 -1.402,-0.29 -2.648,-0.731 -3.739,-1.321 -1.091,-0.592 -1.961,-1.348 -2.61,-2.269 -0.649,-0.921 -0.974,-2.013 -0.974,-3.274 v -9.013 z"
   id="path327" />&#10;	<path
   fill="#ffffff"
   d="m 663.81,217.252 h 9.516 l -0.313,2.844 h 0.313 c 0.443,-0.982 1.219,-1.759 2.327,-2.331 1.108,-0.57 2.34,-0.856 3.696,-0.856 1.485,0 2.736,0.296 3.754,0.89 1.017,0.592 1.746,1.432 2.189,2.517 l 0.235,-0.011 c 0.599,-1.141 1.385,-1.992 2.36,-2.554 0.975,-0.562 2.281,-0.842 3.92,-0.842 1.248,0 2.321,0.17 3.219,0.51 0.896,0.34 1.639,0.805 2.223,1.395 0.586,0.59 1.015,1.269 1.288,2.038 0.272,0.77 0.409,1.585 0.409,2.444 v 9.895 h -9.75 v -7.874 c 0,-0.239 -0.006,-0.484 -0.02,-0.733 -0.013,-0.249 -0.064,-0.479 -0.156,-0.688 -0.092,-0.21 -0.242,-0.379 -0.451,-0.51 -0.209,-0.129 -0.496,-0.194 -0.861,-0.194 -0.365,0 -0.646,0.065 -0.842,0.194 -0.195,0.131 -0.34,0.3 -0.431,0.51 -0.092,0.209 -0.144,0.439 -0.157,0.688 -0.013,0.249 -0.02,0.494 -0.02,0.733 v 7.874 h -9.75 v -7.874 c 0,-0.239 -0.006,-0.484 -0.02,-0.733 -0.013,-0.249 -0.064,-0.479 -0.156,-0.688 -0.092,-0.21 -0.242,-0.379 -0.451,-0.51 -0.209,-0.129 -0.496,-0.194 -0.861,-0.194 -0.365,0 -0.646,0.065 -0.842,0.194 -0.195,0.131 -0.34,0.3 -0.431,0.51 -0.092,0.209 -0.144,0.439 -0.157,0.688 -0.013,0.249 -0.02,0.494 -0.02,0.733 v 7.874 h -9.762 v -15.939 z"
   id="path329" />&#10;</g>&#10;<path
   fill="#ffffff"
   stroke="#000000"
   stroke-width="2"
   d="m 286.594,118.60544 -94.28,-16.258 c -4.921,-0.849 -8.188,4.943 -4.921,8.718 l 62.651,72.302 c 3.2,3.69 9.263,1.479 9.333,-3.4 l 0.35,-24.501 44.239,24.967 c 3.904,2.205 8.855,0.821 11.063,-3.08 2.204,-3.906 0.825,-8.861 -3.08,-11.065 l -44.243,-24.963 20.799,-12.972 c 4.141,-2.584 2.9,-8.917 -1.911,-9.748"
   id="path333" />&#10;</svg>
